<?xml version="1.0" encoding="utf-8"?>
<!-- Generator: Adobe Illustrator 27.9.0, SVG Export Plug-In . SVG Version: 6.00 Build 0)  -->
<svg version="1.1" id="Layer_1" xmlns="http://www.w3.org/2000/svg" xmlns:xlink="http://www.w3.org/1999/xlink" x="0px" y="0px"
	 viewBox="0 0 594.1 683.5" style="enable-background:new 0 0 594.1 683.5;" xml:space="preserve">
<style type="text/css">
	.st0{fill-rule:evenodd;clip-rule:evenodd;fill:#9B853E;}
	.st1{fill:none;stroke:#21376F;stroke-width:9.4728;stroke-miterlimit:22.9256;filter: drop-shadow(0px 0px 5px black);}
	.st2{fill:#21376F;}
</style>
<path class="st0" d="M283.8,45.3L276,66.4h-22.2c-5.5,0-10.4,3.4-12.3,8.6c-1.9,5.1-0.4,10.9,3.9,14.5l17.7,14.4l-7,22.5
	c-1.7,5.3,0.2,11.1,4.6,14.4c2.2,1.7,5,2.6,7.8,2.6c2.6,0,5.1-0.8,7.3-2.2l20.4-13.6l20.7,13.5c4.6,3,10.7,2.8,15.1-0.6
	c4.4-3.4,6.2-9.2,4.4-14.4l-7.3-22.2l17.6-14.3l0,0c4.2-3.5,5.7-9.3,3.9-14.5c-1.9-5.1-6.8-8.6-12.3-8.6h-22.2l-7.9-21.1
	c-1.9-5.1-6.8-8.5-12.2-8.5C290.6,36.8,285.7,40.2,283.8,45.3 M278.6,173.5c10.8,6.2,24.1,6.2,35,0l53.4-30.8
	c10.8-6.2,17.5-17.8,17.5-30.3V67.8c0-12.5-6.7-24-17.5-30.3L313.5,6.7c-10.8-6.2-24.1-6.2-35,0l-53.4,30.8
	c-10.8,6.2-17.5,17.8-17.5,30.3v44.6c0,12.5,6.7,24,17.5,30.3L278.6,173.5z M283.3,14.9c7.9-4.6,17.6-4.6,25.5,0l53.4,30.8
	c7.9,4.6,12.7,13,12.7,22.1v44.6c0,9.1-4.9,17.5-12.7,22.1l-53.4,30.8c-7.9,4.6-17.6,4.6-25.5,0l-53.4-30.8
	c-7.9-4.6-12.7-13-12.7-22.1V67.8c0-9.1,4.9-17.5,12.7-22.1L283.3,14.9z M299.7,48.6l9,24.1c0.7,1.8,2.4,3,4.3,3h25.4h0
	c1.6,0,3.1,1,3.6,2.5l0,0c0.6,1.5,0.1,3.2-1.1,4.2l-20,16.3c-1.5,1.2-2.1,3.2-1.5,5l8.3,25.2c0.5,1.5,0,3.3-1.3,4.2
	c-1.3,1-3.1,1.1-4.4,0.2l-23.3-15.2c-1.5-1-3.5-1-5.1,0l-22.9,15.3c-1.4,0.9-3.2,0.8-4.5-0.1c-1.3-1-1.8-2.7-1.3-4.2l8-25.5
	c0.6-1.8,0-3.8-1.5-4.9l-20-16.3c-1.2-1-1.7-2.7-1.1-4.3c0.6-1.5,2-2.5,3.6-2.5h25.4c1.9,0,3.7-1.2,4.3-3l9-24.1
	C293.6,45.6,298.5,45.6,299.7,48.6z"/>
<path class="st1" d="M186.4,92.3H45.3c-22.3,0-40.5,18.2-40.5,40.5v505.5c0,22.3,18.2,40.5,40.5,40.5h501.6
	c22.3,0,40.5-18.2,40.5-40.5V132.8c0-22.3-18.2-40.5-40.5-40.5H405.7"/>
<path class="st2" d="M440.1,379.5c1.7,0,3.2-0.2,4.2-0.6c1.1-0.4,2-1.1,2.6-2.1c0.6-1,1.1-2.4,1.3-4.2c0.3-1.8,0.4-4.2,0.4-7
	c0-3-0.1-5.4-0.4-7.2c-0.3-1.8-0.7-3.2-1.3-4.2c-0.6-1-1.5-1.7-2.6-2c-1.1-0.4-2.5-0.5-4.2-0.5c-1.7,0-3.1,0.2-4.2,0.5
	c-1.1,0.4-2,1-2.6,2c-0.6,1-1.1,2.4-1.3,4.2c-0.3,1.8-0.4,4.2-0.4,7.2c0,2.8,0.1,5.2,0.4,7c0.3,1.8,0.7,3.2,1.3,4.2
	c0.6,1,1.5,1.7,2.6,2.1C437,379.3,438.4,379.5,440.1,379.5 M440.1,391.5c-3.6,0-6.8-0.4-9.5-1.1c-2.7-0.7-5-2-6.8-3.8
	c-1.8-1.8-3.2-4.4-4.1-7.8c-0.9-3.4-1.4-7.8-1.4-13.2c0-5.4,0.5-9.8,1.4-13.2c0.9-3.4,2.3-6,4.1-7.8c1.8-1.8,4.1-3.1,6.8-3.8
	c2.7-0.7,5.9-1.1,9.5-1.1c3.6,0,6.8,0.4,9.5,1.1c2.7,0.7,5,2,6.8,3.8c1.8,1.8,3.2,4.4,4.1,7.8c0.9,3.4,1.4,7.8,1.4,13.2
	c0,5.4-0.5,9.8-1.4,13.2c-0.9,3.4-2.3,6-4.1,7.8c-1.8,1.8-4.1,3.1-6.8,3.8C446.9,391.1,443.7,391.5,440.1,391.5z M398.8,391v-50.9
	h13.3V391H398.8z M373.9,391.5c-1.5,0-3,0-4.4-0.1c-1.4-0.1-2.9-0.2-4.2-0.4c-1.4-0.2-2.7-0.4-4-0.6c-1.3-0.2-2.5-0.5-3.7-0.8v-10.5
	c1.6,0.1,3.2,0.3,5,0.3c1.8,0.1,3.6,0.2,5.5,0.2c1.8,0,3.6,0.1,5.2,0.1c1.5,0,2.8-0.1,3.8-0.3c1-0.2,1.8-0.6,2.3-1.1
	c0.5-0.5,0.8-1.2,0.8-2.1v-0.8c0-1-0.4-1.8-1.1-2.3c-0.7-0.5-1.5-0.8-2.5-0.8h-3.6c-5.3,0-9.3-1.2-12.1-3.5
	c-2.7-2.3-4.1-6.2-4.1-11.7v-2.3c0-5,1.5-8.8,4.5-11.3c3-2.5,7.4-3.7,13-3.7c2.1,0,4.2,0.1,6.1,0.3c1.9,0.2,3.7,0.5,5.3,0.8
	c1.7,0.3,3.2,0.6,4.5,0.9v10.5c-2.1-0.2-4.5-0.3-7.1-0.4c-2.6-0.1-5-0.2-7.2-0.2c-1.3,0-2.4,0.1-3.4,0.3c-1,0.2-1.8,0.5-2.3,1.1
	c-0.5,0.5-0.8,1.3-0.8,2.4v0.7c0,1.1,0.4,2,1.1,2.6c0.7,0.6,1.8,0.9,3.4,0.9h4.5c3.2,0,5.9,0.6,8,1.8c2.1,1.2,3.7,2.9,4.8,4.9
	c1.1,2.1,1.6,4.4,1.6,7.1v2.3c0,4.3-0.8,7.6-2.3,9.9c-1.5,2.3-3.7,3.8-6.4,4.6C381.1,391.1,377.8,391.5,373.9,391.5z M325.8,371h9.1
	l-4.6-19.6L325.8,371z M307.1,391l15.1-50.9h16.6l15.1,50.9H340L338,383h-15.3l-2,8.1H307.1z M261.3,391v-50.9h10.5l17.9,28.4v-28.4
	H303V391h-10.5l-17.9-28.4V391H261.3z M197.2,391l6-50.9h12.5l10.5,35.8l10.5-35.8H249l6.1,50.9h-12.8l-3.9-32.7l1.9,0.1l-8,32.7
	h-12.5l-8.1-32.7l2.1-0.1L210,391H197.2z M177.8,391v-50.9h13.3V391H177.8z M145.5,391.4c-3.2,0-5.7-0.7-7.7-2
	c-2-1.3-3.5-3.2-4.6-5.5c-1.1-2.4-1.9-5.1-2.3-8.2c-0.4-3.1-0.7-6.4-0.7-9.9c0-3.9,0.3-7.5,0.8-10.7c0.5-3.2,1.5-5.9,2.9-8.2
	c1.4-2.3,3.4-4,6-5.3c2.6-1.2,6-1.8,10.1-1.8c2.7,0,5,0.1,7,0.3c1.9,0.2,3.8,0.5,5.4,0.9c1.7,0.4,3.4,0.8,5.3,1.3v10.3
	c-1-0.2-2.3-0.3-3.8-0.5c-1.6-0.1-3.3-0.3-5.2-0.3c-1.9-0.1-4-0.1-6.1-0.1c-2.6,0-4.6,0.4-5.9,1.2c-1.3,0.8-2.1,2.2-2.5,4.3
	c-0.4,2.1-0.6,4.9-0.6,8.6c0,2.8,0.1,5.1,0.3,6.9c0.2,1.8,0.6,3.1,1.1,4.1c0.5,1,1.2,1.6,2,2c0.8,0.4,1.8,0.5,2.9,0.5
	c1.7,0,3.2-0.1,4.5-0.2c1.3-0.2,2.3-0.3,3-0.4v-6.6h-7.1v-10.5c1-0.1,2.2-0.3,3.6-0.3c1.4-0.1,2.8-0.2,4.3-0.2
	c1.5-0.1,2.8-0.1,4.1-0.1c1.6,0,3.1,0,4.4,0c1.3,0,2.4,0.1,3.5,0.1V391h-10l-1.8-3.4c-1.1,0.7-2.8,1.5-5.1,2.4
	C151,391,148.4,391.4,145.5,391.4z"/>
<path class="st2" d="M397.4,483.7h9.1l-4.6-19.6L397.4,483.7z M378.7,503.8l15.1-50.9h16.6l15.1,50.9h-13.8l-2.1-8.1h-15.3l-2,8.1
	H378.7z M332.9,503.8v-50.9h10.5l17.9,28.4v-28.4h13.3v50.9h-10.5l-17.9-28.4v28.4H332.9z M312.1,503.8v-50.9h13.3v50.9H312.1z
	 M289.1,504.2c-2.9,0-5.5-0.3-7.7-1c-2.3-0.7-4.2-1.9-5.9-3.8c-1.6-1.8-2.9-4.5-3.8-7.9c-0.9-3.4-1.3-7.9-1.3-13.4
	c0-5.3,0.5-9.6,1.4-13c0.9-3.4,2.2-6,3.9-7.8c1.7-1.8,3.6-3.1,5.9-3.8c2.3-0.7,4.8-1.1,7.5-1.1c2.8,0,5.3,0.1,7.5,0.4
	c2.2,0.3,4,0.7,5.5,1.1c1.5,0.4,2.8,0.8,3.7,1.2v10.3c-0.9-0.2-2-0.4-3.4-0.5c-1.4-0.2-2.9-0.3-4.7-0.4c-1.8-0.1-3.7-0.2-5.7-0.2
	c-1.6,0-2.9,0.2-3.9,0.5c-1.1,0.3-1.9,1-2.6,1.9c-0.6,1-1.1,2.4-1.4,4.2c-0.3,1.8-0.4,4.3-0.4,7.4c0,2.7,0.1,5,0.3,6.9
	c0.2,1.8,0.6,3.3,1.2,4.3c0.6,1,1.4,1.8,2.6,2.2c1.1,0.4,2.6,0.7,4.3,0.7c3.5,0,6.3-0.1,8.5-0.2c2.2-0.1,3.9-0.3,5.2-0.4V502
	c-1.1,0.5-2.5,0.8-4,1.2c-1.5,0.3-3.3,0.6-5.4,0.8C294.4,504.1,292,504.2,289.1,504.2z M246.8,504.2c-1.5,0-3,0-4.4-0.1
	c-1.4-0.1-2.9-0.2-4.2-0.4c-1.4-0.2-2.7-0.4-4-0.6c-1.3-0.2-2.5-0.5-3.7-0.8v-10.5c1.6,0.1,3.2,0.3,5,0.3c1.8,0.1,3.6,0.2,5.5,0.2
	c1.8,0,3.6,0.1,5.2,0.1c1.5,0,2.8-0.1,3.8-0.3c1-0.2,1.8-0.6,2.3-1.1c0.5-0.5,0.8-1.2,0.8-2.1v-0.8c0-1-0.4-1.8-1.1-2.3
	c-0.7-0.5-1.5-0.8-2.5-0.8h-3.6c-5.3,0-9.3-1.2-12.1-3.5c-2.7-2.3-4.1-6.2-4.1-11.7v-2.3c0-5,1.5-8.8,4.5-11.3c3-2.5,7.4-3.7,13-3.7
	c2.1,0,4.2,0.1,6.1,0.3c1.9,0.2,3.7,0.5,5.3,0.8c1.7,0.3,3.2,0.6,4.5,0.9V465c-2.1-0.2-4.5-0.3-7.1-0.4c-2.6-0.1-5-0.2-7.2-0.2
	c-1.3,0-2.4,0.1-3.4,0.3c-1,0.2-1.8,0.5-2.3,1.1c-0.5,0.5-0.8,1.3-0.8,2.4v0.7c0,1.1,0.4,2,1.1,2.6c0.7,0.6,1.8,0.9,3.4,0.9h4.5
	c3.2,0,5.9,0.6,8,1.8c2.1,1.2,3.7,2.9,4.8,4.9c1.1,2.1,1.6,4.4,1.6,7.1v2.3c0,4.3-0.8,7.6-2.3,9.9c-1.5,2.3-3.7,3.8-6.4,4.6
	C254,503.8,250.7,504.2,246.8,504.2z M210,503.8v-50.9h13.3v50.9H210z M180,477.9h7.7c0.9,0,1.6-0.3,2.2-0.8
	c0.5-0.5,0.9-1.2,1.1-2.2c0.2-1,0.3-2.2,0.3-3.7c0-1.4-0.1-2.6-0.4-3.6c-0.3-1-0.6-1.7-1.1-2.2c-0.5-0.5-1.2-0.7-2.1-0.7H180V477.9z
	 M166.7,503.8v-50.9H189c1.7,0,3.5,0.2,5.3,0.6c1.8,0.4,3.5,1.2,5,2.4c1.5,1.2,2.8,3,3.7,5.5s1.4,5.7,1.4,9.8c0,4.1-0.5,7.4-1.4,9.9
	c-0.9,2.5-2.1,4.4-3.6,5.6c-1.5,1.3-3,2.1-4.8,2.5c-1.7,0.4-3.4,0.7-5,0.7c-0.9,0-1.8,0-2.7-0.1c-0.9-0.1-1.8-0.2-2.7-0.4
	c-0.9-0.2-1.7-0.3-2.5-0.5c-0.8-0.2-1.4-0.3-1.9-0.4v15.3H166.7z"/>
<path class="st2" d="M419.4,258.3h9.1l-4.6-19.6L419.4,258.3z M400.7,278.3l15.1-50.9h16.6l15.1,50.9h-13.8l-2.1-8.1h-15.3l-2,8.1
	H400.7z M362.9,278.3v-10.5l19-28.4h-19v-11.9H398V238l-19,28.4h19v11.9H362.9z M332.1,258.3h9.1l-4.6-19.6L332.1,258.3z
	 M313.4,278.3l15.1-50.9H345l15.1,50.9h-13.8l-2.1-8.1H329l-2,8.1H313.4z M286.3,250.3h6c0.7,0,1.4-0.1,1.9-0.3c0.5-0.2,1-0.5,1.4-1
	c0.4-0.5,0.7-1,0.9-1.7c0.2-0.7,0.3-1.6,0.3-2.6c0-1-0.1-1.8-0.3-2.5c-0.2-0.7-0.5-1.2-0.9-1.6c-0.4-0.4-0.9-0.7-1.4-0.9
	c-0.5-0.2-1.2-0.3-1.9-0.3h-6V250.3z M273,278.3v-50.9h21.7c2.2,0,4.3,0.3,6.2,0.8c1.9,0.5,3.5,1.5,4.9,2.8c1.4,1.3,2.4,3,3.2,5.2
	c0.8,2.2,1.1,5,1.1,8.3c0,2.1-0.2,3.9-0.5,5.5c-0.4,1.6-0.9,2.9-1.5,3.9c-0.6,1.1-1.3,2-2.2,2.7c-0.8,0.7-1.7,1.4-2.7,1.9l8.8,19.7
	h-13.5l-7.1-17.5c-0.4,0-0.8,0-1.3,0c-0.4,0-0.9,0-1.3,0c-0.4,0-0.8,0-1.3,0c-0.4,0-0.9,0-1.3,0v17.5H273z M242.4,250.3h6
	c0.7,0,1.4-0.1,1.9-0.3c0.5-0.2,1-0.5,1.4-1c0.4-0.5,0.7-1,0.9-1.7c0.2-0.7,0.3-1.6,0.3-2.6c0-1-0.1-1.8-0.3-2.5
	c-0.2-0.7-0.5-1.2-0.9-1.6c-0.4-0.4-0.9-0.7-1.4-0.9c-0.5-0.2-1.2-0.3-1.9-0.3h-6V250.3z M229.1,278.3v-50.9h21.7
	c2.2,0,4.3,0.3,6.2,0.8c1.9,0.5,3.5,1.5,4.9,2.8c1.4,1.3,2.4,3,3.2,5.2c0.8,2.2,1.1,5,1.1,8.3c0,2.1-0.2,3.9-0.5,5.5
	c-0.4,1.6-0.9,2.9-1.5,3.9c-0.6,1.1-1.3,2-2.2,2.7c-0.8,0.7-1.7,1.4-2.7,1.9l8.8,19.7h-13.5l-7.1-17.5c-0.4,0-0.8,0-1.3,0
	c-0.4,0-0.9,0-1.3,0c-0.4,0-0.8,0-1.3,0c-0.4,0-0.9,0-1.3,0v17.5H229.1z M201.2,278.8c-1.1,0-2.4-0.1-3.9-0.3
	c-1.5-0.2-3-0.7-4.5-1.5c-1.4-0.8-2.6-2-3.6-3.6c-1-1.6-1.4-3.8-1.4-6.7v-26.6c0-2.5,0.4-4.5,1.2-6.2c0.8-1.6,1.8-2.9,3-3.9
	c1.2-0.9,2.6-1.6,4.1-2c1.5-0.4,3-0.6,4.4-0.6c3.8,0,7.1,0.1,9.9,0.2c2.8,0.1,5.2,0.2,7.2,0.4c2,0.1,3.8,0.3,5.4,0.5v11.2h-18.4
	c-1.1,0-2,0.3-2.6,0.8c-0.6,0.5-0.9,1.3-0.9,2.3v4.2l18.4,0.7v10.5l-18.4,0.7v3.8c0,0.8,0.1,1.5,0.4,2c0.3,0.5,0.6,0.9,1.1,1.2
	c0.5,0.3,1,0.4,1.5,0.4h18.9v11.2c-2,0.3-4.2,0.5-6.7,0.7c-2.5,0.2-5.1,0.3-7.7,0.4C205.9,278.7,203.5,278.8,201.2,278.8z
	 M157.5,278.3v-39h-12.8v-11.9h38.9v11.9h-12.8v39H157.5z"/>
<path class="st2" d="M472.7,616.8c-3.2,0-5.7-0.7-7.7-2c-2-1.3-3.5-3.2-4.6-5.5c-1.1-2.4-1.9-5.1-2.3-8.2c-0.4-3.1-0.7-6.4-0.7-9.9
	c0-3.9,0.3-7.5,0.8-10.7c0.5-3.2,1.5-5.9,2.9-8.2c1.4-2.3,3.4-4,6-5.3c2.6-1.2,6-1.8,10.1-1.8c2.7,0,5,0.1,7,0.3
	c1.9,0.2,3.8,0.5,5.4,0.9c1.7,0.4,3.4,0.8,5.3,1.3V578c-1-0.2-2.3-0.3-3.8-0.5c-1.6-0.1-3.3-0.3-5.2-0.3c-1.9-0.1-4-0.1-6.1-0.1
	c-2.6,0-4.6,0.4-5.9,1.2c-1.3,0.8-2.1,2.2-2.5,4.3c-0.4,2.1-0.6,4.9-0.6,8.6c0,2.8,0.1,5.1,0.3,6.9c0.2,1.8,0.6,3.1,1.1,4.1
	c0.5,1,1.2,1.6,2,2c0.8,0.4,1.8,0.5,2.9,0.5c1.7,0,3.2-0.1,4.5-0.2c1.3-0.2,2.3-0.3,3-0.4v-6.6h-7.1v-10.5c1-0.1,2.2-0.3,3.6-0.3
	c1.4-0.1,2.8-0.2,4.3-0.2c1.5-0.1,2.8-0.1,4.1-0.1c1.6,0,3.1,0,4.4,0c1.3,0,2.4,0.1,3.5,0.1v30.2h-10l-1.8-3.4
	c-1.1,0.7-2.8,1.5-5.1,2.4C478.2,616.4,475.6,616.8,472.7,616.8 M409.5,616.5v-50.9h10.5l17.9,28.4v-28.4h13.3v50.9h-10.5
	l-17.9-28.4v28.4H409.5z M388.7,616.5v-50.9H402v50.9H388.7z M342.6,616.5v-50.9h13.3v19.8h5.3l8.2-19.8h14.1l-11.7,25.6l12.3,25.3
	H370l-8.8-19.2h-5.3v19.2H342.6z M312.1,588.4h6c0.7,0,1.4-0.1,1.9-0.3c0.5-0.2,1-0.5,1.4-1c0.4-0.5,0.7-1,0.9-1.7
	c0.2-0.7,0.3-1.6,0.3-2.6c0-1-0.1-1.8-0.3-2.5c-0.2-0.7-0.5-1.2-0.9-1.6c-0.4-0.4-0.9-0.7-1.4-0.9c-0.5-0.2-1.2-0.3-1.9-0.3h-6
	V588.4z M298.8,616.5v-50.9h21.7c2.2,0,4.3,0.3,6.2,0.8c1.9,0.5,3.5,1.5,4.9,2.8c1.4,1.3,2.4,3,3.2,5.2c0.8,2.2,1.1,5,1.1,8.3
	c0,2.1-0.2,3.9-0.5,5.5c-0.4,1.6-0.9,2.9-1.5,3.9c-0.6,1.1-1.3,2-2.2,2.7c-0.8,0.7-1.7,1.4-2.7,1.9l8.8,19.7h-13.5l-7.1-17.5
	c-0.4,0-0.8,0-1.3,0c-0.4,0-0.9,0-1.3,0c-0.4,0-0.8,0-1.3,0c-0.4,0-0.9,0-1.3,0v17.5H298.8z M270.8,604.9c1.7,0,3.2-0.2,4.2-0.6
	c1.1-0.4,2-1.1,2.6-2.1c0.6-1,1.1-2.4,1.3-4.2c0.3-1.8,0.4-4.2,0.4-7c0-3-0.1-5.4-0.4-7.2c-0.3-1.8-0.7-3.2-1.3-4.2
	c-0.6-1-1.5-1.7-2.6-2c-1.1-0.4-2.5-0.5-4.2-0.5c-1.7,0-3.1,0.2-4.2,0.5c-1.1,0.4-2,1-2.6,2c-0.6,1-1.1,2.4-1.3,4.2
	c-0.3,1.8-0.4,4.2-0.4,7.2c0,2.8,0.1,5.2,0.4,7c0.3,1.8,0.7,3.2,1.3,4.2c0.6,1,1.5,1.7,2.6,2.1C267.7,604.7,269.1,604.9,270.8,604.9
	z M270.8,616.9c-3.6,0-6.8-0.4-9.5-1.1c-2.7-0.7-5-2-6.8-3.8c-1.8-1.8-3.2-4.4-4.1-7.8c-0.9-3.4-1.4-7.8-1.4-13.2
	c0-5.4,0.5-9.8,1.4-13.2c0.9-3.4,2.3-6,4.1-7.8c1.8-1.8,4.1-3.1,6.8-3.8c2.7-0.7,5.9-1.1,9.5-1.1c3.6,0,6.8,0.4,9.5,1.1
	c2.7,0.7,5,2,6.8,3.8c1.8,1.8,3.2,4.4,4.1,7.8c0.9,3.4,1.4,7.8,1.4,13.2c0,5.4-0.5,9.8-1.4,13.2c-0.9,3.4-2.3,6-4.1,7.8
	c-1.8,1.8-4.1,3.1-6.8,3.8C277.6,616.5,274.4,616.9,270.8,616.9z M191.3,616.5l-11.6-50.9h13.8l6.3,31l7.6-31h11.9l7.5,31l6.3-31
	h13.8l-11.6,50.9h-13.3l-8.6-31.1l-8.7,31.1H191.3z M156.1,604.9c1.7,0,3.2-0.2,4.2-0.6c1.1-0.4,2-1.1,2.6-2.1
	c0.6-1,1.1-2.4,1.3-4.2c0.3-1.8,0.4-4.2,0.4-7c0-3-0.1-5.4-0.4-7.2c-0.3-1.8-0.7-3.2-1.3-4.2c-0.6-1-1.5-1.7-2.6-2
	c-1.1-0.4-2.5-0.5-4.2-0.5c-1.7,0-3.1,0.2-4.2,0.5c-1.1,0.4-2,1-2.6,2c-0.6,1-1.1,2.4-1.3,4.2c-0.3,1.8-0.4,4.2-0.4,7.2
	c0,2.8,0.1,5.2,0.4,7c0.3,1.8,0.7,3.2,1.3,4.2c0.6,1,1.5,1.7,2.6,2.1C153,604.7,154.4,604.9,156.1,604.9z M156.1,616.9
	c-3.6,0-6.8-0.4-9.5-1.1c-2.7-0.7-5-2-6.8-3.8c-1.8-1.8-3.2-4.4-4.1-7.8c-0.9-3.4-1.4-7.8-1.4-13.2c0-5.4,0.5-9.8,1.4-13.2
	c0.9-3.4,2.3-6,4.1-7.8c1.8-1.8,4.1-3.1,6.8-3.8c2.7-0.7,5.9-1.1,9.5-1.1c3.6,0,6.8,0.4,9.5,1.1c2.7,0.7,5,2,6.8,3.8
	c1.8,1.8,3.2,4.4,4.1,7.8c0.9,3.4,1.4,7.8,1.4,13.2c0,5.4-0.5,9.8-1.4,13.2c-0.9,3.4-2.3,6-4.1,7.8c-1.8,1.8-4.1,3.1-6.8,3.8
	C162.9,616.5,159.7,616.9,156.1,616.9z M113.4,616.9c-2.9,0-5.5-0.3-7.7-1c-2.3-0.7-4.2-1.9-5.9-3.8c-1.6-1.8-2.9-4.5-3.8-7.9
	c-0.9-3.4-1.3-7.9-1.3-13.4c0-5.3,0.5-9.6,1.4-13c0.9-3.4,2.2-6,3.9-7.8c1.7-1.8,3.6-3.1,5.9-3.8c2.3-0.7,4.8-1.1,7.5-1.1
	c2.8,0,5.3,0.1,7.5,0.4c2.2,0.3,4,0.7,5.5,1.1c1.5,0.4,2.8,0.8,3.7,1.2v10.3c-0.9-0.2-2-0.4-3.4-0.5c-1.4-0.2-2.9-0.3-4.7-0.4
	c-1.8-0.1-3.7-0.2-5.7-0.2c-1.6,0-2.9,0.2-3.9,0.5c-1.1,0.3-1.9,1-2.6,1.9c-0.6,1-1.1,2.4-1.4,4.2c-0.3,1.8-0.4,4.3-0.4,7.4
	c0,2.7,0.1,5,0.3,6.9c0.2,1.8,0.6,3.3,1.2,4.3c0.6,1,1.4,1.8,2.6,2.2c1.1,0.4,2.6,0.7,4.3,0.7c3.5,0,6.3-0.1,8.5-0.2
	c2.2-0.1,3.9-0.3,5.2-0.4v10.3c-1.1,0.5-2.5,0.8-4,1.2c-1.5,0.3-3.3,0.6-5.4,0.8C118.6,616.8,116.2,616.9,113.4,616.9z"/>
</svg>
