<?xml version="1.0" encoding="utf-8"?>
<!-- Generator: Adobe Illustrator 27.9.0, SVG Export Plug-In . SVG Version: 6.00 Build 0)  -->
<svg version="1.1" id="Layer_1" xmlns="http://www.w3.org/2000/svg" xmlns:xlink="http://www.w3.org/1999/xlink" x="0px" y="0px"
	 viewBox="0 0 310 90" style="enable-background:new 0 0 310 90;" xml:space="preserve">
<style type="text/css">
	.st0{fill-rule:evenodd;clip-rule:evenodd;fill:#fff;filter: drop-shadow(0px 0px 5px black);}
</style>
<g>
	<path class="st0" d="M86.6,74.9h1.8v8.1h-1.8V74.9z M90,74.9h3.3c0.8,0,1.4,0,1.7,0.1c0.6,0.1,1,0.3,1.4,0.7
		c0.3,0.3,0.7,0.8,0.8,1.4c0.2,0.6,0.3,1.1,0.3,1.9c0,0.7-0.1,1.3-0.2,1.7c-0.2,0.6-0.6,1-0.9,1.5c-0.3,0.2-0.7,0.5-1.3,0.7
		c-0.3,0.1-0.9,0.2-1.6,0.2h-3.4v-8.2H90z M91.9,76.2v5.4h1.4c0.5,0,0.9,0,1.1-0.1c0.3-0.1,0.6-0.2,0.7-0.3c0.2-0.1,0.3-0.5,0.5-0.8
		c0.1-0.3,0.2-0.8,0.2-1.5c0-0.6-0.1-1.1-0.2-1.5c-0.1-0.3-0.3-0.6-0.5-0.8c-0.2-0.2-0.5-0.3-0.8-0.3c-0.2,0-0.8-0.1-1.5-0.1h-0.9
		V76.2z M99.1,82.9v-8.1h6.6v1.4H101V78h4.4v1.4H101v2.2h5v1.4L99.1,82.9L99.1,82.9z M107.5,82.9v-8.1h3.8c0.9,0,1.6,0.1,2.1,0.2
		c0.5,0.1,0.8,0.5,1,0.8c0.2,0.3,0.3,0.8,0.3,1.3c0,0.6-0.2,1.1-0.6,1.5c-0.3,0.3-1,0.7-1.7,0.8c0.3,0.2,0.7,0.5,0.9,0.7
		c0.2,0.2,0.6,0.7,1,1.3l1.1,1.6h-2.2l-1.3-1.7c-0.5-0.7-0.8-1-0.9-1.1c-0.2-0.1-0.3-0.2-0.6-0.3c-0.2-0.1-0.5-0.1-0.9-0.1h-0.3v3.4
		h-1.8V82.9z M109.2,78.3h1.4c0.9,0,1.4,0,1.6-0.1c0.2-0.1,0.3-0.2,0.5-0.3c0.1-0.1,0.2-0.3,0.2-0.6c0-0.2-0.1-0.5-0.2-0.7
		c-0.1-0.1-0.3-0.2-0.7-0.3c-0.1,0-0.6,0-1.4,0h-1.4L109.2,78.3L109.2,78.3z M119.9,82.9v-8.1h6.6v1.4h-4.8V78h4.4v1.4h-4.4v2.2h5
		v1.4L119.9,82.9L119.9,82.9z M128.2,82.9v-8.1h1.7l3.6,5.4v-5.4h1.7v8.1h-1.8l-3.6-5.2v5.2H128.2z M143.9,74.9h1.8V80
		c0,0.7-0.1,1.1-0.2,1.6c-0.2,0.5-0.5,0.8-0.9,1.1c-0.5,0.2-1,0.5-1.8,0.5c-0.9,0-1.6-0.2-2.1-0.7c-0.5-0.5-0.7-1.1-0.7-1.9l1.7-0.2
		c0,0.5,0.1,0.8,0.2,1c0.2,0.3,0.5,0.5,0.9,0.5c0.5,0,0.7-0.1,0.9-0.3c0.1-0.2,0.2-0.7,0.2-1.3v-5.4H143.9z M147.6,74.9h1.8v4.3
		c0,0.7,0,1.1,0.1,1.4c0.1,0.3,0.2,0.6,0.6,0.8c0.3,0.2,0.7,0.3,1.1,0.3c0.6,0,0.9-0.1,1.1-0.2c0.2-0.2,0.5-0.5,0.5-0.7
		c0-0.2,0.1-0.7,0.1-1.4V75h1.8v4.2c0,1,0,1.7-0.1,2.1c-0.1,0.3-0.2,0.7-0.6,1c-0.2,0.2-0.6,0.5-1,0.7c-0.5,0.1-1,0.2-1.7,0.2
		c-0.8,0-1.5-0.1-1.9-0.2c-0.5-0.2-0.8-0.5-1-0.7c-0.2-0.2-0.5-0.6-0.5-0.9c-0.1-0.5-0.2-1.1-0.2-2.1v-4.4H147.6z M156.6,74.9h3.5
		c0.7,0,1.3,0,1.6,0.1c0.3,0,0.7,0.1,0.9,0.3c0.2,0.1,0.5,0.3,0.7,0.7c0.2,0.2,0.2,0.6,0.2,0.9c0,0.3-0.1,0.7-0.3,1
		c-0.2,0.3-0.6,0.6-0.9,0.7c0.6,0.1,0.9,0.3,1.3,0.7c0.3,0.3,0.5,0.8,0.5,1.3c0,0.3-0.1,0.7-0.3,1c-0.2,0.3-0.5,0.6-0.8,0.8
		c-0.3,0.2-0.7,0.3-1.3,0.3c-0.3,0-1,0-2.2,0.1h-3.1v-8H156.6z M158.4,76.2V78h1.1c0.7,0,1.1,0,1.3,0c0.3,0,0.6-0.1,0.7-0.3
		c0.2-0.1,0.2-0.3,0.2-0.6c0-0.2-0.1-0.5-0.2-0.6c-0.1-0.1-0.3-0.2-0.7-0.3c-0.2,0-0.7,0-1.6,0L158.4,76.2L158.4,76.2z M158.4,79.4
		v2.2h1.7c0.7,0,1,0,1.3,0c0.2,0,0.5-0.1,0.7-0.3c0.1-0.1,0.2-0.3,0.2-0.7c0-0.2-0.1-0.5-0.2-0.6c-0.1-0.2-0.3-0.3-0.6-0.3
		c-0.2-0.1-0.8-0.1-1.6-0.1h-1.5V79.4z M165.6,74.9h1.8v8.1h-1.8V74.9z M169.1,82.9v-8h1.8v6.6h4.4v1.4H169.1z M184.7,82.9h-1.9
		l-0.8-1.8h-3.5l-0.7,1.8h-1.9l3.4-8.1h1.9L184.7,82.9z M181.4,79.8l-1.3-3l-1.3,3H181.4z M191.5,80l1.7,0.5
		c-0.2,0.9-0.7,1.5-1.4,1.9c-0.6,0.5-1.4,0.7-2.4,0.7c-1.1,0-2.2-0.3-3-1.1c-0.8-0.7-1.1-1.7-1.1-3c0-1.4,0.3-2.4,1.1-3.1
		s1.8-1.1,3.1-1.1c1.1,0,1.9,0.3,2.6,0.9c0.5,0.3,0.7,0.8,0.9,1.5l-1.8,0.3c-0.1-0.5-0.3-0.8-0.7-1c-0.3-0.2-0.8-0.3-1.3-0.3
		c-0.7,0-1.1,0.2-1.6,0.7c-0.5,0.5-0.6,1.1-0.6,2.1c0,1,0.2,1.7,0.6,2.2c0.5,0.5,0.9,0.7,1.6,0.7c0.5,0,0.9-0.1,1.3-0.5
		C191,81,191.2,80.6,191.5,80z M194.7,74.9h1.8v8.1h-1.8V74.9z M197.9,79c0-0.8,0.1-1.5,0.5-2.1c0.2-0.5,0.5-0.8,0.8-1.1
		c0.3-0.3,0.7-0.6,1.1-0.7c0.6-0.2,1.3-0.3,1.9-0.3c1.4,0,2.4,0.3,3.2,1.1c0.8,0.7,1.1,1.7,1.1,3.1c0,1.3-0.3,2.3-1.1,3.1
		c-0.8,0.7-1.8,1.1-3.2,1.1c-1.4,0-2.4-0.3-3.2-1.1C198.2,81.2,197.9,80.2,197.9,79z M199.7,79c0,0.9,0.2,1.6,0.7,2.1
		c0.5,0.5,1,0.7,1.8,0.7c0.7,0,1.4-0.2,1.8-0.7c0.5-0.5,0.7-1.1,0.7-2.1s-0.2-1.6-0.7-2.1s-1-0.7-1.8-0.7c-0.7,0-1.4,0.2-1.8,0.7
		C199.9,77.2,199.7,78,199.7,79z M207.9,82.9v-8.1h1.7l3.6,5.4v-5.4h1.7v8.1h-1.8l-3.6-5.2v5.2H207.9z M222.7,82.9l-3.2-8.1h1.9
		l2.3,5.9l2.2-5.9h1.9l-3.2,8.1H222.7z M228.3,79c0-0.8,0.1-1.5,0.5-2.1c0.2-0.5,0.5-0.8,0.8-1.1c0.3-0.3,0.8-0.6,1.1-0.7
		c0.6-0.2,1.3-0.3,1.9-0.3c1.4,0,2.4,0.3,3.2,1.1c0.8,0.7,1.1,1.7,1.1,3.1c0,1.3-0.3,2.3-1.1,3.1c-0.8,0.7-1.8,1.1-3.2,1.1
		c-1.4,0-2.4-0.3-3.2-1.1C228.7,81.2,228.3,80.2,228.3,79z M230.2,79c0,0.9,0.2,1.6,0.7,2.1c0.5,0.5,1,0.7,1.8,0.7
		c0.7,0,1.4-0.2,1.8-0.7c0.5-0.5,0.7-1.1,0.7-2.1s-0.2-1.6-0.7-2.1c-0.5-0.5-1-0.7-1.8-0.7c-0.8,0-1.4,0.2-1.8,0.7
		C230.5,77.2,230.2,78,230.2,79z M238.4,82.9v-8h1.8v6.6h4.4v1.4H238.4z M246,74.9h1.8v4.3c0,0.7,0,1.1,0.1,1.4
		c0.1,0.3,0.2,0.6,0.6,0.8c0.3,0.2,0.7,0.3,1.1,0.3c0.6,0,0.9-0.1,1.1-0.2c0.2-0.2,0.5-0.5,0.5-0.7c0-0.2,0.1-0.7,0.1-1.4V75h1.8
		v4.2c0,1,0,1.7-0.1,2.1c-0.1,0.3-0.2,0.7-0.6,1c-0.2,0.2-0.6,0.5-1,0.7c-0.5,0.1-1,0.2-1.7,0.2c-0.8,0-1.5-0.1-1.9-0.2
		c-0.5-0.2-0.8-0.5-1-0.7c-0.2-0.2-0.5-0.6-0.5-0.9c-0.1-0.5-0.2-1.1-0.2-2.1v-4.4H246z M255.1,82.9v-8.1h1.7l3.6,5.4v-5.4h1.7v8.1
		h-1.8l-3.6-5.2v5.2H255.1z M266,82.9v-6.7h-2.6v-1.4h7.1v1.4h-2.6v6.7H266z M278.8,82.9h-1.9l-0.8-1.8h-3.5l-0.7,1.8h-1.9l3.4-8.1
		h1.9L278.8,82.9z M275.5,79.8l-1.3-3l-1.3,3H275.5z M279.7,82.9v-8.1h3.8c0.9,0,1.6,0.1,2.1,0.2c0.5,0.1,0.8,0.5,1,0.8
		c0.2,0.3,0.3,0.8,0.3,1.3c0,0.6-0.2,1.1-0.6,1.5c-0.3,0.3-1,0.7-1.7,0.8c0.3,0.2,0.7,0.5,0.9,0.7c0.2,0.2,0.6,0.7,1,1.3l1.1,1.6
		h-2.2l-1.3-1.7c-0.5-0.7-0.8-1-0.9-1.1c-0.1-0.1-0.3-0.2-0.6-0.3c-0.2-0.1-0.5-0.1-0.9-0.1h-0.3v3.4h-1.8V82.9z M281.5,78.3h1.4
		c0.9,0,1.4,0,1.6-0.1c0.2-0.1,0.3-0.2,0.5-0.3c0.1-0.1,0.2-0.3,0.2-0.6c0-0.2-0.1-0.5-0.2-0.7c-0.1-0.1-0.3-0.2-0.7-0.3
		c-0.1,0-0.6,0-1.4,0h-1.4V78.3z M288.7,74.9h1.8v8.1h-1.8V74.9z M300.3,82.9h-1.9l-0.8-1.8h-3.5l-0.7,1.8h-1.9l3.5-8.1h1.9
		L300.3,82.9z M296.9,79.8l-1.3-3l-1.3,3H296.9z M58.7,29.6V36h-4.6c0,0-7.5,0.6-7.5,7.9c0,0-1.9,7.8,12.1,7.8V58
		c0,0-19.7,1.3-19.7-14.7C39,43.3,38.7,29.6,58.7,29.6z M62.2,38.9v18.8h7.2V41.1c0-4.9,4.4-5.5,4.4-5.5c4.9,0,4.2,5.5,4.2,5.5h-6.7
		v6h7v10.6h7.1v-18c0-9.3-11.2-10.5-11.2-10.5C63.2,29.4,62.2,38.9,62.2,38.9z M96.9,48.1c0,3.4-3.1,3.4-3.1,3.4h-5.6v6.4h5.7
		c9.6,0,10.3-8.1,10.3-8.1V29.6h-7.5L96.9,48.1z M109,40.5v17.2h7v-17c0-5,4.6-5.5,4.6-5.5c4.6,0,4.2,5.8,4.2,5.8h-6.6v6.2h6.5v10.9
		h7.5V40.7c0-11.4-12-11.6-12-11.6C109.2,29,109,40.5,109,40.5z M254.7,40.5v17.2h7v-17c0-5,4.6-5.5,4.6-5.5c4.6,0,4.3,5.8,4.3,5.8
		H264v6.2h6.5v10.9h7.5V40.7c0-11.4-12-11.6-12-11.6C255.1,29,254.7,40.5,254.7,40.5z M142,34.8l-3.5,22.9h6.7l2.5-22l4.2,18.2
		c0.5,3.6,4.2,4.2,4.2,4.2c3.1,0.1,4.2-5.4,4.2-5.4l3.9-17.2l2.5,22.5h7.2l-3.4-23.7c-0.6-5-5.1-5.4-5.1-5.4c-5,0.1-6.6,6-6.6,6
		l-3,12.8l-3-13c-1-5.9-5.5-5.5-5.5-5.5C142.8,29.4,142,34.8,142,34.8z M176.9,48.3c0,9.3,11.5,10,11.5,10
		c11.1-0.1,11.7-10.4,11.7-10.4V29.3h-7.6v18.5c0.1,3.6-3.6,3.9-3.6,3.9c-4.7,0-4.6-3.6-4.6-3.6V29.4h-7.4V48.3z M226.9,48.3
		c0,9.3,11.5,10,11.5,10c11.1-0.1,11.7-10.4,11.7-10.4V29.3h-7.6v18.5c0.1,3.6-3.6,3.9-3.6,3.9c-4.7,0-4.6-3.6-4.6-3.6V29.4h-7.4
		L226.9,48.3L226.9,48.3z M203,36h7v21.9h7.4V36.1h6.5v-6.7h-20.7V36H203z M282.1,50.1c0,7.3,9,7.8,9,7.8h8v-6.5h-6.5
		c-3.1-0.3-3.1-2.8-3.1-2.8v-19h-7.6L282.1,50.1z M71.5,11l8.4-1.3l-9.3,5.5l0.3,7l-5.1-3.6l-9,6l5.5-7.8l-5.1-2.7l9.2-1.9l5.6-6.8
		L71.5,11z M42.3,19.5l-8.7,1.9l5,2.1l-5.8,7l8.5-5.5l4.9,3.5l0.6-6.4l8.5-4.3l-8,1l0.9-5.8L42.3,19.5z M17.3,34.4l-8.1,3.9l5.4,0.6
		L12.4,45l7.2-6h6.8l-2.6-4.2l6.5-6l-8.5,3.9l-1.9-4.8L17.3,34.4z M12.5,58.8l-7.5,4l5.5,0.2c0,0-2.2,5.8-2.2,6.2
		c0,0.5,6.6-6.7,6.6-6.7l6.5,0.6L19,59l5-5.6L17,56.8l-2.7-4.4L12.5,58.8z M19.2,77.2c0,0-4.2,3.5-4.6,3.8c-0.3,0.2,4.9-0.5,4.9-0.5
		s0.2,3.8,0.2,4c0,0.3,4-5.9,4-5.9l6.2-1.5L27.1,75l2.5-4.7l-5.7,3.4l-4.8-1.1L19.2,77.2z M38.5,78.4l-5.1,1.4l2.5,0.7
		c0,0-1.1,4-1,4.3c0.1,0.3,4.3-3.4,4.3-3.4l2.3,1.3l0.3-3.4l4-3.1l-4.3,1.1l-0.9-2.6L38.5,78.4z M53.6,74.1l-4.1,2.5l2.7,0.3l0.1,3
		l3.2-3.6l3,0.7l-0.9-2.6l2.5-3.5l-3.6,1.7l-1.8-2.3L53.6,74.1z M82.4,64v6.3h-2.6v-8.8h3.5c1.6,0,2.7,0.3,3.6,1
		c1,0.8,1.6,1.9,1.6,3.3c0,1.4-0.5,2.4-1.4,3.3c-0.9,0.8-2.1,1.3-3.4,1.3c-0.1,0-0.5,0-0.8,0v-2.6h0.5c1.6,0,2.4-0.7,2.4-1.9
		S85,64,83.5,64L82.4,64L82.4,64z M94.5,64.9v1.9h-1.7c-0.2,0-0.5,0-0.5,0.1c-0.1,0.1-0.1,0.2-0.1,0.3c0,0.2,0,0.3,0.1,0.3
		c0.1,0.1,0.3,0.1,0.6,0.1h1.8v2.5h-2.1c-1,0-1.7-0.2-2.3-0.7c-0.6-0.5-0.8-1.1-0.8-2.1v-3.4c0-0.8,0.2-1.5,0.8-1.9
		c0.5-0.5,1.1-0.7,2.1-0.7h2.3V64H93c-0.5,0-0.7,0.1-0.7,0.5c0,0.2,0,0.3,0.1,0.3c0.1,0.1,0.3,0.1,0.6,0.1H94.5z M105.6,66l2.8,0.1
		c-0.2,1.4-0.7,2.5-1.5,3.3c-0.8,0.8-1.9,1.1-3.2,1.1c-1.4,0-2.5-0.5-3.4-1.4c-0.9-0.9-1.4-1.9-1.4-3.3c0-1.4,0.5-2.4,1.4-3.3
		s2.1-1.4,3.4-1.4s2.4,0.5,3.3,1.4c0.6,0.6,1,1.5,1.4,2.5l-2.8,0.2c-0.3-0.9-0.9-1.5-1.8-1.5c-0.6,0-1,0.2-1.4,0.6
		c-0.3,0.3-0.6,0.9-0.6,1.5s0.2,1,0.6,1.5c0.3,0.3,0.8,0.6,1.4,0.6s1-0.1,1.4-0.5C105.4,67.1,105.6,66.6,105.6,66z M114,61.3
		c1.3,0,2.4,0.5,3.3,1.4c0.9,0.9,1.4,2.1,1.4,3.3c0,1.3-0.5,2.4-1.4,3.3c-0.9,0.9-2.1,1.4-3.3,1.4c-1.3,0-2.4-0.5-3.3-1.4
		c-0.9-0.9-1.4-2.1-1.4-3.3c0-1.3,0.5-2.4,1.4-3.3C111.6,61.7,112.7,61.3,114,61.3z M114,63.8c-0.6,0-1,0.2-1.4,0.6
		c-0.3,0.3-0.6,0.9-0.6,1.5s0.2,1,0.6,1.5c0.3,0.3,0.9,0.6,1.4,0.6c0.6,0,1-0.2,1.4-0.6c0.3-0.5,0.6-0.9,0.6-1.5s-0.2-1-0.6-1.5
		C115,64,114.5,63.8,114,63.8z M124.2,61.3c1.3,0,2.4,0.5,3.3,1.4c0.9,0.9,1.4,2.1,1.4,3.3c0,1.3-0.5,2.4-1.4,3.3
		c-0.9,0.9-2.1,1.4-3.3,1.4c-1.3,0-2.4-0.5-3.3-1.4c-0.9-0.9-1.4-2.1-1.4-3.3c0-1.3,0.5-2.4,1.4-3.3
		C121.7,61.7,122.9,61.3,124.2,61.3z M124.1,63.8c-0.6,0-1,0.2-1.4,0.6c-0.3,0.3-0.6,0.9-0.6,1.5s0.2,1,0.6,1.5
		c0.3,0.3,0.9,0.6,1.4,0.6c0.6,0,1-0.2,1.4-0.6c0.3-0.5,0.6-0.9,0.6-1.5s-0.2-1-0.6-1.5C125.1,64,124.7,63.8,124.1,63.8z
		 M133.1,67.2v-2.3c0.6,0,0.8-0.2,0.8-0.6c0-0.3-0.2-0.6-0.6-0.6c-0.5,0-0.6,0.2-0.6,0.8v5.8h-2.8v-5.5c0-0.6,0-1,0.1-1.4
		c0.1-0.3,0.3-0.7,0.6-1c0.3-0.3,0.7-0.6,1.1-0.8s1-0.3,1.5-0.3c0.9,0,1.7,0.3,2.3,0.9s0.9,1.4,0.9,2.3s-0.2,1.6-0.8,2.2
		c-0.5,0.5-1.3,0.7-2.3,0.7L133.1,67.2z M142.6,64.9v1.9h-1.7c-0.2,0-0.5,0-0.5,0.1c-0.1,0.1-0.1,0.2-0.1,0.3c0,0.2,0,0.3,0.1,0.3
		c0.1,0.1,0.3,0.1,0.6,0.1h1.8v2.5h-2.2c-1,0-1.7-0.2-2.3-0.7c-0.6-0.5-0.8-1.1-0.8-2.1v-3.4c0-0.8,0.2-1.5,0.8-1.9
		c0.5-0.5,1.1-0.7,2.1-0.7h2.4V64h-1.7c-0.5,0-0.7,0.1-0.7,0.5c0,0.2,0,0.3,0.1,0.3c0.1,0.1,0.3,0.1,0.6,0.1H142.6z M147,63.8v6.5
		h-2.7v-8.8h3.4c1,0,1.8,0.2,2.4,0.8c0.7,0.6,0.9,1.3,0.9,2.2c0,0.9-0.5,1.6-1.3,2.3l1.6,3.6h-2.8l-1.3-2.8v-2.3h0.2
		c0.6,0,0.8-0.2,0.8-0.7s-0.3-0.7-1-0.7H147V63.8z M155.7,65.8v2.3h-0.8v2.1h-2.7v-5.6c0-1.1,0.3-1.9,0.9-2.5
		c0.6-0.6,1.5-0.9,2.5-0.9c1,0,1.8,0.2,2.4,0.8c0.5,0.6,0.8,1.4,0.8,2.5v5.7h-2.6v-5.5c0-0.3,0-0.6-0.1-0.7
		c-0.1-0.1-0.2-0.2-0.5-0.2c-0.5,0-0.7,0.3-0.7,0.9v1.1H155.7z M164.3,64v6.3h-2.7V64h-2.1v-2.5h6.8V64H164.3z M170,70.3h-2.7v-8.8
		h2.7V70.3z M178.4,61.5l-4,9.3l-3.9-9.3h3.1l0.8,2.7l0.9-2.7H178.4z M181.7,70.3h-2.7v-8.8h2.7V70.3z M187.7,61.4v2.5
		c-0.2-0.1-0.3-0.1-0.5-0.1c-0.2,0-0.3,0.1-0.6,0.2c-0.1,0.1-0.2,0.3-0.2,0.6c0,0.2,0.1,0.5,0.2,0.7l0.2,0.3
		c0.3,0.7,0.6,1.3,0.6,1.8c0,0.9-0.3,1.6-0.9,2.2c-0.6,0.6-1.4,0.9-2.3,0.9c-0.5,0-0.9-0.1-1.3-0.3v-2.5c0.2,0.1,0.5,0.2,0.7,0.2
		s0.5-0.1,0.6-0.2c0.1-0.1,0.2-0.3,0.2-0.5s-0.1-0.5-0.3-0.8c-0.5-0.7-0.6-1.4-0.6-2.1c0-0.8,0.3-1.6,0.9-2.2
		c0.6-0.6,1.4-0.9,2.2-0.9C186.9,61.3,187.4,61.3,187.7,61.4z M193,64v6.3h-2.6V64h-2.1v-2.5h6.8V64H193z M199.3,65.8v2.3h-0.8v2.1
		h-2.7v-5.6c0-1.1,0.3-1.9,0.9-2.5c0.6-0.6,1.5-0.9,2.5-0.9c1,0,1.8,0.2,2.4,0.8c0.5,0.6,0.8,1.4,0.8,2.5v5.7h-2.7v-5.5
		c0-0.3,0-0.6-0.1-0.7c-0.1-0.1-0.2-0.2-0.5-0.2c-0.5,0-0.6,0.3-0.6,0.9v1.1H199.3z M208.2,61.4v2.5c-0.2-0.1-0.3-0.1-0.5-0.1
		c-0.2,0-0.3,0.1-0.6,0.2c-0.1,0.1-0.2,0.3-0.2,0.6c0,0.2,0.1,0.5,0.2,0.7l0.2,0.3c0.3,0.7,0.6,1.3,0.6,1.8c0,0.9-0.3,1.6-0.9,2.2
		c-0.7,0.6-1.4,0.9-2.3,0.9c-0.5,0-0.9-0.1-1.3-0.3v-2.5c0.2,0.1,0.5,0.2,0.7,0.2c0.2,0,0.5-0.1,0.6-0.2c0.1-0.1,0.2-0.3,0.2-0.5
		s-0.1-0.5-0.3-0.8c-0.5-0.7-0.6-1.4-0.6-2.1c0-0.8,0.3-1.6,0.9-2.2c0.6-0.6,1.4-0.9,2.2-0.9C207.5,61.3,207.9,61.3,208.2,61.4z
		 M215.8,64v6.3H213v-8.8h3.5c1.5,0,2.7,0.3,3.6,1c1,0.8,1.6,1.9,1.6,3.3c0,1.4-0.5,2.4-1.4,3.3c-0.9,0.8-2.1,1.3-3.4,1.3
		c-0.1,0-0.5,0-0.8,0v-2.6h0.5c1.6,0,2.4-0.7,2.4-1.9s-0.8-1.8-2.3-1.8L215.8,64L215.8,64z M227.7,64.9v1.9H226
		c-0.2,0-0.5,0-0.5,0.1c-0.1,0.1-0.1,0.2-0.1,0.3c0,0.2,0,0.3,0.1,0.3c0.1,0.1,0.3,0.1,0.6,0.1h1.8v2.5h-2.1c-1,0-1.7-0.2-2.3-0.7
		c-0.6-0.5-0.8-1.1-0.8-2.1v-3.4c0-0.8,0.2-1.5,0.8-1.9c0.5-0.5,1.1-0.7,2.1-0.7h2.3V64h-1.7c-0.5,0-0.7,0.1-0.7,0.5
		c0,0.2,0.1,0.3,0.1,0.3c0.1,0.1,0.3,0.1,0.6,0.1H227.7z M229.3,61.5h2.7v5.2c0,0.5,0.1,0.7,0.2,0.8c0.1,0.1,0.5,0.2,0.8,0.2h0.1
		v2.5h-0.7c-1,0-1.7-0.2-2.3-0.8c-0.6-0.6-0.8-1.4-0.8-2.3v-5.7H229.3z M240.4,67.2v-2.3c0.6,0,0.8-0.2,0.8-0.6
		c0-0.3-0.2-0.6-0.7-0.6s-0.6,0.2-0.6,0.8v5.8h-2.7v-5.5c0-0.6,0.1-1,0.2-1.4c0.1-0.3,0.3-0.7,0.6-1c0.3-0.3,0.7-0.6,1.1-0.8
		s1-0.3,1.5-0.3c0.9,0,1.7,0.3,2.3,0.9c0.6,0.6,0.9,1.4,0.9,2.3s-0.2,1.6-0.8,2.2c-0.6,0.5-1.3,0.7-2.3,0.7L240.4,67.2z M248.2,65.8
		v2.3h-0.8v2.1h-2.7v-5.6c0-1.1,0.3-1.9,0.9-2.5c0.6-0.6,1.5-0.9,2.5-0.9c1,0,1.8,0.2,2.4,0.8c0.5,0.6,0.8,1.4,0.8,2.5v5.7h-2.7
		v-5.5c0-0.3,0-0.6-0.1-0.7c-0.1-0.1-0.2-0.2-0.5-0.2c-0.5,0-0.7,0.3-0.7,0.9v1.1H248.2z M255.8,63.8v6.5H253v-8.8h3.4
		c1,0,1.8,0.2,2.4,0.8c0.7,0.6,0.9,1.3,0.9,2.2c0,0.9-0.3,1.6-1.1,2.3l1.6,3.6h-2.8l-1.3-2.8v-2.3h0.2c0.6,0,0.8-0.2,0.8-0.7
		s-0.3-0.7-1-0.7h-0.3V63.8z M264.4,65.8v2.3h-0.8v2.1h-2.7v-5.6c0-1.1,0.3-1.9,0.9-2.5c0.6-0.6,1.5-0.9,2.5-0.9
		c1,0,1.8,0.2,2.4,0.8c0.5,0.6,0.8,1.4,0.8,2.5v5.7h-2.7v-5.5c0-0.3,0-0.6-0.1-0.7c-0.1-0.1-0.2-0.2-0.5-0.2c-0.5,0-0.7,0.3-0.7,0.9
		v1.1H264.4z M273,65.4h2.5c0.6,0.7,0.8,1.4,0.8,2.2c0,0.9-0.3,1.6-1,2.2s-1.5,0.9-2.4,0.9c-1.3,0-2.3-0.5-3.1-1.4
		c-0.9-0.9-1.3-2.1-1.3-3.3c0-1.3,0.5-2.4,1.3-3.3c0.9-0.9,1.9-1.3,3.3-1.3c0.5,0,0.9,0.1,1.5,0.2v2.6c-0.5-0.2-0.8-0.3-1.1-0.3
		c-0.7,0-1.1,0.2-1.6,0.6c-0.5,0.3-0.6,0.9-0.6,1.5c0,0.7,0.2,1.1,0.6,1.5c0.3,0.3,0.9,0.6,1.5,0.6c0.3,0,0.6-0.1,0.6-0.3
		c0-0.2-0.1-0.2-0.5-0.2h-0.7v-2.1H273z M283.8,61.5v5.7c0,1-0.3,1.8-0.9,2.4s-1.5,0.9-2.5,0.9s-1.8-0.3-2.4-0.9
		c-0.6-0.6-0.8-1.5-0.8-2.5v-5.6h2.7v5.6c0,0.6,0.2,0.8,0.6,0.8c0.3,0,0.6-0.2,0.6-0.8v-5.6H283.8z M288.7,65.8v2.3h-0.8v2.1h-2.7
		v-5.6c0-1.1,0.3-1.9,0.9-2.5s1.5-0.9,2.5-0.9c1,0,1.8,0.2,2.4,0.8c0.5,0.6,0.8,1.4,0.8,2.5v5.7H289v-5.5c0-0.3,0-0.6-0.1-0.7
		c-0.1-0.1-0.2-0.2-0.5-0.2c-0.5,0-0.7,0.3-0.7,0.9v1.1H288.7z M299.8,61.5l-2.5,3.9v4.9h-2.7v-4.9l-2.6-3.9h2.7l1.1,1.8l1.3-1.8
		H299.8z M305,12.3c0,0.2-0.1,0.3-0.2,0.5c-0.1,0.1-0.3,0.2-0.5,0.2c-0.2,0-0.3-0.1-0.5-0.2c-0.1-0.1-0.2-0.3-0.2-0.5
		c0-0.2,0.1-0.3,0.2-0.5c0.1-0.1,0.3-0.2,0.5-0.2c0.2,0,0.3,0.1,0.5,0.2C304.9,11.9,305,12,305,12.3z M305,16.9
		c0,0.2-0.1,0.3-0.2,0.5c-0.1,0.1-0.3,0.2-0.5,0.2c-0.2,0-0.3-0.1-0.5-0.2c-0.1-0.1-0.2-0.3-0.2-0.5c0-0.2,0.1-0.3,0.2-0.5
		c0.1-0.1,0.3-0.2,0.5-0.2c0.2,0,0.3,0.1,0.5,0.2C304.9,16.6,305,16.7,305,16.9z M300.1,13.8c-0.3-0.7-0.8-1.4-1.1-2.1
		c-0.3-0.7-0.8-1.4-1.1-2.1c-0.3-0.7-0.7-1.1-0.9-1.7c-0.2-0.5-0.5-0.8-0.6-1c-0.1,0.2-0.3,0.6-0.6,1c-0.2,0.5-0.6,1-0.9,1.7
		c-0.3,0.7-0.7,1.4-1.1,2.1c-0.3,0.7-0.8,1.5-1.1,2.1H300.1z M302.8,16.9c0.1,0.1,0.1,0.2,0,0.3c0,0.1-0.1,0.2-0.2,0.2
		c-0.1,0.1-0.2,0.1-0.3,0c-0.1,0-0.2-0.1-0.2-0.2c-0.1-0.2-0.3-0.5-0.5-0.8c-0.1-0.2-0.3-0.6-0.5-0.9c-0.2-0.3-0.3-0.7-0.6-1.1h-8.2
		c-0.2,0.5-0.5,0.8-0.6,1.1c-0.2,0.3-0.3,0.7-0.5,0.9c-0.1,0.3-0.3,0.6-0.5,0.8c-0.1,0.1-0.1,0.2-0.2,0.2c-0.1,0-0.2,0-0.3,0
		c-0.1-0.1-0.2-0.1-0.2-0.2s0-0.2,0-0.3l6-11.3c0.1-0.1,0.2-0.2,0.3-0.2c0.2,0,0.3,0.1,0.3,0.2L302.8,16.9z M287.9,6
		c0-0.1,0-0.2,0.1-0.3c0.1-0.1,0.2-0.1,0.3-0.1c0.1,0,0.2,0,0.3,0.1c0.1,0.1,0.1,0.2,0.1,0.3v11.3c0,0.1,0,0.2-0.1,0.3
		c-0.1,0.1-0.2,0.1-0.3,0.1c-0.1,0-0.2,0-0.3-0.1c-0.1-0.1-0.1-0.2-0.1-0.3V6z M276.5,7.1c0.6-0.6,1.4-1,2.1-1.4
		c0.8-0.3,1.6-0.5,2.5-0.5c0.9,0,1.7,0.1,2.5,0.5s1.5,0.8,2.1,1.4c0.1,0.1,0.1,0.2,0.1,0.3c0,0.1,0,0.2-0.1,0.3
		c-0.1,0.1-0.2,0.1-0.3,0.1c-0.1,0-0.2,0-0.3-0.1c-0.6-0.6-1.1-0.9-1.8-1.1c-0.7-0.2-1.4-0.5-2.2-0.5c-0.8,0-1.5,0.1-2.2,0.5
		c-0.7,0.2-1.3,0.7-1.8,1.1c-0.6,0.6-0.9,1.1-1.3,1.7c-0.2,0.7-0.5,1.4-0.5,2.1c0,0.7,0.1,1.4,0.5,2.1c0.2,0.7,0.7,1.3,1.3,1.7
		c0.6,0.6,1.1,0.9,1.8,1.1c0.7,0.2,1.4,0.3,2.2,0.3c0.8,0,1.5-0.1,2.2-0.3c0.7-0.2,1.3-0.7,1.8-1.1c0.1-0.1,0.2-0.1,0.3-0.1
		c0.1,0,0.2,0,0.3,0.1c0.1,0.1,0.1,0.2,0.1,0.3c0,0.1,0,0.2-0.1,0.3c-0.6,0.6-1.3,1-2.1,1.4c-0.8,0.3-1.6,0.5-2.5,0.5
		s-1.7-0.1-2.5-0.5c-0.8-0.3-1.5-0.8-2.1-1.4c-0.6-0.6-1-1.3-1.4-2.1c-0.3-0.8-0.5-1.6-0.5-2.4c0-0.8,0.1-1.6,0.5-2.4
		C275.5,8.4,275.9,7.7,276.5,7.1z M262.3,5.6c0.2-0.1,0.3,0,0.5,0.1c1.5,1.7,2.7,3.2,4,4.6c0.6,0.6,1,1.3,1.6,1.8
		c0.6,0.6,1,1.1,1.5,1.7c0.5,0.6,0.8,1,1.1,1.4c0.3,0.3,0.6,0.7,0.8,0.9V6c0-0.1,0-0.2,0.1-0.3c0.1-0.1,0.2-0.1,0.3-0.1
		c0.1,0,0.2,0,0.3,0.1c0.1,0.1,0.1,0.2,0.1,0.3v11.2c0,0.2-0.1,0.3-0.2,0.3c-0.2,0.1-0.3,0-0.5-0.1c-1.5-1.7-2.7-3.2-4-4.6
		c-0.6-0.6-1-1.3-1.6-1.8c-0.6-0.6-1-1.1-1.5-1.7c-0.5-0.6-0.8-1-1.1-1.4c-0.3-0.3-0.6-0.7-0.8-0.9v10c0,0.1,0,0.2-0.1,0.3
		c-0.1,0.1-0.2,0.1-0.3,0.1c-0.1,0-0.2,0-0.3-0.1s-0.1-0.2-0.1-0.3V5.8C261.9,5.8,262,5.7,262.3,5.6z M257.9,13.8
		c-0.3-0.7-0.7-1.4-1.1-2.1c-0.3-0.7-0.8-1.4-1.1-2.1c-0.3-0.7-0.7-1.1-0.9-1.7c-0.2-0.5-0.5-0.8-0.6-1c-0.1,0.2-0.3,0.6-0.6,1
		c-0.2,0.5-0.6,1-0.9,1.7c-0.3,0.7-0.7,1.4-1.1,2.1c-0.3,0.7-0.8,1.5-1.1,2.1H257.9z M260.7,16.9c0.1,0.1,0.1,0.2,0,0.3
		c0,0.1-0.1,0.2-0.2,0.2c-0.1,0.1-0.2,0.1-0.3,0c-0.1,0-0.2-0.1-0.2-0.2c-0.1-0.2-0.3-0.5-0.5-0.8c-0.1-0.2-0.3-0.6-0.5-0.9
		c-0.2-0.3-0.3-0.7-0.6-1.1h-8.2c-0.2,0.5-0.5,0.8-0.6,1.1c-0.2,0.3-0.3,0.7-0.5,0.9c-0.1,0.3-0.3,0.6-0.5,0.8
		c-0.1,0.1-0.1,0.2-0.2,0.2c-0.1,0-0.2,0-0.3,0c-0.1-0.1-0.2-0.1-0.2-0.2s0-0.2,0-0.3l6-11.3c0.1-0.1,0.2-0.2,0.3-0.2
		s0.3,0.1,0.3,0.2L260.7,16.9z M236.3,5.6c0.2-0.1,0.3,0,0.5,0.1c1.5,1.7,2.7,3.2,4,4.6c0.6,0.6,1,1.3,1.6,1.8
		c0.6,0.6,1,1.1,1.5,1.7c0.5,0.6,0.8,1,1.1,1.4c0.3,0.3,0.6,0.7,0.8,0.9V6c0-0.1,0-0.2,0.1-0.3c0.1-0.1,0.2-0.1,0.3-0.1
		c0.1,0,0.2,0,0.3,0.1c0.1,0.1,0.1,0.2,0.1,0.3v11.2c0,0.2-0.1,0.3-0.2,0.3c-0.2,0.1-0.3,0-0.5-0.1c-1.5-1.7-2.7-3.2-4-4.6
		c-0.6-0.6-1-1.3-1.6-1.8c-0.6-0.6-1-1.1-1.5-1.7c-0.5-0.6-0.8-1-1.1-1.4c-0.3-0.3-0.6-0.7-0.8-0.9v10c0,0.1,0,0.2-0.1,0.3
		c-0.1,0.1-0.2,0.1-0.3,0.1c-0.1,0-0.2,0-0.3-0.1c-0.1-0.1-0.1-0.2-0.1-0.3V5.8C236,5.8,236,5.7,236.3,5.6z M232.3,6
		c0-0.1,0-0.2,0.1-0.3c0.1-0.1,0.2-0.1,0.3-0.1c0.1,0,0.2,0,0.3,0.1c0.1,0.1,0.1,0.2,0.1,0.3v11.3c0,0.1,0,0.2-0.1,0.3
		c-0.1,0.1-0.2,0.1-0.3,0.1c-0.1,0-0.2,0-0.3-0.1c-0.1-0.1-0.1-0.2-0.1-0.3V6z M230.5,5.6c0.1,0,0.2,0,0.3,0.1
		c0.1,0.1,0.1,0.2,0.1,0.3c0,0.1,0,0.2-0.1,0.3c-0.1,0.1-0.2,0.1-0.3,0.1h-7.9v4.8h6.8c0.1,0,0.2,0,0.3,0.1c0.1,0.1,0.1,0.2,0.1,0.3
		c0,0.1,0,0.2-0.1,0.3c-0.1,0.1-0.2,0.1-0.3,0.1h-6.8v5.2c0,0.1,0,0.2-0.1,0.3c-0.1,0.1-0.2,0.1-0.3,0.1c-0.1,0-0.2,0-0.3-0.1
		c-0.1-0.1-0.1-0.2-0.1-0.3V6.1c0-0.1,0-0.2,0.1-0.3c0.1-0.1,0.2-0.1,0.3-0.1h8.3V5.6z M211.3,13.8c-0.3-0.7-0.7-1.4-1.1-2.1
		c-0.3-0.7-0.8-1.4-1.1-2.1c-0.3-0.7-0.7-1.1-0.9-1.7c-0.2-0.5-0.5-0.8-0.6-1c-0.1,0.2-0.3,0.6-0.6,1c-0.2,0.5-0.6,1-0.9,1.7
		c-0.3,0.7-0.7,1.4-1.1,2.1c-0.3,0.7-0.8,1.5-1.1,2.1H211.3z M214,16.9c0.1,0.1,0.1,0.2,0,0.3c0,0.1-0.1,0.2-0.2,0.2
		c-0.1,0.1-0.2,0.1-0.3,0c-0.1,0-0.2-0.1-0.2-0.2c-0.1-0.2-0.3-0.5-0.5-0.8c-0.1-0.2-0.3-0.6-0.5-0.9c-0.2-0.3-0.3-0.7-0.6-1.1h-8.2
		c-0.2,0.5-0.5,0.8-0.6,1.1c-0.2,0.3-0.3,0.7-0.5,0.9c-0.1,0.3-0.3,0.6-0.5,0.8c-0.1,0.1-0.1,0.2-0.2,0.2c-0.1,0-0.2,0-0.3,0
		c-0.1-0.1-0.2-0.1-0.2-0.2s0-0.2,0-0.3l6-11.3c0.1-0.1,0.2-0.2,0.3-0.2c0.2,0,0.3,0.1,0.3,0.2L214,16.9z M192.6,6
		c0-0.1,0-0.2,0.1-0.3c0.1-0.1,0.2-0.1,0.3-0.1c0.1,0,0.2,0,0.3,0.1c0.1,0.1,0.1,0.2,0.1,0.3v10.8h7.9c0.1,0,0.2,0,0.3,0.1
		c0.1,0.1,0.1,0.2,0.1,0.3c0,0.1,0,0.2-0.1,0.3c-0.1,0.1-0.2,0.1-0.3,0.1h-8.3c-0.1,0-0.2,0-0.3-0.1c-0.1-0.1-0.1-0.2-0.1-0.3V6z
		 M182.5,6c0-0.1,0-0.2,0.1-0.3c0.1-0.1,0.2-0.1,0.3-0.1c0.1,0,0.2,0,0.3,0.1c0.1,0.1,0.1,0.2,0.1,0.3v10.8h7.9c0.1,0,0.2,0,0.3,0.1
		c0.1,0.1,0.1,0.2,0.1,0.3c0,0.1,0,0.2-0.1,0.3c-0.1,0.1-0.2,0.1-0.3,0.1h-8.3c-0.1,0-0.2,0-0.3-0.1c-0.1-0.1-0.1-0.2-0.1-0.3
		L182.5,6L182.5,6z M170,15.4c0.6,0.6,1.1,0.9,1.8,1.1c0.7,0.2,1.4,0.3,2.2,0.3s1.5-0.1,2.2-0.3c0.7-0.2,1.3-0.7,1.8-1.1
		c0.6-0.6,0.9-1.1,1.3-1.7c0.2-0.7,0.5-1.4,0.5-2.1c0-0.7-0.1-1.4-0.5-2.1c-0.2-0.7-0.7-1.3-1.3-1.7c-0.6-0.6-1.1-0.9-1.8-1.1
		c-0.7-0.2-1.4-0.5-2.2-0.5s-1.5,0.1-2.2,0.5c-0.7,0.2-1.3,0.7-1.8,1.1c-0.6,0.6-0.9,1.1-1.3,1.7c-0.2,0.7-0.5,1.4-0.5,2.1
		c0,0.7,0.1,1.4,0.5,2.1C169.1,14.3,169.5,14.9,170,15.4z M169.4,7.1c0.6-0.6,1.3-1,2.1-1.4c0.8-0.3,1.6-0.5,2.5-0.5
		c0.9,0,1.7,0.1,2.5,0.5s1.5,0.8,2.1,1.4c0.6,0.6,1,1.3,1.4,2.1c0.3,0.8,0.5,1.6,0.5,2.4c0,0.8-0.1,1.6-0.5,2.4
		c-0.3,0.8-0.8,1.5-1.4,2.1c-0.6,0.6-1.3,1-2.1,1.4c-0.8,0.3-1.6,0.5-2.5,0.5c-0.9,0-1.7-0.1-2.5-0.5c-0.8-0.3-1.5-0.8-2.1-1.4
		c-0.6-0.6-1-1.3-1.4-2.1c-0.3-0.8-0.5-1.6-0.5-2.4c0-0.8,0.1-1.6,0.5-2.4S168.8,7.7,169.4,7.1z M156.9,12.5h4.9
		c0.5,0,0.8-0.1,1.3-0.2c0.3-0.1,0.7-0.3,1-0.7c0.2-0.2,0.5-0.6,0.7-1c0.1-0.3,0.2-0.8,0.2-1.1c0-0.5-0.1-0.8-0.2-1.1
		s-0.3-0.7-0.7-1c-0.2-0.2-0.6-0.5-1-0.7c-0.3-0.1-0.8-0.2-1.3-0.2h-4.9V12.5z M165.9,16.9c0.1,0.1,0.1,0.2,0.1,0.3
		c0,0.1,0,0.2-0.1,0.3c-0.1,0.1-0.2,0.1-0.3,0.1c-0.1,0-0.2,0-0.3-0.1l-4-4.2h-4.4v3.9c0,0.1,0,0.2-0.1,0.3
		c-0.1,0.1-0.2,0.1-0.3,0.1c-0.1,0-0.2,0-0.3-0.1c-0.1-0.1-0.1-0.2-0.1-0.3V6c0-0.1,0-0.2,0.1-0.3c0.1-0.1,0.2-0.1,0.3-0.1h5.4
		c0.6,0,1,0.1,1.6,0.3c0.5,0.2,0.9,0.5,1.3,0.8c0.3,0.3,0.7,0.8,0.9,1.3c0.2,0.5,0.3,1,0.3,1.5s-0.1,0.9-0.2,1.4
		c-0.1,0.5-0.5,0.8-0.7,1.1c-0.3,0.3-0.7,0.6-1,0.9c-0.5,0.2-0.8,0.3-1.4,0.5L165.9,16.9z M144.6,12.5h4.9c0.5,0,0.8-0.1,1.3-0.2
		c0.3-0.1,0.7-0.3,1-0.7c0.2-0.2,0.5-0.6,0.7-1c0.1-0.3,0.2-0.8,0.2-1.1c0-0.5-0.1-0.8-0.2-1.1c-0.1-0.3-0.3-0.7-0.7-1
		c-0.2-0.2-0.6-0.5-1-0.7c-0.3-0.1-0.8-0.2-1.3-0.2h-4.9V12.5z M153.7,16.9c0.1,0.1,0.1,0.2,0.1,0.3c0,0.1,0,0.2-0.1,0.3
		c-0.1,0.1-0.2,0.1-0.3,0.1c-0.1,0-0.2,0-0.3-0.1l-4-4.2h-4.4v3.9c0,0.1,0,0.2-0.1,0.3c-0.1,0.1-0.2,0.1-0.3,0.1
		c-0.1,0-0.2,0-0.3-0.1c-0.1-0.1-0.1-0.2-0.1-0.3V6c0-0.1,0-0.2,0.1-0.3c0.1-0.1,0.2-0.1,0.3-0.1h5.4c0.6,0,1,0.1,1.6,0.3
		c0.5,0.2,0.9,0.5,1.3,0.8c0.3,0.3,0.7,0.8,0.9,1.3c0.2,0.5,0.3,1,0.3,1.5s-0.1,0.9-0.2,1.4c-0.1,0.5-0.5,0.8-0.7,1.1
		c-0.3,0.3-0.7,0.6-1,0.9c-0.5,0.2-0.8,0.3-1.4,0.5L153.7,16.9z M139.7,13.8c-0.3-0.7-0.7-1.4-1.1-2.1c-0.3-0.7-0.8-1.4-1.1-2.1
		c-0.3-0.7-0.7-1.1-0.9-1.7c-0.2-0.5-0.5-0.8-0.6-1c-0.1,0.2-0.3,0.6-0.6,1c-0.2,0.5-0.6,1-0.9,1.7c-0.3,0.7-0.7,1.4-1.1,2.1
		c-0.3,0.7-0.8,1.5-1.1,2.1H139.7z M142.5,16.9c0.1,0.1,0.1,0.2,0,0.3c0,0.1-0.1,0.2-0.2,0.2c-0.1,0.1-0.2,0.1-0.3,0
		c-0.1,0-0.2-0.1-0.2-0.2c-0.1-0.2-0.3-0.5-0.5-0.8c-0.1-0.2-0.3-0.6-0.5-0.9c-0.2-0.3-0.3-0.7-0.6-1.1H132
		c-0.2,0.5-0.5,0.8-0.6,1.1c-0.2,0.3-0.3,0.7-0.5,0.9c-0.1,0.3-0.3,0.6-0.5,0.8c-0.1,0.1-0.1,0.2-0.2,0.2c-0.1,0-0.2,0-0.3,0
		c-0.1-0.1-0.2-0.1-0.2-0.2s0-0.2,0-0.3l6-11.3c0.1-0.1,0.2-0.2,0.3-0.2c0.2,0,0.3,0.1,0.3,0.2L142.5,16.9z M121.3,6
		c0.8-0.5,1.7-0.8,3-0.8c0.7,0,1.3,0.1,1.9,0.2c0.7,0.1,1.3,0.3,1.7,0.6c0.1,0,0.2,0.1,0.2,0.2c0,0.1,0,0.2,0,0.3
		c-0.1,0.1-0.1,0.2-0.2,0.2c-0.1,0-0.2,0-0.3,0c-0.5-0.2-0.9-0.3-1.6-0.5c-0.6-0.1-1.3-0.2-1.8-0.2c-0.5,0-0.9,0-1.4,0.1
		c-0.5,0.1-0.8,0.2-1,0.5c-0.6,0.5-0.9,1-0.9,1.7s0.3,1.1,0.9,1.5s1.4,0.6,2.5,0.8c1.5,0.2,2.7,0.7,3.5,1.3c0.8,0.6,1.3,1.4,1.3,2.3
		c0,1.1-0.5,2.1-1.5,2.7c-0.9,0.6-1.9,0.9-3.3,0.9c-1.7,0-3.2-0.5-4.3-1.4c-0.1-0.1-0.1-0.1-0.1-0.2s0-0.2,0.1-0.3
		c0.1-0.1,0.2-0.1,0.3-0.1c0.1,0,0.2,0,0.3,0.1c1,0.8,2.3,1.1,3.9,1.1c0.6,0,1.1-0.1,1.6-0.2c0.5-0.1,0.9-0.3,1.3-0.6
		c0.7-0.5,1-1.1,1-1.9c0-0.7-0.3-1.3-1-1.7c-0.3-0.2-0.8-0.5-1.3-0.6c-0.5-0.1-1-0.2-1.7-0.3c-1.3-0.2-2.2-0.5-2.8-0.9
		c-0.5-0.2-0.7-0.6-1-0.9c-0.2-0.5-0.3-0.8-0.3-1.4C120,7.5,120.3,6.6,121.3,6z M117.6,16.7c0.1,0,0.2,0,0.3,0.1s0.1,0.2,0.1,0.3
		c0,0.1,0,0.2-0.1,0.3c-0.1,0.1-0.2,0.1-0.3,0.1h-8.2c-0.1,0-0.2,0-0.3-0.1c-0.1-0.1-0.1-0.2-0.1-0.3V5.9c0-0.1,0-0.2,0.1-0.3
		c0.1-0.1,0.2-0.1,0.3-0.1h8.3c0.1,0,0.2,0,0.3,0.1c0.1,0.1,0.1,0.2,0.1,0.3c0,0.1,0,0.2-0.1,0.3c-0.1,0.1-0.2,0.1-0.3,0.1h-7.9v4.8
		h6.8c0.1,0,0.2,0,0.3,0.1s0.1,0.2,0.1,0.3c0,0.1,0,0.2-0.1,0.3c-0.1,0.1-0.2,0.1-0.3,0.1h-6.8v4.8h7.8V16.7z M96,6.3v10.4h4.7
		c0.7,0,1.4-0.1,2.1-0.3c0.7-0.2,1.3-0.7,1.7-1.1c0.5-0.5,0.9-1,1.1-1.7c0.2-0.7,0.5-1.3,0.5-1.9c0-0.7-0.1-1.4-0.5-1.9
		c-0.2-0.7-0.7-1.1-1.1-1.7c-0.5-0.5-1-0.9-1.7-1.1s-1.4-0.3-2.1-0.3H96V6.3z M100.6,5.6c0.8,0,1.6,0.1,2.4,0.5
		c0.8,0.3,1.4,0.8,2.1,1.4c0.6,0.6,1,1.3,1.4,1.9c0.3,0.7,0.5,1.5,0.5,2.3c0,0.8-0.1,1.6-0.5,2.3c-0.3,0.7-0.8,1.4-1.4,1.9
		c-0.6,0.6-1.3,1-2.1,1.4c-0.8,0.3-1.5,0.5-2.4,0.5h-5.1c-0.1,0-0.2,0-0.3-0.1C95,17.4,95,17.3,95,17.2V5.9c0-0.1,0-0.2,0.1-0.3
		c0.1-0.1,0.2-0.1,0.3-0.1h5.1V5.6z M79.1,82.9v-8h1.8v6.6h4.4v1.4H79.1z"/>
</g>
</svg>
