<?xml version="1.0" encoding="utf-8"?>
<!-- Generator: Adobe Illustrator 27.9.0, SVG Export Plug-In . SVG Version: 6.00 Build 0)  -->
<svg version="1.1" id="Layer_1" xmlns="http://www.w3.org/2000/svg" xmlns:xlink="http://www.w3.org/1999/xlink" x="0px" y="0px"
	 viewBox="0 0 450 550" style="enable-background:new 0 0 450 550;" xml:space="preserve">

<rect x="-1" y="1" class="st0" width="450" height="550"/>
<g>
	<path class="st1" d="M41.1,113.3h365.8c14.9,0,27.1,12.2,27.1,27.1v373.5c0,14.9-12.2,27.1-27.1,27.1H41.1
	C26.2,541,14,528.8,14,513.9V140.4C14,125.5,26.2,113.3,41.1,113.3"/>
	<path class="st2" d="M329.1,155.9c0.4-0.2,0.7-0.1,0.9,0.2c2.8,3.2,5.3,6.2,7.7,8.9c1,1.1,2,2.3,3,3.5c1,1.2,1.9,2.2,2.8,3.2
	c0.9,1,1.6,1.9,2.3,2.6c0.7,0.8,1.1,1.3,1.5,1.7v-19.3c0-0.2,0.1-0.4,0.2-0.6c0.2-0.2,0.4-0.2,0.6-0.2c0.3,0,0.5,0.1,0.6,0.2
	c0.2,0.2,0.2,0.4,0.2,0.6v21.5c0,0.4-0.2,0.6-0.5,0.7c-0.4,0.2-0.7,0.1-1-0.2c-2.8-3.2-5.3-6.2-7.6-8.9c-1-1.1-2-2.3-3-3.5
	c-1-1.1-1.9-2.2-2.8-3.2c-0.9-1-1.6-1.9-2.3-2.6c-0.7-0.8-1.1-1.3-1.5-1.7v19.3c0,0.2-0.1,0.4-0.3,0.6c-0.2,0.2-0.4,0.2-0.6,0.2
	c-0.3,0-0.5-0.1-0.6-0.2c-0.2-0.2-0.2-0.4-0.2-0.6v-21.6C328.6,156.3,328.8,156.1,329.1,155.9 M314.6,148.5c0.1-0.1,0.3-0.2,0.5-0.2
	c0.2,0,0.5,0.1,0.6,0.3c0.1,0.2,0.2,0.4,0.2,0.5c0,0.3-0.1,0.5-0.3,0.6l-4.4,3.6c-0.2,0.1-0.4,0.2-0.6,0.2c-0.3,0-0.5-0.1-0.6-0.3
	c-0.1-0.2-0.2-0.3-0.2-0.5c0-0.3,0.1-0.5,0.3-0.7L314.6,148.5z M303.4,174.8c1,1,2.2,1.7,3.5,2.3c1.3,0.5,2.6,0.8,4.1,0.8
	c1.4,0,2.8-0.3,4.1-0.8c1.3-0.5,2.4-1.3,3.4-2.3c1-1,1.8-2.1,2.3-3.4c0.5-1.3,0.8-2.6,0.8-4c0-1.4-0.3-2.7-0.8-4
	c-0.5-1.2-1.3-2.4-2.3-3.4c-1-1-2.2-1.8-3.4-2.3c-1.3-0.5-2.6-0.8-4.1-0.8c-1.4,0-2.8,0.3-4.1,0.8c-1.3,0.5-2.4,1.3-3.5,2.3
	c-1,1-1.8,2.1-2.3,3.4c-0.5,1.2-0.8,2.6-0.8,4c0,1.4,0.3,2.7,0.8,4C301.6,172.7,302.4,173.8,303.4,174.8z M302.2,158.9
	c1.2-1.1,2.5-2,4-2.6c1.5-0.6,3.1-0.9,4.7-0.9c1.7,0,3.2,0.3,4.7,0.9c1.5,0.6,2.8,1.5,4,2.6c1.2,1.2,2,2.5,2.7,3.9
	c0.6,1.5,0.9,3,0.9,4.6c0,1.6-0.3,3.2-0.9,4.6c-0.6,1.5-1.5,2.8-2.7,3.9c-1.2,1.1-2.5,2-4,2.6c-1.5,0.6-3.1,0.9-4.7,0.9
	c-1.7,0-3.2-0.3-4.7-0.9c-1.5-0.6-2.8-1.5-4-2.6c-1.2-1.1-2.1-2.5-2.7-3.9c-0.6-1.5-0.9-3-0.9-4.6c0-1.6,0.3-3.2,0.9-4.6
	C300.2,161.4,301,160.1,302.2,158.9z M291.6,156.7c0-0.2,0.1-0.4,0.2-0.6c0.2-0.2,0.4-0.2,0.6-0.2c0.2,0,0.5,0.1,0.6,0.2
	c0.2,0.2,0.2,0.4,0.2,0.6v21.6c0,0.2-0.1,0.4-0.2,0.6c-0.2,0.2-0.4,0.2-0.6,0.2c-0.3,0-0.5-0.1-0.6-0.2c-0.2-0.2-0.2-0.4-0.2-0.6
	V156.7z M268.6,158.9c1.2-1.1,2.5-2,4-2.6c1.5-0.6,3.1-0.9,4.7-0.9c1.7,0,3.2,0.3,4.7,0.9c1.5,0.6,2.8,1.5,4,2.6
	c0.2,0.2,0.3,0.4,0.3,0.6c0,0.2-0.1,0.4-0.3,0.6c-0.2,0.2-0.4,0.3-0.6,0.3c-0.2,0-0.4-0.1-0.6-0.3c-1-1-2.2-1.8-3.5-2.3
	c-1.3-0.5-2.6-0.8-4.1-0.8c-1.4,0-2.8,0.3-4.1,0.8c-1.3,0.5-2.4,1.3-3.4,2.3c-1,1-1.8,2.1-2.3,3.4c-0.5,1.2-0.8,2.6-0.8,4
	c0,1.4,0.3,2.7,0.8,4c0.5,1.3,1.3,2.4,2.3,3.4c1,1,2.2,1.7,3.4,2.3c1.3,0.5,2.6,0.8,4.1,0.8c1.4,0,2.8-0.3,4.1-0.8
	c1.3-0.5,2.4-1.3,3.5-2.3c0.2-0.2,0.4-0.3,0.6-0.3c0.2,0,0.4,0.1,0.6,0.3c0.2,0.2,0.3,0.4,0.3,0.6c0,0.2-0.1,0.4-0.3,0.6
	c-1.2,1.1-2.5,2-4,2.6c-1.5,0.6-3.1,0.9-4.7,0.9c-1.7,0-3.2-0.3-4.7-0.9c-1.5-0.6-2.8-1.5-4-2.6c-1.2-1.1-2-2.5-2.7-3.9
	c-0.6-1.5-0.9-3-0.9-4.6c0-1.6,0.3-3.2,0.9-4.6C266.6,161.4,267.5,160.1,268.6,158.9z M258.1,171.6c-0.7-1.3-1.4-2.7-2.2-4
	c-0.7-1.4-1.4-2.7-2.1-3.9c-0.7-1.2-1.2-2.3-1.7-3.2c-0.5-0.9-0.8-1.6-1-1.9c-0.2,0.4-0.5,1-1,1.9c-0.5,0.9-1.1,2-1.7,3.2
	c-0.7,1.2-1.4,2.5-2.1,3.9c-0.7,1.4-1.5,2.7-2.2,4H258.1z M263.4,177.9c0.1,0.2,0.1,0.4,0.1,0.6c-0.1,0.2-0.2,0.4-0.4,0.5
	c-0.2,0.1-0.4,0.1-0.7,0.1c-0.2-0.1-0.4-0.2-0.5-0.4c-0.3-0.5-0.6-1-0.9-1.6c-0.2-0.5-0.5-1.1-0.9-1.7c-0.4-0.7-0.7-1.4-1.1-2.1
	h-15.7c-0.4,0.8-0.8,1.5-1.1,2.1c-0.3,0.7-0.7,1.2-0.9,1.7c-0.3,0.6-0.6,1.1-0.8,1.6c-0.1,0.2-0.3,0.3-0.5,0.4
	c-0.2,0.1-0.4,0-0.6-0.1c-0.2-0.1-0.3-0.3-0.4-0.5c-0.1-0.2-0.1-0.4,0.1-0.6l11.5-21.6c0.2-0.3,0.4-0.5,0.7-0.5
	c0.3,0,0.6,0.2,0.7,0.5L263.4,177.9z M233.5,156.7c0-0.2,0.1-0.4,0.2-0.6c0.2-0.2,0.4-0.2,0.6-0.2c0.2,0,0.5,0.1,0.6,0.2
	c0.2,0.2,0.2,0.4,0.2,0.6v21.6c0,0.2-0.1,0.4-0.2,0.6c-0.2,0.2-0.4,0.2-0.6,0.2c-0.2,0-0.5-0.1-0.6-0.2c-0.2-0.2-0.2-0.4-0.2-0.6
	V156.7z M210.5,158.9c1.2-1.1,2.5-2,4-2.6c1.5-0.6,3.1-0.9,4.7-0.9c1.7,0,3.2,0.3,4.7,0.9c1.5,0.6,2.8,1.5,4,2.6
	c0.2,0.2,0.3,0.4,0.3,0.6c0,0.2-0.1,0.4-0.3,0.6c-0.2,0.2-0.4,0.3-0.6,0.3s-0.4-0.1-0.6-0.3c-1-1-2.2-1.8-3.5-2.3
	c-1.3-0.5-2.6-0.8-4.1-0.8c-1.4,0-2.8,0.3-4.1,0.8c-1.3,0.5-2.4,1.3-3.4,2.3c-1,1-1.8,2.1-2.3,3.4c-0.5,1.2-0.8,2.6-0.8,4
	c0,1.4,0.3,2.7,0.8,4c0.5,1.3,1.3,2.4,2.3,3.4c1,1,2.2,1.7,3.4,2.3c1.3,0.5,2.6,0.8,4.1,0.8c1.4,0,2.8-0.3,4.1-0.8
	c1.3-0.5,2.4-1.3,3.5-2.3c0.2-0.2,0.4-0.3,0.6-0.3s0.4,0.1,0.6,0.3c0.2,0.2,0.3,0.4,0.3,0.6c0,0.2-0.1,0.4-0.3,0.6
	c-1.2,1.1-2.5,2-4,2.6c-1.5,0.6-3.1,0.9-4.7,0.9c-1.7,0-3.2-0.3-4.7-0.9c-1.5-0.6-2.8-1.5-4-2.6c-1.2-1.1-2-2.5-2.7-3.9
	c-0.6-1.5-0.9-3-0.9-4.6c0-1.6,0.3-3.2,0.9-4.6C208.4,161.4,209.3,160.1,210.5,158.9z M181.7,155.9c0.4-0.2,0.7-0.1,0.9,0.2
	c2.8,3.2,5.3,6.2,7.7,8.9c1,1.1,2,2.3,3,3.5c1,1.2,1.9,2.2,2.8,3.2c0.9,1,1.6,1.9,2.3,2.6c0.7,0.8,1.1,1.3,1.5,1.7v-19.3
	c0-0.2,0.1-0.4,0.2-0.6c0.2-0.2,0.4-0.2,0.6-0.2s0.5,0.1,0.6,0.2c0.2,0.2,0.2,0.4,0.2,0.6v21.5c0,0.4-0.2,0.6-0.5,0.7
	c-0.4,0.2-0.7,0.1-1-0.2c-2.8-3.2-5.3-6.2-7.6-8.9c-1-1.1-2-2.3-3-3.5c-1-1.1-1.9-2.2-2.8-3.2c-0.9-1-1.6-1.9-2.3-2.6
	c-0.7-0.8-1.1-1.3-1.5-1.7v19.3c0,0.2-0.1,0.4-0.3,0.6c-0.2,0.2-0.4,0.2-0.6,0.2c-0.2,0-0.5-0.1-0.6-0.2c-0.2-0.2-0.2-0.4-0.2-0.6
	v-21.6C181.2,156.3,181.4,156.1,181.7,155.9z M172.2,171.6c-0.7-1.3-1.4-2.7-2.2-4c-0.7-1.4-1.4-2.7-2.1-3.9
	c-0.7-1.2-1.2-2.3-1.7-3.2c-0.5-0.9-0.8-1.6-1-1.9c-0.2,0.4-0.5,1-1,1.9c-0.5,0.9-1.1,2-1.7,3.2c-0.7,1.2-1.4,2.5-2.1,3.9
	c-0.7,1.4-1.5,2.7-2.2,4H172.2z M177.5,177.9c0.1,0.2,0.1,0.4,0.1,0.6c-0.1,0.2-0.2,0.4-0.4,0.5c-0.2,0.1-0.4,0.1-0.7,0.1
	c-0.2-0.1-0.4-0.2-0.5-0.4c-0.3-0.5-0.6-1-0.9-1.6c-0.2-0.5-0.5-1.1-0.9-1.7c-0.4-0.7-0.7-1.4-1.1-2.1h-15.7
	c-0.4,0.8-0.8,1.5-1.1,2.1c-0.3,0.7-0.6,1.2-0.9,1.7c-0.3,0.6-0.6,1.1-0.8,1.6c-0.1,0.2-0.3,0.3-0.5,0.4c-0.2,0.1-0.4,0-0.6-0.1
	c-0.2-0.1-0.3-0.3-0.4-0.5c-0.1-0.2-0.1-0.4,0.1-0.6l11.5-21.6c0.2-0.3,0.4-0.5,0.7-0.5c0.3,0,0.6,0.2,0.7,0.5L177.5,177.9z
	 M129.4,155.9c0.4-0.2,0.7-0.1,0.9,0.2c2.8,3.2,5.3,6.2,7.7,8.9c1,1.1,2,2.3,3,3.5c1,1.2,1.9,2.2,2.8,3.2c0.9,1,1.6,1.9,2.3,2.6
	c0.7,0.8,1.1,1.3,1.5,1.7v-19.3c0-0.2,0.1-0.4,0.2-0.6c0.2-0.2,0.4-0.2,0.6-0.2s0.5,0.1,0.6,0.2c0.2,0.2,0.2,0.4,0.2,0.6v21.5
	c0,0.4-0.2,0.6-0.5,0.7c-0.4,0.2-0.7,0.1-1-0.2c-2.8-3.2-5.3-6.2-7.6-8.9c-1-1.1-2-2.3-3-3.5c-1-1.1-1.9-2.2-2.8-3.2
	c-0.9-1-1.6-1.9-2.3-2.6c-0.7-0.8-1.1-1.3-1.5-1.7v19.3c0,0.2-0.1,0.4-0.3,0.6c-0.2,0.2-0.4,0.2-0.6,0.2c-0.3,0-0.5-0.1-0.6-0.2
	c-0.2-0.2-0.2-0.4-0.2-0.6v-21.6C128.9,156.3,129.1,156.1,129.4,155.9z M120.5,156.7c0-0.2,0.1-0.4,0.2-0.6c0.2-0.2,0.4-0.2,0.6-0.2
	c0.2,0,0.5,0.1,0.6,0.2c0.2,0.2,0.2,0.4,0.2,0.6v21.6c0,0.2-0.1,0.4-0.2,0.6c-0.2,0.2-0.4,0.2-0.6,0.2c-0.3,0-0.5-0.1-0.6-0.2
	c-0.2-0.2-0.2-0.4-0.2-0.6V156.7z M115.8,155.9c0.2,0,0.5,0.1,0.6,0.2c0.2,0.2,0.2,0.4,0.2,0.6c0,0.2-0.1,0.4-0.2,0.6
	c-0.2,0.2-0.4,0.2-0.6,0.2h-15v9.1h13.1c0.2,0,0.4,0.1,0.6,0.2c0.2,0.2,0.3,0.4,0.3,0.6c0,0.2-0.1,0.4-0.3,0.6
	c-0.2,0.2-0.4,0.2-0.6,0.2h-13.1v10c0,0.2-0.1,0.4-0.2,0.6c-0.2,0.2-0.4,0.2-0.6,0.2c-0.3,0-0.5-0.1-0.6-0.2
	c-0.2-0.2-0.2-0.4-0.2-0.6v-21.6c0-0.2,0.1-0.4,0.2-0.6c0.2-0.2,0.4-0.2,0.6-0.2H115.8z M164,496.1h1.6v7.1H164V496.1z M167,496.1
	h2.9c0.7,0,1.2,0,1.5,0.1c0.5,0.1,0.9,0.3,1.2,0.6c0.3,0.3,0.6,0.7,0.7,1.2c0.2,0.5,0.3,1,0.3,1.7c0,0.6-0.1,1.1-0.2,1.5
	c-0.2,0.5-0.5,0.9-0.8,1.3c-0.3,0.2-0.6,0.4-1.1,0.6c-0.3,0.1-0.8,0.2-1.4,0.2h-3V496.1z M168.6,497.3v4.7h1.2c0.4,0,0.8,0,1-0.1
	c0.3-0.1,0.5-0.2,0.6-0.3c0.2-0.1,0.3-0.4,0.4-0.7c0.1-0.3,0.2-0.7,0.2-1.3c0-0.5-0.1-1-0.2-1.3c-0.1-0.3-0.3-0.5-0.4-0.7
	c-0.2-0.2-0.4-0.3-0.7-0.3c-0.2,0-0.7-0.1-1.3-0.1H168.6z M175,503.2v-7.1h5.8v1.2h-4.2v1.6h3.9v1.2h-3.9v1.9h4.4v1.2H175z
	 M182.3,503.2v-7.1h3.3c0.8,0,1.4,0.1,1.8,0.2c0.4,0.1,0.7,0.4,0.9,0.7c0.2,0.3,0.3,0.7,0.3,1.1c0,0.5-0.2,1-0.5,1.3
	c-0.3,0.3-0.9,0.6-1.5,0.7c0.3,0.2,0.6,0.4,0.8,0.6c0.2,0.2,0.5,0.6,0.9,1.1l1,1.4h-1.9l-1.1-1.5c-0.4-0.6-0.7-0.9-0.8-1
	c-0.2-0.1-0.3-0.2-0.5-0.3c-0.2-0.1-0.4-0.1-0.8-0.1h-0.3v3H182.3z M183.8,499.1h1.2c0.8,0,1.2,0,1.4-0.1c0.2-0.1,0.3-0.2,0.4-0.3
	c0.1-0.1,0.2-0.3,0.2-0.5c0-0.2-0.1-0.4-0.2-0.6c-0.1-0.1-0.3-0.2-0.6-0.3c-0.1,0-0.5,0-1.2,0h-1.2V499.1z M193.2,503.2v-7.1h5.8
	v1.2h-4.2v1.6h3.9v1.2h-3.9v1.9h4.4v1.2H193.2z M200.5,503.2v-7.1h1.5l3.2,4.7v-4.7h1.5v7.1h-1.6l-3.2-4.6v4.6H200.5z M214.3,496.1
	h1.6v4.5c0,0.6-0.1,1-0.2,1.4c-0.2,0.4-0.4,0.7-0.8,1c-0.4,0.2-0.9,0.4-1.6,0.4c-0.8,0-1.4-0.2-1.8-0.6c-0.4-0.4-0.6-1-0.6-1.7
	l1.5-0.2c0,0.4,0.1,0.7,0.2,0.9c0.2,0.3,0.4,0.4,0.8,0.4c0.4,0,0.6-0.1,0.8-0.3c0.1-0.2,0.2-0.6,0.2-1.1V496.1z M217.5,496.1h1.6
	v3.8c0,0.6,0,1,0.1,1.2c0.1,0.3,0.2,0.5,0.5,0.7c0.3,0.2,0.6,0.3,1,0.3c0.5,0,0.8-0.1,1-0.2c0.2-0.2,0.4-0.4,0.4-0.6
	c0-0.2,0.1-0.6,0.1-1.2v-3.9h1.6v3.7c0,0.9,0,1.5-0.1,1.8c-0.1,0.3-0.2,0.6-0.5,0.9c-0.2,0.2-0.5,0.4-0.9,0.6
	c-0.4,0.1-0.9,0.2-1.5,0.2c-0.7,0-1.3-0.1-1.7-0.2c-0.4-0.2-0.7-0.4-0.9-0.6c-0.2-0.2-0.4-0.5-0.4-0.8c-0.1-0.4-0.2-1-0.2-1.8V496.1
	z M225.4,496.1h3.1c0.6,0,1.1,0,1.4,0.1c0.3,0,0.6,0.1,0.8,0.3c0.2,0.1,0.4,0.3,0.6,0.6c0.2,0.2,0.2,0.5,0.2,0.8
	c0,0.3-0.1,0.6-0.3,0.9c-0.2,0.3-0.5,0.5-0.8,0.6c0.5,0.1,0.8,0.3,1.1,0.6c0.3,0.3,0.4,0.7,0.4,1.1c0,0.3-0.1,0.6-0.3,0.9
	c-0.2,0.3-0.4,0.5-0.7,0.7c-0.3,0.2-0.6,0.3-1.1,0.3c-0.3,0-0.9,0-1.9,0.1h-2.7V496.1z M227,497.3v1.6h1c0.6,0,1,0,1.1,0
	c0.3,0,0.5-0.1,0.6-0.3c0.2-0.1,0.2-0.3,0.2-0.5c0-0.2-0.1-0.4-0.2-0.5c-0.1-0.1-0.3-0.2-0.6-0.3c-0.2,0-0.6,0-1.4,0H227z
	 M227,500.1v1.9h1.5c0.6,0,0.9,0,1.1,0c0.2,0,0.4-0.1,0.6-0.3c0.1-0.1,0.2-0.3,0.2-0.6c0-0.2-0.1-0.4-0.2-0.5
	c-0.1-0.2-0.3-0.3-0.5-0.3c-0.2-0.1-0.7-0.1-1.4-0.1H227z M233.3,496.1h1.6v7.1h-1.6V496.1z M236.4,503.2v-7h1.6v5.8h3.9v1.2H236.4z
	 M250.1,503.2h-1.7l-0.7-1.6h-3.1l-0.6,1.6h-1.7l3-7.1h1.7L250.1,503.2z M247.2,500.4l-1.1-2.6l-1.1,2.6H247.2z M256,500.6l1.5,0.4
	c-0.2,0.8-0.6,1.3-1.2,1.7c-0.5,0.4-1.2,0.6-2.1,0.6c-1,0-1.9-0.3-2.6-1c-0.7-0.6-1-1.5-1-2.6c0-1.2,0.3-2.1,1-2.7
	c0.7-0.6,1.6-1,2.7-1c1,0,1.7,0.3,2.3,0.8c0.4,0.3,0.6,0.7,0.8,1.3l-1.6,0.3c-0.1-0.4-0.3-0.7-0.6-0.9c-0.3-0.2-0.7-0.3-1.1-0.3
	c-0.6,0-1,0.2-1.4,0.6c-0.4,0.4-0.5,1-0.5,1.8c0,0.9,0.2,1.5,0.5,1.9c0.4,0.4,0.8,0.6,1.4,0.6c0.4,0,0.8-0.1,1.1-0.4
	C255.6,501.5,255.8,501.1,256,500.6z M258.8,496.1h1.6v7.1h-1.6V496.1z M261.6,499.7c0-0.7,0.1-1.3,0.4-1.8c0.2-0.4,0.4-0.7,0.7-1
	c0.3-0.3,0.6-0.5,1-0.6c0.5-0.2,1.1-0.3,1.7-0.3c1.2,0,2.1,0.3,2.8,1c0.7,0.6,1,1.5,1,2.7c0,1.1-0.3,2-1,2.7c-0.7,0.6-1.6,1-2.8,1
	c-1.2,0-2.1-0.3-2.8-1C261.9,501.7,261.6,500.8,261.6,499.7z M263.2,499.7c0,0.8,0.2,1.4,0.6,1.8c0.4,0.4,0.9,0.6,1.6,0.6
	c0.6,0,1.2-0.2,1.6-0.6c0.4-0.4,0.6-1,0.6-1.8c0-0.8-0.2-1.4-0.6-1.8c-0.4-0.4-0.9-0.6-1.6-0.6c-0.6,0-1.2,0.2-1.6,0.6
	C263.4,498.2,263.2,498.9,263.2,499.7z M270.4,503.2v-7.1h1.5l3.2,4.7v-4.7h1.5v7.1h-1.6l-3.2-4.6v4.6H270.4z M283.4,503.2l-2.8-7.1
	h1.7l2,5.2l1.9-5.2h1.7l-2.8,7.1H283.4z M288.3,499.7c0-0.7,0.1-1.3,0.4-1.8c0.2-0.4,0.4-0.7,0.7-1c0.3-0.3,0.7-0.5,1-0.6
	c0.5-0.2,1.1-0.3,1.7-0.3c1.2,0,2.1,0.3,2.8,1c0.7,0.6,1,1.5,1,2.7c0,1.1-0.3,2-1,2.7c-0.7,0.6-1.6,1-2.8,1c-1.2,0-2.1-0.3-2.8-1
	C288.7,501.7,288.3,500.8,288.3,499.7z M290,499.7c0,0.8,0.2,1.4,0.6,1.8c0.4,0.4,0.9,0.6,1.6,0.6c0.6,0,1.2-0.2,1.6-0.6
	c0.4-0.4,0.6-1,0.6-1.8c0-0.8-0.2-1.4-0.6-1.8c-0.4-0.4-0.9-0.6-1.6-0.6c-0.7,0-1.2,0.2-1.6,0.6C290.2,498.2,290,498.9,290,499.7z
	 M297.2,503.2v-7h1.6v5.8h3.9v1.2H297.2z M303.8,496.1h1.6v3.8c0,0.6,0,1,0.1,1.2c0.1,0.3,0.2,0.5,0.5,0.7c0.3,0.2,0.6,0.3,1,0.3
	c0.5,0,0.8-0.1,1-0.2c0.2-0.2,0.4-0.4,0.4-0.6c0-0.2,0.1-0.6,0.1-1.2v-3.9h1.6v3.7c0,0.9,0,1.5-0.1,1.8c-0.1,0.3-0.2,0.6-0.5,0.9
	c-0.2,0.2-0.5,0.4-0.9,0.6c-0.4,0.1-0.9,0.2-1.5,0.2c-0.7,0-1.3-0.1-1.7-0.2c-0.4-0.2-0.7-0.4-0.9-0.6c-0.2-0.2-0.4-0.5-0.4-0.8
	c-0.1-0.4-0.2-1-0.2-1.8V496.1z M311.8,503.2v-7.1h1.5l3.2,4.7v-4.7h1.5v7.1h-1.6l-3.2-4.6v4.6H311.8z M321.4,503.2v-5.9h-2.3v-1.2
	h6.2v1.2H323v5.9H321.4z M332.6,503.2h-1.7l-0.7-1.6h-3.1l-0.6,1.6h-1.7l3-7.1h1.7L332.6,503.2z M329.7,500.4l-1.1-2.6l-1.1,2.6
	H329.7z M333.4,503.2v-7.1h3.3c0.8,0,1.4,0.1,1.8,0.2c0.4,0.1,0.7,0.4,0.9,0.7c0.2,0.3,0.3,0.7,0.3,1.1c0,0.5-0.2,1-0.5,1.3
	c-0.3,0.3-0.9,0.6-1.5,0.7c0.3,0.2,0.6,0.4,0.8,0.6c0.2,0.2,0.5,0.6,0.9,1.1l1,1.4h-1.9l-1.1-1.5c-0.4-0.6-0.7-0.9-0.8-1
	c-0.1-0.1-0.3-0.2-0.5-0.3c-0.2-0.1-0.4-0.1-0.8-0.1H335v3H333.4z M335,499.1h1.2c0.8,0,1.2,0,1.4-0.1c0.2-0.1,0.3-0.2,0.4-0.3
	c0.1-0.1,0.2-0.3,0.2-0.5c0-0.2-0.1-0.4-0.2-0.6c-0.1-0.1-0.3-0.2-0.6-0.3c-0.1,0-0.5,0-1.2,0H335V499.1z M341.3,496.1h1.6v7.1h-1.6
	V496.1z M351.5,503.2h-1.7l-0.7-1.6h-3.1l-0.6,1.6h-1.7l3.1-7.1h1.7L351.5,503.2z M348.5,500.4l-1.1-2.6l-1.1,2.6H348.5z
	 M139.5,456.4v5.6h-4c0,0-6.6,0.5-6.6,6.9c0,0-1.7,6.8,10.6,6.8v5.6c0,0-17.3,1.1-17.3-12.9C122.2,468.4,122,456.4,139.5,456.4z
	 M142.6,464.6v16.5h6.3v-14.6c0-4.3,3.9-4.8,3.9-4.8c4.3,0,3.7,4.8,3.7,4.8h-5.9v5.3h6.1v9.3h6.2v-15.8c0-8.2-9.8-9.2-9.8-9.2
	C143.5,456.2,142.6,464.6,142.6,464.6z M173,472.6c0,3-2.7,3-2.7,3h-4.9v5.6h5c8.4,0,9-7.1,9-7.1v-17.7h-6.6L173,472.6z M183.6,466
	v15.1h6.1v-14.9c0-4.4,4-4.8,4-4.8c4,0,3.7,5.1,3.7,5.1h-5.8v5.4h5.7v9.6h6.6v-15.4c0-10-10.5-10.2-10.5-10.2
	C183.8,455.9,183.6,466,183.6,466z M311.5,466v15.1h6.1v-14.9c0-4.4,4-4.8,4-4.8c4,0,3.8,5.1,3.8,5.1h-5.8v5.4h5.7v9.6h6.6v-15.4
	c0-10-10.5-10.2-10.5-10.2C311.8,455.9,311.5,466,311.5,466z M212.6,461l-3.1,20.1h5.9l2.2-19.3l3.7,16c0.4,3.2,3.7,3.7,3.7,3.7
	c2.7,0.1,3.7-4.7,3.7-4.7l3.4-15.1l2.2,19.7h6.3l-3-20.8c-0.5-4.4-4.5-4.7-4.5-4.7c-4.4,0.1-5.8,5.3-5.8,5.3l-2.6,11.2l-2.6-11.4
	c-0.9-5.2-4.8-4.8-4.8-4.8C213.3,456.2,212.6,461,212.6,461z M243.2,472.8c0,8.2,10.1,8.8,10.1,8.8c9.7-0.1,10.3-9.1,10.3-9.1v-16.4
	h-6.7v16.2c0.1,3.2-3.2,3.4-3.2,3.4c-4.1,0-4-3.2-4-3.2v-16.3h-6.5V472.8z M287.1,472.8c0,8.2,10.1,8.8,10.1,8.8
	c9.7-0.1,10.3-9.1,10.3-9.1v-16.4h-6.7v16.2c0.1,3.2-3.2,3.4-3.2,3.4c-4.1,0-4-3.2-4-3.2v-16.3h-6.5V472.8z M266.1,462h6.1v19.2h6.5
	v-19.1h5.7v-5.9h-18.2V462z M335.5,474.4c0,6.4,7.9,6.8,7.9,6.8h7v-5.7h-5.7c-2.7-0.3-2.7-2.5-2.7-2.5v-16.7h-6.7L335.5,474.4z
	 M150.7,440.1l7.4-1.1l-8.2,4.8l0.3,6.1l-4.5-3.2l-7.9,5.3l4.8-6.8l-4.5-2.4l8.1-1.7l4.9-6L150.7,440.1z M125.1,447.5l-7.6,1.7
	l4.4,1.8l-5.1,6.1l7.5-4.8l4.3,3.1l0.5-5.6l7.5-3.8l-7,0.9l0.8-5.1L125.1,447.5z M103.2,460.6l-7.1,3.4l4.7,0.5l-1.9,5.4l6.3-5.3h6
	l-2.3-3.7l5.7-5.3l-7.5,3.4l-1.7-4.2L103.2,460.6z M99,482l-6.6,3.5l4.8,0.2c0,0-1.9,5.1-1.9,5.4c0,0.4,5.8-5.9,5.8-5.9l5.7,0.5
	l-2.1-3.5l4.4-4.9l-6.2,3l-2.4-3.9L99,482z M104.9,498.2c0,0-3.7,3.1-4,3.3c-0.3,0.2,4.3-0.4,4.3-0.4s0.2,3.3,0.2,3.5
	c0,0.3,3.5-5.2,3.5-5.2l5.4-1.3l-2.5-1.9l2.2-4.1l-5,3l-4.2-1L104.9,498.2z M121.8,499.2l-4.5,1.2l2.2,0.6c0,0-1,3.5-0.9,3.8
	c0.1,0.3,3.8-3,3.8-3l2,1.1l0.3-3l3.5-2.7l-3.8,1l-0.8-2.3L121.8,499.2z M135,495.4l-3.6,2.2l2.4,0.3l0.1,2.6l2.8-3.2l2.6,0.6
	l-0.8-2.3l2.2-3.1l-3.2,1.5l-1.6-2L135,495.4z M160.3,486.6v5.5H158v-7.7h3.1c1.4,0,2.4,0.3,3.2,0.9c0.9,0.7,1.4,1.7,1.4,2.9
	c0,1.2-0.4,2.1-1.2,2.9c-0.8,0.7-1.8,1.1-3,1.1c-0.1,0-0.4,0-0.7,0v-2.3h0.4c1.4,0,2.1-0.6,2.1-1.7c0-1.1-0.7-1.6-2-1.6H160.3z
	 M170.9,487.4v1.7h-1.5c-0.2,0-0.4,0-0.4,0.1c-0.1,0.1-0.1,0.2-0.1,0.3c0,0.2,0,0.3,0.1,0.3c0.1,0.1,0.3,0.1,0.5,0.1h1.6v2.2h-1.8
	c-0.9,0-1.5-0.2-2-0.6c-0.5-0.4-0.7-1-0.7-1.8v-3c0-0.7,0.2-1.3,0.7-1.7c0.4-0.4,1-0.6,1.8-0.6h2v2.2h-1.5c-0.4,0-0.6,0.1-0.6,0.4
	c0,0.2,0,0.3,0.1,0.3c0.1,0.1,0.3,0.1,0.5,0.1H170.9z M180.7,488.3l2.5,0.1c-0.2,1.2-0.6,2.2-1.3,2.9c-0.7,0.7-1.7,1-2.8,1
	c-1.2,0-2.2-0.4-3-1.2c-0.8-0.8-1.2-1.7-1.2-2.9c0-1.2,0.4-2.1,1.2-2.9c0.8-0.8,1.8-1.2,3-1.2c1.2,0,2.1,0.4,2.9,1.2
	c0.5,0.5,0.9,1.3,1.2,2.2l-2.5,0.2c-0.3-0.8-0.8-1.3-1.6-1.3c-0.5,0-0.9,0.2-1.2,0.5c-0.3,0.3-0.5,0.8-0.5,1.3
	c0,0.5,0.2,0.9,0.5,1.3c0.3,0.3,0.7,0.5,1.2,0.5c0.5,0,0.9-0.1,1.2-0.4C180.5,489.3,180.7,488.9,180.7,488.3z M188,484.2
	c1.1,0,2.1,0.4,2.9,1.2c0.8,0.8,1.2,1.8,1.2,2.9c0,1.1-0.4,2.1-1.2,2.9c-0.8,0.8-1.8,1.2-2.9,1.2c-1.1,0-2.1-0.4-2.9-1.2
	c-0.8-0.8-1.2-1.8-1.2-2.9c0-1.1,0.4-2.1,1.2-2.9C185.9,484.6,186.9,484.2,188,484.2z M188,486.4c-0.5,0-0.9,0.2-1.2,0.5
	c-0.3,0.3-0.5,0.8-0.5,1.3c0,0.5,0.2,0.9,0.5,1.3c0.3,0.3,0.8,0.5,1.2,0.5c0.5,0,0.9-0.2,1.2-0.5c0.3-0.4,0.5-0.8,0.5-1.3
	c0-0.5-0.2-0.9-0.5-1.3C188.9,486.6,188.5,486.4,188,486.4z M197,484.2c1.1,0,2.1,0.4,2.9,1.2c0.8,0.8,1.2,1.8,1.2,2.9
	c0,1.1-0.4,2.1-1.2,2.9c-0.8,0.8-1.8,1.2-2.9,1.2c-1.1,0-2.1-0.4-2.9-1.2c-0.8-0.8-1.2-1.8-1.2-2.9c0-1.1,0.4-2.1,1.2-2.9
	C194.8,484.6,195.8,484.2,197,484.2z M196.9,486.4c-0.5,0-0.9,0.2-1.2,0.5c-0.3,0.3-0.5,0.8-0.5,1.3c0,0.5,0.2,0.9,0.5,1.3
	c0.3,0.3,0.8,0.5,1.2,0.5c0.5,0,0.9-0.2,1.2-0.5c0.3-0.4,0.5-0.8,0.5-1.3c0-0.5-0.2-0.9-0.5-1.3
	C197.8,486.6,197.4,486.4,196.9,486.4z M204.8,489.4v-2c0.5,0,0.7-0.2,0.7-0.5c0-0.3-0.2-0.5-0.5-0.5c-0.4,0-0.5,0.2-0.5,0.7v5.1
	H202v-4.8c0-0.5,0-0.9,0.1-1.2c0.1-0.3,0.3-0.6,0.5-0.9c0.3-0.3,0.6-0.5,1-0.7c0.4-0.2,0.9-0.3,1.3-0.3c0.8,0,1.5,0.3,2,0.8
	c0.5,0.5,0.8,1.2,0.8,2c0,0.8-0.2,1.4-0.7,1.9c-0.4,0.4-1.1,0.6-2,0.6L204.8,489.4z M213.1,487.4v1.7h-1.5c-0.2,0-0.4,0-0.4,0.1
	c-0.1,0.1-0.1,0.2-0.1,0.3c0,0.2,0,0.3,0.1,0.3c0.1,0.1,0.3,0.1,0.5,0.1h1.6v2.2h-1.9c-0.9,0-1.5-0.2-2-0.6c-0.5-0.4-0.7-1-0.7-1.8
	v-3c0-0.7,0.2-1.3,0.7-1.7c0.4-0.4,1-0.6,1.8-0.6h2.1v2.2h-1.5c-0.4,0-0.6,0.1-0.6,0.4c0,0.2,0,0.3,0.1,0.3c0.1,0.1,0.3,0.1,0.5,0.1
	H213.1z M217,486.4v5.7h-2.4v-7.7h3c0.9,0,1.6,0.2,2.1,0.7c0.6,0.5,0.8,1.1,0.8,1.9c0,0.8-0.4,1.4-1.1,2l1.4,3.2h-2.5l-1.1-2.5v-2
	h0.2c0.5,0,0.7-0.2,0.7-0.6c0-0.4-0.3-0.6-0.9-0.6H217z M224.6,488.2v2h-0.7v1.8h-2.4v-4.9c0-1,0.3-1.7,0.8-2.2
	c0.5-0.5,1.3-0.8,2.2-0.8c0.9,0,1.6,0.2,2.1,0.7c0.4,0.5,0.7,1.2,0.7,2.2v5H225v-4.8c0-0.3,0-0.5-0.1-0.6c-0.1-0.1-0.2-0.2-0.4-0.2
	c-0.4,0-0.6,0.3-0.6,0.8v1H224.6z M232.2,486.6v5.5h-2.4v-5.5H228v-2.2h6v2.2H232.2z M237.2,492.1h-2.4v-7.7h2.4V492.1z
	 M244.5,484.4l-3.5,8.2l-3.4-8.2h2.7l0.7,2.4l0.8-2.4H244.5z M247.4,492.1H245v-7.7h2.4V492.1z M252.7,484.3v2.2
	c-0.2-0.1-0.3-0.1-0.4-0.1c-0.2,0-0.3,0.1-0.5,0.2c-0.1,0.1-0.2,0.3-0.2,0.5c0,0.2,0.1,0.4,0.2,0.6l0.2,0.3c0.3,0.6,0.5,1.1,0.5,1.6
	c0,0.8-0.3,1.4-0.8,1.9c-0.5,0.5-1.2,0.8-2,0.8c-0.4,0-0.8-0.1-1.1-0.3v-2.2c0.2,0.1,0.4,0.2,0.6,0.2c0.2,0,0.4-0.1,0.5-0.2
	c0.1-0.1,0.2-0.3,0.2-0.4c0-0.1-0.1-0.4-0.3-0.7c-0.4-0.6-0.5-1.2-0.5-1.8c0-0.7,0.3-1.4,0.8-1.9c0.5-0.5,1.2-0.8,1.9-0.8
	C252,484.2,252.4,484.2,252.7,484.3z M257.3,486.6v5.5H255v-5.5h-1.8v-2.2h6v2.2H257.3z M262.9,488.2v2h-0.7v1.8h-2.4v-4.9
	c0-1,0.3-1.7,0.8-2.2c0.5-0.5,1.3-0.8,2.2-0.8c0.9,0,1.6,0.2,2.1,0.7c0.4,0.5,0.7,1.2,0.7,2.2v5h-2.4v-4.8c0-0.3,0-0.5-0.1-0.6
	c-0.1-0.1-0.2-0.2-0.4-0.2c-0.4,0-0.5,0.3-0.5,0.8v1H262.9z M270.7,484.3v2.2c-0.2-0.1-0.3-0.1-0.4-0.1c-0.2,0-0.3,0.1-0.5,0.2
	c-0.1,0.1-0.2,0.3-0.2,0.5c0,0.2,0.1,0.4,0.2,0.6l0.2,0.3c0.3,0.6,0.5,1.1,0.5,1.6c0,0.8-0.3,1.4-0.8,1.9c-0.6,0.5-1.2,0.8-2,0.8
	c-0.4,0-0.8-0.1-1.1-0.3v-2.2c0.2,0.1,0.4,0.2,0.6,0.2c0.2,0,0.4-0.1,0.5-0.2c0.1-0.1,0.2-0.3,0.2-0.4c0-0.1-0.1-0.4-0.3-0.7
	c-0.4-0.6-0.5-1.2-0.5-1.8c0-0.7,0.3-1.4,0.8-1.9c0.5-0.5,1.2-0.8,1.9-0.8C270.1,484.2,270.4,484.2,270.7,484.3z M277.3,486.6v5.5
	h-2.4v-7.7h3.1c1.3,0,2.4,0.3,3.2,0.9c0.9,0.7,1.4,1.7,1.4,2.9c0,1.2-0.4,2.1-1.2,2.9c-0.8,0.7-1.8,1.1-3,1.1c-0.1,0-0.4,0-0.7,0
	v-2.3h0.4c1.4,0,2.1-0.6,2.1-1.7c0-1.1-0.7-1.6-2-1.6H277.3z M287.8,487.4v1.7h-1.5c-0.2,0-0.4,0-0.4,0.1c-0.1,0.1-0.1,0.2-0.1,0.3
	c0,0.2,0,0.3,0.1,0.3c0.1,0.1,0.3,0.1,0.5,0.1h1.6v2.2h-1.8c-0.9,0-1.5-0.2-2-0.6c-0.5-0.4-0.7-1-0.7-1.8v-3c0-0.7,0.2-1.3,0.7-1.7
	c0.4-0.4,1-0.6,1.8-0.6h2v2.2h-1.5c-0.4,0-0.6,0.1-0.6,0.4c0,0.2,0.1,0.3,0.1,0.3c0.1,0.1,0.3,0.1,0.5,0.1H287.8z M289.2,484.4h2.4
	v4.6c0,0.4,0.1,0.6,0.2,0.7c0.1,0.1,0.4,0.2,0.7,0.2h0.1v2.2h-0.6c-0.9,0-1.5-0.2-2-0.7c-0.5-0.5-0.7-1.2-0.7-2V484.4z M298.9,489.4
	v-2c0.5,0,0.7-0.2,0.7-0.5c0-0.3-0.2-0.5-0.6-0.5c-0.4,0-0.5,0.2-0.5,0.7v5.1h-2.4v-4.8c0-0.5,0.1-0.9,0.2-1.2
	c0.1-0.3,0.3-0.6,0.5-0.9c0.3-0.3,0.6-0.5,1-0.7c0.4-0.2,0.9-0.3,1.3-0.3c0.8,0,1.5,0.3,2,0.8c0.5,0.5,0.8,1.2,0.8,2
	c0,0.8-0.2,1.4-0.7,1.9c-0.5,0.4-1.1,0.6-2,0.6L298.9,489.4z M305.8,488.2v2h-0.7v1.8h-2.4v-4.9c0-1,0.3-1.7,0.8-2.2
	c0.5-0.5,1.3-0.8,2.2-0.8c0.9,0,1.6,0.2,2.1,0.7c0.4,0.5,0.7,1.2,0.7,2.2v5h-2.4v-4.8c0-0.3,0-0.5-0.1-0.6c-0.1-0.1-0.2-0.2-0.4-0.2
	c-0.4,0-0.6,0.3-0.6,0.8v1H305.8z M312.4,486.4v5.7H310v-7.7h3c0.9,0,1.6,0.2,2.1,0.7c0.6,0.5,0.8,1.1,0.8,1.9c0,0.8-0.3,1.4-1,2
	l1.4,3.2h-2.5l-1.1-2.5v-2h0.2c0.5,0,0.7-0.2,0.7-0.6c0-0.4-0.3-0.6-0.9-0.6H312.4z M320,488.2v2h-0.7v1.8h-2.4v-4.9
	c0-1,0.3-1.7,0.8-2.2c0.5-0.5,1.3-0.8,2.2-0.8c0.9,0,1.6,0.2,2.1,0.7c0.4,0.5,0.7,1.2,0.7,2.2v5h-2.4v-4.8c0-0.3,0-0.5-0.1-0.6
	c-0.1-0.1-0.2-0.2-0.4-0.2c-0.4,0-0.6,0.3-0.6,0.8v1H320z M327.5,487.8h2.2c0.5,0.6,0.7,1.2,0.7,1.9c0,0.8-0.3,1.4-0.9,1.9
	c-0.6,0.5-1.3,0.8-2.1,0.8c-1.1,0-2-0.4-2.7-1.2c-0.8-0.8-1.1-1.8-1.1-2.9c0-1.1,0.4-2.1,1.1-2.9c0.8-0.8,1.7-1.1,2.9-1.1
	c0.4,0,0.8,0.1,1.3,0.2v2.3c-0.4-0.2-0.7-0.3-1-0.3c-0.6,0-1,0.2-1.4,0.5c-0.4,0.3-0.5,0.8-0.5,1.3c0,0.6,0.2,1,0.5,1.3
	c0.3,0.3,0.8,0.5,1.3,0.5c0.3,0,0.5-0.1,0.5-0.3c0-0.2-0.1-0.2-0.4-0.2h-0.6V487.8z M337,484.4v5c0,0.9-0.3,1.6-0.8,2.1
	c-0.5,0.5-1.3,0.8-2.2,0.8c-0.9,0-1.6-0.3-2.1-0.8c-0.5-0.5-0.7-1.3-0.7-2.2v-4.9h2.4v4.9c0,0.5,0.2,0.7,0.5,0.7
	c0.3,0,0.5-0.2,0.5-0.7v-4.9H337z M341.3,488.2v2h-0.7v1.8h-2.4v-4.9c0-1,0.3-1.7,0.8-2.2c0.5-0.5,1.3-0.8,2.2-0.8
	c0.9,0,1.6,0.2,2.1,0.7c0.4,0.5,0.7,1.2,0.7,2.2v5h-2.4v-4.8c0-0.3,0-0.5-0.1-0.6c-0.1-0.1-0.2-0.2-0.4-0.2c-0.4,0-0.6,0.3-0.6,0.8
	v1H341.3z M351,484.4l-2.2,3.4v4.3h-2.4v-4.3l-2.3-3.4h2.4l1,1.6l1.1-1.6H351z M355.6,441.2c0,0.2-0.1,0.3-0.2,0.4
	c-0.1,0.1-0.3,0.2-0.4,0.2c-0.2,0-0.3-0.1-0.4-0.2c-0.1-0.1-0.2-0.3-0.2-0.4c0-0.2,0.1-0.3,0.2-0.4c0.1-0.1,0.3-0.2,0.4-0.2
	c0.2,0,0.3,0.1,0.4,0.2C355.5,440.9,355.6,441,355.6,441.2z M355.6,445.3c0,0.2-0.1,0.3-0.2,0.4c-0.1,0.1-0.3,0.2-0.4,0.2
	c-0.2,0-0.3-0.1-0.4-0.2c-0.1-0.1-0.2-0.3-0.2-0.4c0-0.2,0.1-0.3,0.2-0.4c0.1-0.1,0.3-0.2,0.4-0.2c0.2,0,0.3,0.1,0.4,0.2
	C355.5,445,355.6,445.1,355.6,445.3z M351.3,442.5c-0.3-0.6-0.7-1.2-1-1.8c-0.3-0.6-0.7-1.2-1-1.8c-0.3-0.6-0.6-1-0.8-1.5
	c-0.2-0.4-0.4-0.7-0.5-0.9c-0.1,0.2-0.3,0.5-0.5,0.9c-0.2,0.4-0.5,0.9-0.8,1.5c-0.3,0.6-0.6,1.2-1,1.8c-0.3,0.6-0.7,1.3-1,1.8H351.3
	z M353.7,445.3c0.1,0.1,0.1,0.2,0,0.3c0,0.1-0.1,0.2-0.2,0.2c-0.1,0.1-0.2,0.1-0.3,0c-0.1,0-0.2-0.1-0.2-0.2
	c-0.1-0.2-0.3-0.4-0.4-0.7c-0.1-0.2-0.3-0.5-0.4-0.8c-0.2-0.3-0.3-0.6-0.5-1h-7.2c-0.2,0.4-0.4,0.7-0.5,1c-0.2,0.3-0.3,0.6-0.4,0.8
	c-0.1,0.3-0.3,0.5-0.4,0.7c-0.1,0.1-0.1,0.2-0.2,0.2c-0.1,0-0.2,0-0.3,0c-0.1-0.1-0.2-0.1-0.2-0.2c0-0.1,0-0.2,0-0.3l5.3-9.9
	c0.1-0.1,0.2-0.2,0.3-0.2c0.2,0,0.3,0.1,0.3,0.2L353.7,445.3z M340.6,435.7c0-0.1,0-0.2,0.1-0.3c0.1-0.1,0.2-0.1,0.3-0.1
	c0.1,0,0.2,0,0.3,0.1c0.1,0.1,0.1,0.2,0.1,0.3v9.9c0,0.1,0,0.2-0.1,0.3c-0.1,0.1-0.2,0.1-0.3,0.1c-0.1,0-0.2,0-0.3-0.1
	c-0.1-0.1-0.1-0.2-0.1-0.3V435.7z M330.6,436.7c0.5-0.5,1.2-0.9,1.8-1.2c0.7-0.3,1.4-0.4,2.2-0.4c0.8,0,1.5,0.1,2.2,0.4
	c0.7,0.3,1.3,0.7,1.8,1.2c0.1,0.1,0.1,0.2,0.1,0.3c0,0.1,0,0.2-0.1,0.3c-0.1,0.1-0.2,0.1-0.3,0.1c-0.1,0-0.2,0-0.3-0.1
	c-0.5-0.5-1-0.8-1.6-1c-0.6-0.2-1.2-0.4-1.9-0.4c-0.7,0-1.3,0.1-1.9,0.4c-0.6,0.2-1.1,0.6-1.6,1c-0.5,0.5-0.8,1-1.1,1.5
	c-0.2,0.6-0.4,1.2-0.4,1.8c0,0.6,0.1,1.2,0.4,1.8c0.2,0.6,0.6,1.1,1.1,1.5c0.5,0.5,1,0.8,1.6,1c0.6,0.2,1.2,0.3,1.9,0.3
	c0.7,0,1.3-0.1,1.9-0.3c0.6-0.2,1.1-0.6,1.6-1c0.1-0.1,0.2-0.1,0.3-0.1c0.1,0,0.2,0,0.3,0.1c0.1,0.1,0.1,0.2,0.1,0.3
	c0,0.1,0,0.2-0.1,0.3c-0.5,0.5-1.1,0.9-1.8,1.2c-0.7,0.3-1.4,0.4-2.2,0.4c-0.8,0-1.5-0.1-2.2-0.4c-0.7-0.3-1.3-0.7-1.8-1.2
	c-0.5-0.5-0.9-1.1-1.2-1.8c-0.3-0.7-0.4-1.4-0.4-2.1c0-0.7,0.1-1.4,0.4-2.1C329.7,437.8,330.1,437.2,330.6,436.7z M318.1,435.3
	c0.2-0.1,0.3,0,0.4,0.1c1.3,1.5,2.4,2.8,3.5,4c0.5,0.5,0.9,1.1,1.4,1.6c0.5,0.5,0.9,1,1.3,1.5c0.4,0.5,0.7,0.9,1,1.2
	c0.3,0.3,0.5,0.6,0.7,0.8v-8.8c0-0.1,0-0.2,0.1-0.3c0.1-0.1,0.2-0.1,0.3-0.1c0.1,0,0.2,0,0.3,0.1c0.1,0.1,0.1,0.2,0.1,0.3v9.8
	c0,0.2-0.1,0.3-0.2,0.3c-0.2,0.1-0.3,0-0.4-0.1c-1.3-1.5-2.4-2.8-3.5-4c-0.5-0.5-0.9-1.1-1.4-1.6c-0.5-0.5-0.9-1-1.3-1.5
	c-0.4-0.5-0.7-0.9-1-1.2c-0.3-0.3-0.5-0.6-0.7-0.8v8.8c0,0.1,0,0.2-0.1,0.3c-0.1,0.1-0.2,0.1-0.3,0.1c-0.1,0-0.2,0-0.3-0.1
	s-0.1-0.2-0.1-0.3v-9.9C317.8,435.5,317.9,435.4,318.1,435.3z M314.3,442.5c-0.3-0.6-0.6-1.2-1-1.8c-0.3-0.6-0.7-1.2-1-1.8
	c-0.3-0.6-0.6-1-0.8-1.5c-0.2-0.4-0.4-0.7-0.5-0.9c-0.1,0.2-0.3,0.5-0.5,0.9c-0.2,0.4-0.5,0.9-0.8,1.5c-0.3,0.6-0.6,1.2-1,1.8
	c-0.3,0.6-0.7,1.3-1,1.8H314.3z M316.7,445.3c0.1,0.1,0.1,0.2,0,0.3c0,0.1-0.1,0.2-0.2,0.2c-0.1,0.1-0.2,0.1-0.3,0
	c-0.1,0-0.2-0.1-0.2-0.2c-0.1-0.2-0.3-0.4-0.4-0.7c-0.1-0.2-0.3-0.5-0.4-0.8c-0.2-0.3-0.3-0.6-0.5-1h-7.2c-0.2,0.4-0.4,0.7-0.5,1
	c-0.2,0.3-0.3,0.6-0.4,0.8c-0.1,0.3-0.3,0.5-0.4,0.7c-0.1,0.1-0.1,0.2-0.2,0.2c-0.1,0-0.2,0-0.3,0c-0.1-0.1-0.2-0.1-0.2-0.2
	c0-0.1,0-0.2,0-0.3l5.3-9.9c0.1-0.1,0.2-0.2,0.3-0.2s0.3,0.1,0.3,0.2L316.7,445.3z M295.3,435.3c0.2-0.1,0.3,0,0.4,0.1
	c1.3,1.5,2.4,2.8,3.5,4c0.5,0.5,0.9,1.1,1.4,1.6c0.5,0.5,0.9,1,1.3,1.5c0.4,0.5,0.7,0.9,1,1.2c0.3,0.3,0.5,0.6,0.7,0.8v-8.8
	c0-0.1,0-0.2,0.1-0.3c0.1-0.1,0.2-0.1,0.3-0.1c0.1,0,0.2,0,0.3,0.1c0.1,0.1,0.1,0.2,0.1,0.3v9.8c0,0.2-0.1,0.3-0.2,0.3
	c-0.2,0.1-0.3,0-0.4-0.1c-1.3-1.5-2.4-2.8-3.5-4c-0.5-0.5-0.9-1.1-1.4-1.6c-0.5-0.5-0.9-1-1.3-1.5c-0.4-0.5-0.7-0.9-1-1.2
	c-0.3-0.3-0.5-0.6-0.7-0.8v8.8c0,0.1,0,0.2-0.1,0.3c-0.1,0.1-0.2,0.1-0.3,0.1c-0.1,0-0.2,0-0.3-0.1c-0.1-0.1-0.1-0.2-0.1-0.3v-9.9
	C295.1,435.5,295.1,435.4,295.3,435.3z M291.8,435.7c0-0.1,0-0.2,0.1-0.3c0.1-0.1,0.2-0.1,0.3-0.1c0.1,0,0.2,0,0.3,0.1
	c0.1,0.1,0.1,0.2,0.1,0.3v9.9c0,0.1,0,0.2-0.1,0.3s-0.2,0.1-0.3,0.1c-0.1,0-0.2,0-0.3-0.1c-0.1-0.1-0.1-0.2-0.1-0.3V435.7z
	 M290.2,435.3c0.1,0,0.2,0,0.3,0.1c0.1,0.1,0.1,0.2,0.1,0.3c0,0.1,0,0.2-0.1,0.3c-0.1,0.1-0.2,0.1-0.3,0.1h-6.9v4.2h6
	c0.1,0,0.2,0,0.3,0.1c0.1,0.1,0.1,0.2,0.1,0.3c0,0.1,0,0.2-0.1,0.3c-0.1,0.1-0.2,0.1-0.3,0.1h-6v4.6c0,0.1,0,0.2-0.1,0.3
	c-0.1,0.1-0.2,0.1-0.3,0.1c-0.1,0-0.2,0-0.3-0.1c-0.1-0.1-0.1-0.2-0.1-0.3v-9.9c0-0.1,0-0.2,0.1-0.3c0.1-0.1,0.2-0.1,0.3-0.1H290.2z
	 M273.4,442.5c-0.3-0.6-0.6-1.2-1-1.8c-0.3-0.6-0.7-1.2-1-1.8c-0.3-0.6-0.6-1-0.8-1.5c-0.2-0.4-0.4-0.7-0.5-0.9
	c-0.1,0.2-0.3,0.5-0.5,0.9c-0.2,0.4-0.5,0.9-0.8,1.5c-0.3,0.6-0.6,1.2-1,1.8c-0.3,0.6-0.7,1.3-1,1.8H273.4z M275.8,445.3
	c0.1,0.1,0.1,0.2,0,0.3c0,0.1-0.1,0.2-0.2,0.2c-0.1,0.1-0.2,0.1-0.3,0c-0.1,0-0.2-0.1-0.2-0.2c-0.1-0.2-0.3-0.4-0.4-0.7
	c-0.1-0.2-0.3-0.5-0.4-0.8c-0.2-0.3-0.3-0.6-0.5-1h-7.2c-0.2,0.4-0.4,0.7-0.5,1c-0.2,0.3-0.3,0.6-0.4,0.8c-0.1,0.3-0.3,0.5-0.4,0.7
	c-0.1,0.1-0.1,0.2-0.2,0.2c-0.1,0-0.2,0-0.3,0c-0.1-0.1-0.2-0.1-0.2-0.2c0-0.1,0-0.2,0-0.3l5.3-9.9c0.1-0.1,0.2-0.2,0.3-0.2
	c0.2,0,0.3,0.1,0.3,0.2L275.8,445.3z M257,435.7c0-0.1,0-0.2,0.1-0.3c0.1-0.1,0.2-0.1,0.3-0.1c0.1,0,0.2,0,0.3,0.1
	c0.1,0.1,0.1,0.2,0.1,0.3v9.5h6.9c0.1,0,0.2,0,0.3,0.1c0.1,0.1,0.1,0.2,0.1,0.3c0,0.1,0,0.2-0.1,0.3c-0.1,0.1-0.2,0.1-0.3,0.1h-7.3
	c-0.1,0-0.2,0-0.3-0.1c-0.1-0.1-0.1-0.2-0.1-0.3V435.7z M248.1,435.7c0-0.1,0-0.2,0.1-0.3c0.1-0.1,0.2-0.1,0.3-0.1
	c0.1,0,0.2,0,0.3,0.1c0.1,0.1,0.1,0.2,0.1,0.3v9.5h6.9c0.1,0,0.2,0,0.3,0.1c0.1,0.1,0.1,0.2,0.1,0.3c0,0.1,0,0.2-0.1,0.3
	c-0.1,0.1-0.2,0.1-0.3,0.1h-7.3c-0.1,0-0.2,0-0.3-0.1c-0.1-0.1-0.1-0.2-0.1-0.3V435.7z M237.2,443.9c0.5,0.5,1,0.8,1.6,1
	c0.6,0.2,1.2,0.3,1.9,0.3c0.7,0,1.3-0.1,1.9-0.3c0.6-0.2,1.1-0.6,1.6-1c0.5-0.5,0.8-1,1.1-1.5c0.2-0.6,0.4-1.2,0.4-1.8
	c0-0.6-0.1-1.2-0.4-1.8c-0.2-0.6-0.6-1.1-1.1-1.5c-0.5-0.5-1-0.8-1.6-1c-0.6-0.2-1.2-0.4-1.9-0.4c-0.7,0-1.3,0.1-1.9,0.4
	c-0.6,0.2-1.1,0.6-1.6,1c-0.5,0.5-0.8,1-1.1,1.5c-0.2,0.6-0.4,1.2-0.4,1.8c0,0.6,0.1,1.2,0.4,1.8C236.4,443,236.7,443.5,237.2,443.9
	z M236.6,436.7c0.5-0.5,1.1-0.9,1.8-1.2c0.7-0.3,1.4-0.4,2.2-0.4c0.8,0,1.5,0.1,2.2,0.4c0.7,0.3,1.3,0.7,1.8,1.2
	c0.5,0.5,0.9,1.1,1.2,1.8c0.3,0.7,0.4,1.4,0.4,2.1c0,0.7-0.1,1.4-0.4,2.1c-0.3,0.7-0.7,1.3-1.2,1.8c-0.5,0.5-1.1,0.9-1.8,1.2
	c-0.7,0.3-1.4,0.4-2.2,0.4c-0.8,0-1.5-0.1-2.2-0.4c-0.7-0.3-1.3-0.7-1.8-1.2c-0.5-0.5-0.9-1.1-1.2-1.8c-0.3-0.7-0.4-1.4-0.4-2.1
	c0-0.7,0.1-1.4,0.4-2.1C235.7,437.8,236.1,437.2,236.6,436.7z M225.7,441.4h4.3c0.4,0,0.7-0.1,1.1-0.2c0.3-0.1,0.6-0.3,0.9-0.6
	c0.2-0.2,0.4-0.5,0.6-0.9c0.1-0.3,0.2-0.7,0.2-1c0-0.4-0.1-0.7-0.2-1c-0.1-0.3-0.3-0.6-0.6-0.9c-0.2-0.2-0.5-0.4-0.9-0.6
	c-0.3-0.1-0.7-0.2-1.1-0.2h-4.3V441.4z M233.6,445.3c0.1,0.1,0.1,0.2,0.1,0.3c0,0.1,0,0.2-0.1,0.3c-0.1,0.1-0.2,0.1-0.3,0.1
	c-0.1,0-0.2,0-0.3-0.1l-3.5-3.7h-3.9v3.4c0,0.1,0,0.2-0.1,0.3s-0.2,0.1-0.3,0.1c-0.1,0-0.2,0-0.3-0.1c-0.1-0.1-0.1-0.2-0.1-0.3v-9.9
	c0-0.1,0-0.2,0.1-0.3c0.1-0.1,0.2-0.1,0.3-0.1h4.7c0.5,0,0.9,0.1,1.4,0.3c0.4,0.2,0.8,0.4,1.1,0.7c0.3,0.3,0.6,0.7,0.8,1.1
	c0.2,0.4,0.3,0.9,0.3,1.3c0,0.4-0.1,0.8-0.2,1.2c-0.1,0.4-0.4,0.7-0.6,1c-0.3,0.3-0.6,0.5-0.9,0.8c-0.4,0.2-0.7,0.3-1.2,0.4
	L233.6,445.3z M214.9,441.4h4.3c0.4,0,0.7-0.1,1.1-0.2c0.3-0.1,0.6-0.3,0.9-0.6c0.2-0.2,0.4-0.5,0.6-0.9c0.1-0.3,0.2-0.7,0.2-1
	c0-0.4-0.1-0.7-0.2-1c-0.1-0.3-0.3-0.6-0.6-0.9c-0.2-0.2-0.5-0.4-0.9-0.6c-0.3-0.1-0.7-0.2-1.1-0.2h-4.3V441.4z M222.9,445.3
	c0.1,0.1,0.1,0.2,0.1,0.3c0,0.1,0,0.2-0.1,0.3c-0.1,0.1-0.2,0.1-0.3,0.1c-0.1,0-0.2,0-0.3-0.1l-3.5-3.7h-3.9v3.4
	c0,0.1,0,0.2-0.1,0.3c-0.1,0.1-0.2,0.1-0.3,0.1c-0.1,0-0.2,0-0.3-0.1s-0.1-0.2-0.1-0.3v-9.9c0-0.1,0-0.2,0.1-0.3
	c0.1-0.1,0.2-0.1,0.3-0.1h4.7c0.5,0,0.9,0.1,1.4,0.3c0.4,0.2,0.8,0.4,1.1,0.7c0.3,0.3,0.6,0.7,0.8,1.1c0.2,0.4,0.3,0.9,0.3,1.3
	c0,0.4-0.1,0.8-0.2,1.2c-0.1,0.4-0.4,0.7-0.6,1c-0.3,0.3-0.6,0.5-0.9,0.8c-0.4,0.2-0.7,0.3-1.2,0.4L222.9,445.3z M210.6,442.5
	c-0.3-0.6-0.6-1.2-1-1.8c-0.3-0.6-0.7-1.2-1-1.8c-0.3-0.6-0.6-1-0.8-1.5c-0.2-0.4-0.4-0.7-0.5-0.9c-0.1,0.2-0.3,0.5-0.5,0.9
	c-0.2,0.4-0.5,0.9-0.8,1.5c-0.3,0.6-0.6,1.2-1,1.8c-0.3,0.6-0.7,1.3-1,1.8H210.6z M213,445.3c0.1,0.1,0.1,0.2,0,0.3
	c0,0.1-0.1,0.2-0.2,0.2c-0.1,0.1-0.2,0.1-0.3,0c-0.1,0-0.2-0.1-0.2-0.2c-0.1-0.2-0.3-0.4-0.4-0.7c-0.1-0.2-0.3-0.5-0.4-0.8
	c-0.2-0.3-0.3-0.6-0.5-1h-7.2c-0.2,0.4-0.4,0.7-0.5,1c-0.2,0.3-0.3,0.6-0.4,0.8c-0.1,0.3-0.3,0.5-0.4,0.7c-0.1,0.1-0.1,0.2-0.2,0.2
	c-0.1,0-0.2,0-0.3,0c-0.1-0.1-0.2-0.1-0.2-0.2c0-0.1,0-0.2,0-0.3l5.3-9.9c0.1-0.1,0.2-0.2,0.3-0.2c0.2,0,0.3,0.1,0.3,0.2L213,445.3z
	 M194.4,435.7c0.7-0.4,1.5-0.7,2.6-0.7c0.6,0,1.1,0.1,1.7,0.2c0.6,0.1,1.1,0.3,1.5,0.5c0.1,0,0.2,0.1,0.2,0.2c0,0.1,0,0.2,0,0.3
	c-0.1,0.1-0.1,0.2-0.2,0.2c-0.1,0-0.2,0-0.3,0c-0.4-0.2-0.8-0.3-1.4-0.4c-0.5-0.1-1.1-0.2-1.6-0.2c-0.4,0-0.8,0-1.2,0.1
	c-0.4,0.1-0.7,0.2-0.9,0.4c-0.5,0.4-0.8,0.9-0.8,1.5c0,0.6,0.3,1,0.8,1.3c0.5,0.3,1.2,0.5,2.2,0.7c1.3,0.2,2.4,0.6,3.1,1.1
	c0.7,0.5,1.1,1.2,1.1,2c0,1-0.4,1.8-1.3,2.4c-0.8,0.5-1.7,0.8-2.9,0.8c-1.5,0-2.8-0.4-3.8-1.2c-0.1-0.1-0.1-0.1-0.1-0.2
	c0-0.1,0-0.2,0.1-0.3c0.1-0.1,0.2-0.1,0.3-0.1c0.1,0,0.2,0,0.3,0.1c0.9,0.7,2,1,3.4,1c0.5,0,1-0.1,1.4-0.2c0.4-0.1,0.8-0.3,1.1-0.5
	c0.6-0.4,0.9-1,0.9-1.7c0-0.6-0.3-1.1-0.9-1.5c-0.3-0.2-0.7-0.4-1.1-0.5c-0.4-0.1-0.9-0.2-1.5-0.3c-1.1-0.2-1.9-0.4-2.5-0.8
	c-0.4-0.2-0.6-0.5-0.9-0.8c-0.2-0.4-0.3-0.7-0.3-1.2C193.3,437,193.6,436.2,194.4,435.7z M191.2,445.1c0.1,0,0.2,0,0.3,0.1
	c0.1,0.1,0.1,0.2,0.1,0.3c0,0.1,0,0.2-0.1,0.3c-0.1,0.1-0.2,0.1-0.3,0.1H184c-0.1,0-0.2,0-0.3-0.1c-0.1-0.1-0.1-0.2-0.1-0.3v-9.9
	c0-0.1,0-0.2,0.1-0.3c0.1-0.1,0.2-0.1,0.3-0.1h7.3c0.1,0,0.2,0,0.3,0.1c0.1,0.1,0.1,0.2,0.1,0.3c0,0.1,0,0.2-0.1,0.3
	c-0.1,0.1-0.2,0.1-0.3,0.1h-6.9v4.2h6c0.1,0,0.2,0,0.3,0.1c0.1,0.1,0.1,0.2,0.1,0.3c0,0.1,0,0.2-0.1,0.3c-0.1,0.1-0.2,0.1-0.3,0.1
	h-6v4.2H191.2z M172.2,436v9.1h4.1c0.6,0,1.2-0.1,1.8-0.3c0.6-0.2,1.1-0.6,1.5-1c0.4-0.4,0.8-0.9,1-1.5c0.2-0.6,0.4-1.1,0.4-1.7
	s-0.1-1.2-0.4-1.7c-0.2-0.6-0.6-1-1-1.5c-0.4-0.4-0.9-0.8-1.5-1c-0.6-0.2-1.2-0.3-1.8-0.3H172.2z M176.3,435.3
	c0.7,0,1.4,0.1,2.1,0.4c0.7,0.3,1.2,0.7,1.8,1.2c0.5,0.5,0.9,1.1,1.2,1.7c0.3,0.6,0.4,1.3,0.4,2c0,0.7-0.1,1.4-0.4,2
	c-0.3,0.6-0.7,1.2-1.2,1.7c-0.5,0.5-1.1,0.9-1.8,1.2c-0.7,0.3-1.3,0.4-2.1,0.4h-4.5c-0.1,0-0.2,0-0.3-0.1c-0.1-0.1-0.1-0.2-0.1-0.3
	v-9.9c0-0.1,0-0.2,0.1-0.3c0.1-0.1,0.2-0.1,0.3-0.1H176.3z M157.4,503.2v-7h1.6v5.8h3.9v1.2H157.4z M77.2,140.2h293.6v47.4H77.2
	V140.2z"/>
	<path class="st3" d="M247.9,310c0,2.2,0.4,4.2,1.3,6.2c0.9,1.9,2,3.6,3.5,5c1.5,1.4,3.2,2.5,5.1,3.4c2,0.8,4,1.2,6.3,1.2
	c2.2,0,4.3-0.4,6.3-1.2c2-0.8,3.7-1.9,5.1-3.4c1.5-1.4,2.6-3.1,3.5-5c0.9-1.9,1.3-4,1.3-6.2v-16.2c0-2.2-0.4-4.2-1.3-6.1
	c-0.9-1.9-2-3.6-3.5-5c-1.5-1.4-3.2-2.6-5.1-3.4c-2-0.8-4-1.3-6.3-1.3c-2.2,0-4.3,0.4-6.3,1.3c-2,0.8-3.7,2-5.1,3.4
	c-1.5,1.4-2.6,3.1-3.5,5c-0.9,1.9-1.3,4-1.3,6.1V310z M249.9,279.9c1.9-1.8,4.1-3.2,6.5-4.2c2.4-1,5-1.5,7.7-1.5
	c2.7,0,5.2,0.5,7.7,1.5c2.4,1,4.6,2.4,6.6,4.2c1.9,1.9,3.3,4,4.3,6.4c1,2.4,1.5,4.9,1.5,7.5V310c0,2.6-0.5,5.2-1.5,7.5
	c-1,2.4-2.5,4.5-4.3,6.3c-1.9,1.9-4.1,3.3-6.6,4.3c-2.4,1-5,1.4-7.7,1.4c-2.7,0-5.3-0.5-7.7-1.4c-2.4-1-4.6-2.4-6.5-4.3
	c-1.9-1.8-3.4-3.9-4.4-6.3c-1-2.4-1.5-4.9-1.5-7.5v-16.2c0-2.6,0.5-5.1,1.5-7.5C246.5,283.9,247.9,281.8,249.9,279.9z M204.3,290.6
	c0-2.3,0.4-4.4,1.3-6.4c0.9-2,2.1-3.7,3.6-5.2c1.5-1.5,3.3-2.6,5.3-3.5c2-0.9,4.2-1.3,6.5-1.3c2.3,0,4.5,0.4,6.6,1.3
	c2,0.9,3.8,2,5.3,3.5c1.5,1.5,2.7,3.2,3.6,5.2c0.9,2,1.3,4.1,1.3,6.4c0,2.2-0.4,4.3-1.2,6.3c-0.8,2-2.1,3.7-3.7,5.3l-9.7,9.5
	c-1.3,1.3-2.6,2.6-3.9,3.9c-1.3,1.3-2.6,2.5-3.8,3.7c-1.2,1.2-2.3,2.3-3.4,3.2c-1,1-1.8,1.8-2.5,2.4h26.1c0.6,0,1,0.2,1.4,0.5
	c0.4,0.4,0.5,0.8,0.5,1.4c0,0.6-0.2,1-0.5,1.4c-0.4,0.4-0.8,0.5-1.4,0.5H205c-0.4,0-0.8-0.1-1.1-0.3c-0.3-0.2-0.6-0.5-0.7-0.8
	c-0.4-0.8-0.2-1.5,0.4-2.1l26.6-25.8c2.5-2.4,3.7-5.4,3.7-8.8c0-1.7-0.3-3.4-1-4.9c-0.7-1.5-1.6-2.9-2.8-4c-1.2-1.1-2.5-2-4.1-2.7
	c-1.6-0.7-3.2-1-5-1c-1.8,0-3.4,0.3-5,1c-1.6,0.7-2.9,1.6-4.1,2.7c-1.1,1.1-2.1,2.5-2.7,4c-0.7,1.5-1,3.2-1,4.9c0,0.5-0.2,1-0.6,1.3
	c-0.4,0.4-0.8,0.6-1.4,0.6c-0.6,0-1-0.2-1.4-0.6C204.5,291.6,204.3,291.1,204.3,290.6z M344,318.3c0.8-0.5,1.7-0.8,2.9-0.8
	c0.6,0,1.3,0.1,2,0.2c0.7,0.1,1.2,0.3,1.7,0.5c0.1,0,0.2,0.1,0.2,0.2c0,0.1,0,0.2,0,0.3c-0.1,0.1-0.1,0.2-0.3,0.2
	c-0.1,0-0.2,0-0.3,0c-0.4-0.2-0.9-0.3-1.5-0.4c-0.6-0.1-1.2-0.2-1.8-0.2c-0.5,0-1,0.1-1.4,0.2c-0.4,0.1-0.8,0.3-1.1,0.4
	c-0.6,0.4-0.9,1-0.9,1.7c0,0.6,0.3,1.1,0.9,1.5c0.6,0.4,1.4,0.6,2.5,0.8c1.5,0.2,2.7,0.6,3.5,1.2c0.8,0.6,1.2,1.4,1.2,2.3
	c0,1.1-0.5,2-1.5,2.7c-0.9,0.6-2,0.9-3.3,0.9c-1.8,0-3.2-0.4-4.4-1.3c-0.1-0.1-0.2-0.2-0.2-0.3c0-0.1,0-0.2,0.1-0.3
	c0.1-0.1,0.2-0.1,0.3-0.2c0.1,0,0.2,0,0.3,0.1c1,0.8,2.3,1.2,3.8,1.2c0.6,0,1.1-0.1,1.6-0.2c0.5-0.1,0.9-0.3,1.3-0.5
	c0.7-0.5,1.1-1.2,1.1-2c0-0.7-0.4-1.3-1.1-1.7c-0.3-0.2-0.8-0.4-1.2-0.6c-0.5-0.2-1-0.3-1.7-0.4c-1.2-0.2-2.2-0.5-2.9-0.9
	c-0.4-0.3-0.7-0.6-1-0.9c-0.2-0.4-0.4-0.8-0.4-1.3C342.7,319.7,343.2,318.9,344,318.3z M330.5,327.6c0.5,0.5,1.1,0.9,1.8,1.2
	c0.7,0.3,1.4,0.4,2.1,0.4c0.7,0,1.4-0.1,2.1-0.4c0.7-0.3,1.3-0.7,1.8-1.2c0.5-0.5,0.9-1.1,1.2-1.8c0.3-0.7,0.4-1.3,0.4-2.1
	c0-0.7-0.1-1.4-0.4-2.1c-0.3-0.7-0.7-1.2-1.2-1.8c-0.5-0.5-1.1-0.9-1.8-1.2c-0.7-0.3-1.4-0.4-2.1-0.4c-0.7,0-1.5,0.1-2.1,0.4
	c-0.7,0.3-1.3,0.7-1.8,1.2c-0.5,0.5-0.9,1.1-1.2,1.8c-0.3,0.7-0.4,1.3-0.4,2.1c0,0.7,0.1,1.4,0.4,2.1
	C329.5,326.5,329.9,327.1,330.5,327.6z M329.9,319.4c0.6-0.6,1.3-1,2.1-1.4c0.8-0.3,1.6-0.5,2.5-0.5c0.9,0,1.7,0.2,2.5,0.5
	c0.8,0.3,1.5,0.8,2.1,1.4c0.6,0.6,1.1,1.3,1.4,2c0.3,0.8,0.5,1.6,0.5,2.4c0,0.8-0.2,1.6-0.5,2.4c-0.3,0.8-0.8,1.4-1.4,2
	c-0.6,0.6-1.3,1.1-2.1,1.4c-0.8,0.3-1.6,0.5-2.5,0.5c-0.9,0-1.7-0.2-2.5-0.5c-0.8-0.3-1.5-0.8-2.1-1.4c-0.6-0.6-1.1-1.3-1.4-2
	c-0.3-0.8-0.5-1.6-0.5-2.4c0-0.8,0.2-1.6,0.5-2.4C328.8,320.6,329.2,320,329.9,319.4z M320.4,314.8c0.6-0.5,1.4-0.7,2.1-0.5
	c0.3,0.1,0.5,0.2,0.7,0.3c0.2,0.1,0.3,0.2,0.3,0.2c0.1,0.1,0.1,0.2,0.2,0.3c0,0.1,0,0.2-0.1,0.3c-0.1,0.1-0.2,0.1-0.3,0.2
	c-0.1,0-0.2,0-0.3-0.1c-0.1,0-0.1-0.1-0.2-0.1c-0.1,0-0.1-0.1-0.2-0.1c-0.1,0-0.2-0.1-0.3-0.1c-0.5-0.1-0.9,0-1.3,0.3
	c-0.6,0.5-1.3,0.7-2.1,0.5c-0.3-0.1-0.5-0.2-0.7-0.3c-0.2-0.1-0.3-0.2-0.3-0.2c-0.1-0.1-0.1-0.2-0.2-0.3c0-0.1,0-0.2,0.1-0.3
	c0.1-0.1,0.2-0.1,0.3-0.2c0.1,0,0.2,0,0.3,0.1c0.1,0,0.1,0.1,0.2,0.1c0.1,0,0.1,0.1,0.2,0.1c0.1,0,0.2,0.1,0.3,0.1
	C319.6,315.3,320,315.2,320.4,314.8z M315.5,317.8c0.2-0.1,0.4,0,0.5,0.1c1.4,1.7,2.8,3.2,4,4.6c0.5,0.6,1,1.2,1.6,1.8
	c0.5,0.6,1,1.2,1.5,1.7c0.5,0.5,0.9,1,1.2,1.4c0.3,0.4,0.6,0.7,0.8,0.9v-10.1c0-0.1,0-0.2,0.1-0.3c0.1-0.1,0.2-0.1,0.3-0.1
	c0.1,0,0.2,0,0.3,0.1c0.1,0.1,0.1,0.2,0.1,0.3v11.2c0,0.2-0.1,0.3-0.3,0.4c-0.2,0.1-0.4,0-0.5-0.1c-1.4-1.7-2.8-3.2-4-4.6
	c-0.5-0.6-1-1.2-1.6-1.8c-0.5-0.6-1-1.2-1.5-1.7c-0.5-0.5-0.9-1-1.2-1.4c-0.3-0.4-0.6-0.7-0.8-0.9v10.1c0,0.1,0,0.2-0.1,0.3
	c-0.1,0.1-0.2,0.1-0.3,0.1c-0.1,0-0.2,0-0.3-0.1c-0.1-0.1-0.1-0.2-0.1-0.3v-11.2C315.2,318,315.3,317.9,315.5,317.8z M311.2,325.9
	c-0.4-0.7-0.7-1.4-1.1-2.1c-0.4-0.7-0.7-1.4-1.1-2c-0.3-0.6-0.6-1.2-0.9-1.7c-0.3-0.5-0.4-0.8-0.5-1c-0.1,0.2-0.3,0.5-0.5,1
	c-0.3,0.5-0.6,1-0.9,1.7c-0.3,0.6-0.7,1.3-1.1,2c-0.4,0.7-0.8,1.4-1.1,2.1H311.2z M313.9,329.2c0.1,0.1,0.1,0.2,0,0.3
	c0,0.1-0.1,0.2-0.2,0.3c-0.1,0.1-0.2,0.1-0.3,0c-0.1,0-0.2-0.1-0.3-0.2c-0.1-0.2-0.3-0.5-0.4-0.8c-0.1-0.3-0.3-0.5-0.5-0.9
	c-0.2-0.3-0.4-0.7-0.6-1.1h-8.2c-0.2,0.4-0.4,0.8-0.6,1.1c-0.2,0.3-0.3,0.6-0.5,0.9c-0.2,0.3-0.3,0.6-0.4,0.8
	c-0.1,0.1-0.1,0.2-0.3,0.2c-0.1,0-0.2,0-0.3,0c-0.1-0.1-0.2-0.1-0.2-0.3c0-0.1,0-0.2,0-0.3l6-11.2c0.1-0.2,0.2-0.2,0.4-0.2
	c0.2,0,0.3,0.1,0.4,0.2L313.9,329.2z M179.6,273.7c0.2-0.1,0.4,0,0.5,0.1c1.4,1.7,2.8,3.2,4,4.6c0.5,0.6,1,1.2,1.6,1.8
	c0.5,0.6,1,1.2,1.5,1.7c0.5,0.5,0.9,1,1.2,1.4c0.3,0.4,0.6,0.7,0.8,0.9v-10.1c0-0.1,0-0.2,0.1-0.3c0.1-0.1,0.2-0.1,0.3-0.1
	c0.1,0,0.2,0,0.3,0.1c0.1,0.1,0.1,0.2,0.1,0.3v11.2c0,0.2-0.1,0.3-0.3,0.4c-0.2,0.1-0.4,0-0.5-0.1c-1.4-1.7-2.8-3.2-4-4.6
	c-0.5-0.6-1-1.2-1.6-1.8c-0.5-0.6-1-1.2-1.5-1.7c-0.5-0.5-0.9-1-1.2-1.4c-0.3-0.4-0.6-0.7-0.8-0.9v10.1c0,0.1,0,0.2-0.1,0.3
	c-0.1,0.1-0.2,0.1-0.3,0.1c-0.1,0-0.2,0-0.3-0.1c-0.1-0.1-0.1-0.2-0.1-0.3v-11.2C179.4,273.9,179.5,273.7,179.6,273.7z M176.8,284.9
	c0.1,0,0.2,0,0.3,0.1c0.1,0.1,0.1,0.2,0.1,0.3c0,0.1,0,0.2-0.1,0.3c-0.1,0.1-0.2,0.1-0.3,0.1h-8.3c-0.1,0-0.2,0-0.3-0.1
	c-0.1-0.1-0.1-0.2-0.1-0.3v-11.2c0-0.1,0-0.2,0.1-0.3c0.1-0.1,0.2-0.1,0.3-0.1h8.3c0.1,0,0.2,0,0.3,0.1c0.1,0.1,0.1,0.2,0.1,0.3
	c0,0.1,0,0.2-0.1,0.3c-0.1,0.1-0.2,0.1-0.3,0.1H169v4.8h6.8c0.1,0,0.2,0,0.3,0.1c0.1,0.1,0.1,0.2,0.1,0.3c0,0.1,0,0.2-0.1,0.3
	c-0.1,0.1-0.2,0.1-0.3,0.1H169v4.8H176.8z M157.7,281.8c-0.4-0.7-0.7-1.4-1.1-2.1c-0.4-0.7-0.7-1.4-1.1-2c-0.3-0.6-0.6-1.2-0.9-1.7
	c-0.3-0.5-0.4-0.8-0.5-1c-0.1,0.2-0.3,0.5-0.5,1c-0.3,0.5-0.6,1-0.9,1.7c-0.3,0.6-0.7,1.3-1.1,2c-0.4,0.7-0.8,1.4-1.1,2.1H157.7z
	 M160.4,285.1c0.1,0.1,0.1,0.2,0,0.3c0,0.1-0.1,0.2-0.2,0.3c-0.1,0.1-0.2,0.1-0.3,0c-0.1,0-0.2-0.1-0.3-0.2
	c-0.1-0.2-0.3-0.5-0.4-0.8c-0.1-0.3-0.3-0.6-0.5-0.9c-0.2-0.3-0.4-0.7-0.6-1.1h-8.2c-0.2,0.4-0.4,0.8-0.6,1.1
	c-0.2,0.3-0.3,0.6-0.5,0.9c-0.2,0.3-0.3,0.6-0.4,0.8c-0.1,0.1-0.1,0.2-0.3,0.2c-0.1,0-0.2,0-0.3,0c-0.1-0.1-0.2-0.1-0.2-0.3
	c0-0.1,0-0.2,0-0.3l6-11.2c0.1-0.2,0.2-0.2,0.4-0.2c0.2,0,0.3,0.1,0.4,0.2L160.4,285.1z M149,273.6c0.1,0,0.2,0,0.3,0.1
	c0.1,0.1,0.1,0.2,0.1,0.3c0,0.1,0,0.2-0.1,0.3c-0.1,0.1-0.2,0.1-0.3,0.1h-4.2v10.8c0,0.1,0,0.2-0.1,0.3c-0.1,0.1-0.2,0.1-0.3,0.1
	c-0.1,0-0.2,0-0.3-0.1c-0.1-0.1-0.1-0.2-0.1-0.3v-10.8h-4.3c-0.1,0-0.2,0-0.3-0.1c-0.1-0.1-0.1-0.2-0.1-0.3c0-0.1,0-0.2,0.1-0.3
	c0.1-0.1,0.2-0.1,0.3-0.1H149z M130.8,274.2c0.8-0.5,1.7-0.8,2.9-0.8c0.6,0,1.3,0.1,2,0.2c0.7,0.1,1.2,0.3,1.7,0.5
	c0.1,0,0.2,0.1,0.2,0.2c0,0.1,0,0.2,0,0.3c-0.1,0.1-0.1,0.2-0.3,0.2c-0.1,0-0.2,0-0.3,0c-0.4-0.2-0.9-0.3-1.5-0.4
	c-0.6-0.1-1.2-0.2-1.8-0.2c-0.5,0-1,0.1-1.4,0.2c-0.4,0.1-0.8,0.3-1.1,0.5c-0.6,0.4-0.9,1-0.9,1.7c0,0.6,0.3,1.1,0.9,1.5
	c0.6,0.4,1.4,0.6,2.5,0.8c1.5,0.2,2.7,0.6,3.5,1.2c0.8,0.6,1.2,1.4,1.2,2.3c0,1.1-0.5,2-1.5,2.7c-0.9,0.6-2,0.9-3.3,0.9
	c-1.7,0-3.2-0.5-4.4-1.3c-0.1-0.1-0.2-0.2-0.2-0.3c0-0.1,0-0.2,0.1-0.3c0.1-0.1,0.2-0.1,0.3-0.2c0.1,0,0.2,0,0.3,0.1
	c1,0.8,2.3,1.2,3.8,1.2c0.6,0,1.1-0.1,1.6-0.2c0.5-0.1,0.9-0.3,1.3-0.5c0.7-0.5,1.1-1.2,1.1-2c0-0.7-0.4-1.3-1.1-1.7
	c-0.3-0.2-0.8-0.4-1.2-0.6c-0.5-0.1-1-0.3-1.7-0.4c-1.2-0.2-2.2-0.5-2.9-0.9c-0.4-0.3-0.7-0.6-1-0.9c-0.2-0.4-0.4-0.8-0.4-1.3
	C129.5,275.5,129.9,274.7,130.8,274.2z M125.7,281.8c-0.4-0.7-0.7-1.4-1.1-2.1c-0.4-0.7-0.7-1.4-1.1-2c-0.3-0.6-0.6-1.2-0.9-1.7
	c-0.3-0.5-0.4-0.8-0.5-1c-0.1,0.2-0.3,0.5-0.5,1c-0.3,0.5-0.6,1-0.9,1.7c-0.3,0.6-0.7,1.3-1.1,2c-0.4,0.7-0.8,1.4-1.1,2.1H125.7z
	 M128.4,285.1c0.1,0.1,0.1,0.2,0,0.3c0,0.1-0.1,0.2-0.2,0.3c-0.1,0.1-0.2,0.1-0.3,0c-0.1,0-0.2-0.1-0.3-0.2
	c-0.1-0.2-0.3-0.5-0.4-0.8c-0.1-0.3-0.3-0.6-0.5-0.9c-0.2-0.3-0.4-0.7-0.6-1.1h-8.2c-0.2,0.4-0.4,0.8-0.6,1.1
	c-0.2,0.3-0.3,0.6-0.5,0.9c-0.2,0.3-0.3,0.6-0.4,0.8c-0.1,0.1-0.1,0.2-0.3,0.2c-0.1,0-0.2,0-0.3,0c-0.1-0.1-0.2-0.1-0.2-0.3
	c0-0.1,0-0.2,0-0.3l6-11.2c0.1-0.2,0.2-0.2,0.4-0.2c0.2,0,0.3,0.1,0.4,0.2L128.4,285.1z M113.9,273.6c0.1,0,0.2,0,0.3,0.1
	c0.1,0.1,0.1,0.2,0.1,0.3v11.2c0,0.1,0,0.2-0.1,0.3c-0.1,0.1-0.2,0.1-0.3,0.1c-0.1,0-0.2,0-0.3-0.1c-0.1-0.1-0.1-0.2-0.1-0.3v-5.2
	h-9.4v5.2c0,0.1,0,0.2-0.1,0.3c-0.1,0.1-0.2,0.1-0.3,0.1c-0.1,0-0.2,0-0.3-0.1c-0.1-0.1-0.1-0.2-0.1-0.3v-11.2c0-0.1,0-0.2,0.1-0.3
	c0.1-0.1,0.2-0.1,0.3-0.1c0.1,0,0.2,0,0.3,0.1c0.1,0.1,0.1,0.2,0.1,0.3v5.2h9.4v-5.2c0-0.1,0-0.2,0.1-0.3
	C113.7,273.7,113.8,273.6,113.9,273.6z M319.4,218.4c0-0.1,0-0.2,0.1-0.3c0.1-0.1,0.2-0.1,0.3-0.1c0.1,0,0.2,0,0.3,0.1
	c0.1,0.1,0.1,0.2,0.1,0.3v6.2c0,0.8-0.1,1.5-0.4,2.2c-0.3,0.7-0.7,1.3-1.3,1.9c-0.6,0.5-1.2,1-1.9,1.2c-0.7,0.3-1.5,0.4-2.2,0.4
	c-0.8,0-1.5-0.1-2.3-0.4c-0.7-0.3-1.3-0.7-1.9-1.2c-0.6-0.6-1-1.2-1.3-1.9c-0.3-0.7-0.4-1.4-0.4-2.2v-6.2c0-0.1,0-0.2,0.1-0.3
	c0.1-0.1,0.2-0.1,0.3-0.1c0.1,0,0.2,0,0.3,0.1c0.1,0.1,0.1,0.2,0.1,0.3v6.2c0,0.7,0.1,1.3,0.4,1.9c0.2,0.6,0.6,1.1,1.1,1.6
	c0.5,0.5,1,0.8,1.6,1.1c0.6,0.2,1.2,0.4,1.9,0.4c0.7,0,1.3-0.1,1.9-0.4c0.6-0.2,1.1-0.6,1.6-1.1c0.5-0.5,0.8-1,1.1-1.6
	c0.3-0.6,0.4-1.2,0.4-1.9V218.4z M296.5,219.6c0.6-0.6,1.3-1,2.1-1.4c0.8-0.3,1.6-0.5,2.5-0.5c0.9,0,1.7,0.2,2.5,0.5
	c0.8,0.3,1.5,0.8,2.1,1.4c0.1,0.1,0.1,0.2,0.1,0.3s0,0.2-0.1,0.3c-0.1,0.1-0.2,0.1-0.3,0.1c-0.1,0-0.2,0-0.3-0.1
	c-0.5-0.5-1.1-0.9-1.8-1.2c-0.7-0.3-1.4-0.4-2.1-0.4c-0.7,0-1.4,0.1-2.1,0.4c-0.7,0.3-1.3,0.7-1.8,1.2c-0.5,0.5-0.9,1.1-1.2,1.8
	c-0.3,0.7-0.4,1.3-0.4,2.1c0,0.7,0.1,1.4,0.4,2.1c0.3,0.7,0.7,1.2,1.2,1.8c0.5,0.5,1.1,0.9,1.8,1.2c0.7,0.3,1.4,0.4,2.1,0.4
	c0.7,0,1.4-0.1,2-0.4c0.6-0.2,1.2-0.6,1.7-1.1v-3.5c0-0.1,0-0.2,0.1-0.3c0.1-0.1,0.2-0.1,0.3-0.1c0.1,0,0.2,0,0.3,0.1
	c0.1,0.1,0.1,0.2,0.1,0.3v3.7c0,0.1,0,0.2-0.1,0.3c-0.6,0.6-1.3,1.1-2.1,1.4c-0.8,0.3-1.6,0.5-2.5,0.5c-0.9,0-1.7-0.2-2.5-0.5
	c-0.8-0.3-1.5-0.8-2.1-1.4c-0.6-0.6-1.1-1.3-1.4-2c-0.3-0.8-0.5-1.6-0.5-2.4c0-0.8,0.2-1.6,0.5-2.4
	C295.5,220.8,295.9,220.2,296.5,219.6z M275.2,218c0.2-0.1,0.4,0,0.5,0.1c1.4,1.7,2.8,3.2,4,4.6c0.5,0.6,1,1.2,1.6,1.8
	c0.5,0.6,1,1.2,1.5,1.7c0.5,0.5,0.9,1,1.2,1.4c0.3,0.4,0.6,0.7,0.8,0.9v-10.1c0-0.1,0-0.2,0.1-0.3c0.1-0.1,0.2-0.1,0.3-0.1
	c0.1,0,0.2,0,0.3,0.1c0.1,0.1,0.1,0.2,0.1,0.3v11.2c0,0.2-0.1,0.3-0.3,0.4c-0.2,0.1-0.4,0-0.5-0.1c-1.4-1.7-2.8-3.2-4-4.6
	c-0.5-0.6-1-1.2-1.6-1.8c-0.5-0.6-1-1.2-1.5-1.7c-0.5-0.5-0.9-1-1.2-1.4c-0.3-0.4-0.6-0.7-0.8-0.9v10.1c0,0.1,0,0.2-0.1,0.3
	c-0.1,0.1-0.2,0.1-0.3,0.1c-0.1,0-0.2,0-0.3-0.1c-0.1-0.1-0.1-0.2-0.1-0.3v-11.2C274.9,218.2,275,218.1,275.2,218z M271.7,229.2
	c0.1,0,0.2,0,0.3,0.1c0.1,0.1,0.1,0.2,0.1,0.3c0,0.1,0,0.2-0.1,0.3c-0.1,0.1-0.2,0.1-0.3,0.1h-8.3c-0.1,0-0.2,0-0.3-0.1
	c-0.1-0.1-0.1-0.2-0.1-0.3v-11.2c0-0.1,0-0.2,0.1-0.3c0.1-0.1,0.2-0.1,0.3-0.1h8.3c0.1,0,0.2,0,0.3,0.1c0.1,0.1,0.1,0.2,0.1,0.3
	c0,0.1,0,0.2-0.1,0.3c-0.1,0.1-0.2,0.1-0.3,0.1h-7.8v4.8h6.8c0.1,0,0.2,0,0.3,0.1c0.1,0.1,0.1,0.2,0.1,0.3c0,0.1,0,0.2-0.1,0.3
	c-0.1,0.1-0.2,0.1-0.3,0.1h-6.8v4.8H271.7z M251.9,226.1c-0.4-0.7-0.7-1.4-1.1-2.1c-0.4-0.7-0.7-1.4-1.1-2c-0.3-0.6-0.6-1.2-0.9-1.7
	c-0.3-0.5-0.4-0.8-0.5-1c-0.1,0.2-0.3,0.5-0.5,1c-0.3,0.5-0.6,1-0.9,1.7c-0.3,0.6-0.7,1.3-1.1,2c-0.4,0.7-0.8,1.4-1.1,2.1H251.9z
	 M254.7,229.4c0.1,0.1,0.1,0.2,0,0.3c0,0.1-0.1,0.2-0.2,0.3c-0.1,0.1-0.2,0.1-0.3,0c-0.1,0-0.2-0.1-0.3-0.2
	c-0.1-0.2-0.3-0.5-0.4-0.8c-0.1-0.3-0.3-0.6-0.5-0.9c-0.2-0.3-0.4-0.7-0.6-1.1h-8.2c-0.2,0.4-0.4,0.8-0.6,1.1
	c-0.2,0.3-0.3,0.6-0.5,0.9c-0.2,0.3-0.3,0.6-0.4,0.8c-0.1,0.1-0.1,0.2-0.3,0.2c-0.1,0-0.2,0-0.3,0c-0.1-0.1-0.2-0.1-0.2-0.3
	c0-0.1,0-0.2,0-0.3l6-11.2c0.1-0.2,0.2-0.2,0.4-0.2c0.2,0,0.3,0.1,0.4,0.2L254.7,229.4z M239.1,218.4c0-0.1,0-0.2,0.1-0.3
	c0.1-0.1,0.2-0.1,0.3-0.1c0.1,0,0.2,0,0.3,0.1c0.1,0.1,0.1,0.2,0.1,0.3v11.2c0,0.1,0,0.2-0.1,0.3c-0.1,0.1-0.2,0.1-0.3,0.1
	c-0.1,0-0.2,0-0.3-0.1c-0.1-0.1-0.1-0.2-0.1-0.3V218.4z M227.7,218.8v6.1h5c0.4,0,0.8-0.1,1.2-0.2c0.4-0.2,0.7-0.4,1-0.7
	c0.3-0.3,0.5-0.6,0.7-1c0.2-0.4,0.3-0.8,0.3-1.2s-0.1-0.8-0.3-1.2c-0.2-0.4-0.4-0.7-0.7-1c-0.3-0.3-0.6-0.5-1-0.7
	c-0.4-0.2-0.8-0.2-1.2-0.2H227.7z M232.7,217.9c0.6,0,1.1,0.1,1.6,0.3c0.5,0.2,0.9,0.5,1.3,0.8c0.4,0.4,0.7,0.8,0.9,1.2
	c0.2,0.5,0.3,1,0.3,1.5c0,0.5-0.1,1.1-0.3,1.5c-0.2,0.5-0.5,0.9-0.9,1.2c-0.4,0.4-0.8,0.6-1.3,0.8c-0.5,0.2-1,0.3-1.6,0.3h-5v3.8
	c0,0.1,0,0.2-0.1,0.3c-0.1,0.1-0.2,0.1-0.3,0.1c-0.1,0-0.2,0-0.3-0.1c-0.1-0.1-0.1-0.2-0.1-0.3v-11.2c0-0.1,0-0.2,0.1-0.3
	c0.1-0.1,0.2-0.1,0.3-0.1H232.7z M213.7,227.8c0.5,0.5,1.1,0.9,1.8,1.2c0.7,0.3,1.4,0.4,2.1,0.4c0.7,0,1.4-0.1,2.1-0.4
	c0.7-0.3,1.3-0.7,1.8-1.2c0.5-0.5,0.9-1.1,1.2-1.8c0.3-0.7,0.4-1.3,0.4-2.1c0-0.7-0.1-1.4-0.4-2.1c-0.3-0.7-0.7-1.2-1.2-1.8
	c-0.5-0.5-1.1-0.9-1.8-1.2c-0.7-0.3-1.4-0.4-2.1-0.4c-0.7,0-1.5,0.1-2.1,0.4c-0.7,0.3-1.3,0.7-1.8,1.2c-0.5,0.5-0.9,1.1-1.2,1.8
	c-0.3,0.7-0.4,1.3-0.4,2.1c0,0.7,0.1,1.4,0.4,2.1C212.7,226.7,213.1,227.3,213.7,227.8z M213.1,219.6c0.6-0.6,1.3-1,2.1-1.4
	c0.8-0.3,1.6-0.5,2.5-0.5c0.9,0,1.7,0.2,2.5,0.5c0.8,0.3,1.5,0.8,2.1,1.4c0.6,0.6,1.1,1.3,1.4,2c0.3,0.8,0.5,1.6,0.5,2.4
	c0,0.8-0.2,1.6-0.5,2.4c-0.3,0.8-0.8,1.4-1.4,2c-0.6,0.6-1.3,1.1-2.1,1.4c-0.8,0.3-1.6,0.5-2.5,0.5c-0.9,0-1.7-0.2-2.5-0.5
	c-0.8-0.3-1.5-0.8-2.1-1.4c-0.6-0.6-1.1-1.3-1.4-2c-0.3-0.8-0.5-1.6-0.5-2.4c0-0.8,0.2-1.6,0.5-2.4
	C212,220.8,212.4,220.2,213.1,219.6z M199.9,224.9h5c0.4,0,0.8-0.1,1.2-0.2c0.4-0.2,0.7-0.4,1-0.7c0.3-0.3,0.5-0.6,0.7-1
	c0.2-0.4,0.2-0.8,0.2-1.2s-0.1-0.8-0.2-1.2c-0.2-0.4-0.4-0.7-0.7-1c-0.3-0.3-0.6-0.5-1-0.7c-0.4-0.2-0.8-0.2-1.2-0.2h-5V224.9z
	 M209,229.4c0.1,0.1,0.1,0.2,0.1,0.3c0,0.1-0.1,0.2-0.1,0.3c-0.1,0.1-0.2,0.1-0.3,0.1c-0.1,0-0.2-0.1-0.3-0.1l-4-4.2h-4.5v3.8
	c0,0.1,0,0.2-0.1,0.3c-0.1,0.1-0.2,0.1-0.3,0.1c-0.1,0-0.2,0-0.3-0.1c-0.1-0.1-0.1-0.2-0.1-0.3v-11.2c0-0.1,0-0.2,0.1-0.3
	c0.1-0.1,0.2-0.1,0.3-0.1h5.4c0.6,0,1.1,0.1,1.6,0.3c0.5,0.2,0.9,0.5,1.3,0.8c0.4,0.4,0.6,0.8,0.9,1.2c0.2,0.5,0.3,1,0.3,1.5
	c0,0.5-0.1,0.9-0.3,1.4c-0.2,0.4-0.4,0.8-0.7,1.2c-0.3,0.3-0.7,0.6-1.1,0.9c-0.4,0.2-0.8,0.4-1.3,0.5L209,229.4z M187.6,218.8v6.1h5
	c0.4,0,0.8-0.1,1.2-0.2c0.4-0.2,0.7-0.4,1-0.7c0.3-0.3,0.5-0.6,0.7-1c0.2-0.4,0.2-0.8,0.2-1.2s-0.1-0.8-0.2-1.2
	c-0.2-0.4-0.4-0.7-0.7-1c-0.3-0.3-0.6-0.5-1-0.7c-0.4-0.2-0.8-0.2-1.2-0.2H187.6z M192.6,217.9c0.6,0,1.1,0.1,1.6,0.3
	c0.5,0.2,0.9,0.5,1.3,0.8c0.4,0.4,0.7,0.8,0.9,1.2c0.2,0.5,0.3,1,0.3,1.5c0,0.5-0.1,1.1-0.3,1.5c-0.2,0.5-0.5,0.9-0.9,1.2
	c-0.4,0.4-0.8,0.6-1.3,0.8c-0.5,0.2-1,0.3-1.6,0.3h-5v3.8c0,0.1,0,0.2-0.1,0.3c-0.1,0.1-0.2,0.1-0.3,0.1c-0.1,0-0.2,0-0.3-0.1
	c-0.1-0.1-0.1-0.2-0.1-0.3v-11.2c0-0.1,0-0.2,0.1-0.3c0.1-0.1,0.2-0.1,0.3-0.1H192.6z M166.6,218c0.2-0.1,0.4,0,0.5,0.1
	c1.4,1.7,2.8,3.2,4,4.6c0.5,0.6,1,1.2,1.6,1.8c0.5,0.6,1,1.2,1.5,1.7c0.5,0.5,0.9,1,1.2,1.4c0.3,0.4,0.6,0.7,0.8,0.9v-10.1
	c0-0.1,0-0.2,0.1-0.3c0.1-0.1,0.2-0.1,0.3-0.1c0.1,0,0.2,0,0.3,0.1c0.1,0.1,0.1,0.2,0.1,0.3v11.2c0,0.2-0.1,0.3-0.3,0.4
	c-0.2,0.1-0.4,0-0.5-0.1c-1.4-1.7-2.8-3.2-4-4.6c-0.5-0.6-1-1.2-1.6-1.8c-0.5-0.6-1-1.2-1.5-1.7c-0.5-0.5-0.9-1-1.2-1.4
	c-0.3-0.4-0.6-0.7-0.8-0.9v10.1c0,0.1,0,0.2-0.1,0.3c-0.1,0.1-0.2,0.1-0.3,0.1c-0.1,0-0.2,0-0.3-0.1c-0.1-0.1-0.1-0.2-0.1-0.3v-11.2
	C166.3,218.2,166.4,218.1,166.6,218z M159,214.1c0.1-0.1,0.2-0.1,0.3-0.1c0.1,0,0.2,0.1,0.3,0.2c0.1,0.1,0.1,0.2,0.1,0.3
	c0,0.1-0.1,0.2-0.2,0.3l-2.3,1.9c-0.1,0.1-0.2,0.1-0.3,0.1c-0.1,0-0.3-0.1-0.3-0.2c-0.1-0.1-0.1-0.2-0.1-0.3c0-0.1,0.1-0.3,0.2-0.3
	L159,214.1z M153.1,227.8c0.5,0.5,1.1,0.9,1.8,1.2c0.7,0.3,1.4,0.4,2.1,0.4s1.4-0.1,2.1-0.4c0.7-0.3,1.3-0.7,1.8-1.2
	c0.5-0.5,0.9-1.1,1.2-1.8c0.3-0.7,0.4-1.3,0.4-2.1c0-0.7-0.1-1.4-0.4-2.1c-0.3-0.7-0.7-1.2-1.2-1.8c-0.5-0.5-1.1-0.9-1.8-1.2
	c-0.7-0.3-1.4-0.4-2.1-0.4s-1.5,0.1-2.1,0.4c-0.7,0.3-1.3,0.7-1.8,1.2c-0.5,0.5-0.9,1.1-1.2,1.8c-0.3,0.7-0.4,1.3-0.4,2.1
	c0,0.7,0.1,1.4,0.4,2.1C152.2,226.7,152.6,227.3,153.1,227.8z M152.5,219.6c0.6-0.6,1.3-1,2.1-1.4c0.8-0.3,1.6-0.5,2.5-0.5
	s1.7,0.2,2.5,0.5c0.8,0.3,1.5,0.8,2.1,1.4c0.6,0.6,1.1,1.3,1.4,2c0.3,0.8,0.5,1.6,0.5,2.4c0,0.8-0.2,1.6-0.5,2.4
	c-0.3,0.8-0.8,1.4-1.4,2c-0.6,0.6-1.3,1.1-2.1,1.4c-0.8,0.3-1.6,0.5-2.5,0.5s-1.7-0.2-2.5-0.5c-0.8-0.3-1.5-0.8-2.1-1.4
	c-0.6-0.6-1.1-1.3-1.4-2c-0.3-0.8-0.5-1.6-0.5-2.4c0-0.8,0.2-1.6,0.5-2.4C151.4,220.8,151.9,220.2,152.5,219.6z M147,218.4
	c0-0.1,0-0.2,0.1-0.3c0.1-0.1,0.2-0.1,0.3-0.1c0.1,0,0.2,0,0.3,0.1c0.1,0.1,0.1,0.2,0.1,0.3v11.2c0,0.1,0,0.2-0.1,0.3
	c-0.1,0.1-0.2,0.1-0.3,0.1c-0.1,0-0.2,0-0.3-0.1c-0.1-0.1-0.1-0.2-0.1-0.3V218.4z M135,219.6c0.6-0.6,1.3-1,2.1-1.4
	c0.8-0.3,1.6-0.5,2.5-0.5c0.9,0,1.7,0.2,2.5,0.5c0.8,0.3,1.5,0.8,2.1,1.4c0.1,0.1,0.1,0.2,0.1,0.3s0,0.2-0.1,0.3
	c-0.1,0.1-0.2,0.1-0.3,0.1s-0.2,0-0.3-0.1c-0.5-0.5-1.1-0.9-1.8-1.2c-0.7-0.3-1.4-0.4-2.1-0.4c-0.7,0-1.4,0.1-2.1,0.4
	c-0.7,0.3-1.3,0.7-1.8,1.2c-0.5,0.5-0.9,1.1-1.2,1.8c-0.3,0.7-0.4,1.3-0.4,2.1c0,0.7,0.1,1.4,0.4,2.1c0.3,0.7,0.7,1.2,1.2,1.8
	c0.5,0.5,1.1,0.9,1.8,1.2c0.7,0.3,1.4,0.4,2.1,0.4c0.7,0,1.5-0.1,2.1-0.4c0.7-0.3,1.3-0.7,1.8-1.2c0.1-0.1,0.2-0.1,0.3-0.1
	s0.2,0,0.3,0.1c0.1,0.1,0.1,0.2,0.1,0.3c0,0.1,0,0.2-0.1,0.3c-0.6,0.6-1.3,1.1-2.1,1.4c-0.8,0.3-1.6,0.5-2.5,0.5
	c-0.9,0-1.7-0.2-2.5-0.5c-0.8-0.3-1.5-0.8-2.1-1.4c-0.6-0.6-1.1-1.3-1.4-2c-0.3-0.8-0.5-1.6-0.5-2.4c0-0.8,0.2-1.6,0.5-2.4
	C133.9,220.8,134.4,220.2,135,219.6z M129.5,226.1c-0.4-0.7-0.7-1.4-1.1-2.1c-0.4-0.7-0.7-1.4-1.1-2c-0.3-0.6-0.6-1.2-0.9-1.7
	c-0.3-0.5-0.4-0.8-0.5-1c-0.1,0.2-0.3,0.5-0.5,1c-0.3,0.5-0.6,1-0.9,1.7c-0.3,0.6-0.7,1.3-1.1,2c-0.4,0.7-0.8,1.4-1.1,2.1H129.5z
	 M132.3,229.4c0.1,0.1,0.1,0.2,0,0.3c0,0.1-0.1,0.2-0.2,0.3c-0.1,0.1-0.2,0.1-0.3,0c-0.1,0-0.2-0.1-0.3-0.2
	c-0.1-0.2-0.3-0.5-0.4-0.8c-0.1-0.3-0.3-0.6-0.5-0.9c-0.2-0.3-0.4-0.7-0.6-1.1h-8.2c-0.2,0.4-0.4,0.8-0.6,1.1
	c-0.2,0.3-0.3,0.6-0.5,0.9c-0.2,0.3-0.3,0.6-0.4,0.8c-0.1,0.1-0.1,0.2-0.3,0.2c-0.1,0-0.2,0-0.3,0c-0.1-0.1-0.2-0.1-0.2-0.3
	c0-0.1,0-0.2,0-0.3l6-11.2c0.1-0.2,0.2-0.2,0.4-0.2c0.2,0,0.3,0.1,0.4,0.2L132.3,229.4z M116.7,218.4c0-0.1,0-0.2,0.1-0.3
	c0.1-0.1,0.2-0.1,0.3-0.1c0.1,0,0.2,0,0.3,0.1c0.1,0.1,0.1,0.2,0.1,0.3v11.2c0,0.1,0,0.2-0.1,0.3c-0.1,0.1-0.2,0.1-0.3,0.1
	c-0.1,0-0.2,0-0.3-0.1c-0.1-0.1-0.1-0.2-0.1-0.3V218.4z M104.7,219.6c0.6-0.6,1.3-1,2.1-1.4c0.8-0.3,1.6-0.5,2.5-0.5
	c0.9,0,1.7,0.2,2.5,0.5c0.8,0.3,1.5,0.8,2.1,1.4c0.1,0.1,0.1,0.2,0.1,0.3s0,0.2-0.1,0.3c-0.1,0.1-0.2,0.1-0.3,0.1
	c-0.1,0-0.2,0-0.3-0.1c-0.5-0.5-1.1-0.9-1.8-1.2c-0.7-0.3-1.4-0.4-2.1-0.4c-0.7,0-1.4,0.1-2.1,0.4c-0.7,0.3-1.3,0.7-1.8,1.2
	c-0.5,0.5-0.9,1.1-1.2,1.8c-0.3,0.7-0.4,1.3-0.4,2.1c0,0.7,0.1,1.4,0.4,2.1c0.3,0.7,0.7,1.2,1.2,1.8c0.5,0.5,1.1,0.9,1.8,1.2
	c0.7,0.3,1.4,0.4,2.1,0.4c0.7,0,1.5-0.1,2.1-0.4c0.7-0.3,1.3-0.7,1.8-1.2c0.1-0.1,0.2-0.1,0.3-0.1c0.1,0,0.2,0,0.3,0.1
	c0.1,0.1,0.1,0.2,0.1,0.3c0,0.1,0,0.2-0.1,0.3c-0.6,0.6-1.3,1.1-2.1,1.4c-0.8,0.3-1.6,0.5-2.5,0.5c-0.9,0-1.7-0.2-2.5-0.5
	c-0.8-0.3-1.5-0.8-2.1-1.4c-0.6-0.6-1.1-1.3-1.4-2c-0.3-0.8-0.5-1.6-0.5-2.4c0-0.8,0.2-1.6,0.5-2.4
	C103.6,220.8,104.1,220.2,104.7,219.6z M89.7,218c0.2-0.1,0.4,0,0.5,0.1c1.4,1.7,2.8,3.2,4,4.6c0.5,0.6,1,1.2,1.6,1.8
	c0.5,0.6,1,1.2,1.5,1.7c0.5,0.5,0.9,1,1.2,1.4c0.3,0.4,0.6,0.7,0.8,0.9v-10.1c0-0.1,0-0.2,0.1-0.3c0.1-0.1,0.2-0.1,0.3-0.1
	c0.1,0,0.2,0,0.3,0.1c0.1,0.1,0.1,0.2,0.1,0.3v11.2c0,0.2-0.1,0.3-0.3,0.4c-0.2,0.1-0.4,0-0.5-0.1c-1.4-1.7-2.8-3.2-4-4.6
	c-0.5-0.6-1-1.2-1.6-1.8c-0.5-0.6-1-1.2-1.5-1.7c-0.5-0.5-0.9-1-1.2-1.4c-0.3-0.4-0.6-0.7-0.8-0.9v10.1c0,0.1,0,0.2-0.1,0.3
	c-0.1,0.1-0.2,0.1-0.3,0.1c-0.1,0-0.2,0-0.3-0.1c-0.1-0.1-0.1-0.2-0.1-0.3v-11.2C89.4,218.2,89.5,218.1,89.7,218z M84.7,226.1
	c-0.4-0.7-0.7-1.4-1.1-2.1c-0.4-0.7-0.7-1.4-1.1-2c-0.3-0.6-0.6-1.2-0.9-1.7c-0.3-0.5-0.4-0.8-0.5-1c-0.1,0.2-0.3,0.5-0.5,1
	c-0.3,0.5-0.6,1-0.9,1.7c-0.3,0.6-0.7,1.3-1.1,2c-0.4,0.7-0.8,1.4-1.1,2.1H84.7z M87.5,229.4c0.1,0.1,0.1,0.2,0,0.3
	c0,0.1-0.1,0.2-0.2,0.3c-0.1,0.1-0.2,0.1-0.3,0c-0.1,0-0.2-0.1-0.3-0.2c-0.1-0.2-0.3-0.5-0.4-0.8c-0.1-0.3-0.3-0.6-0.5-0.9
	c-0.2-0.3-0.4-0.7-0.6-1.1H77c-0.2,0.4-0.4,0.8-0.6,1.1c-0.2,0.3-0.3,0.6-0.5,0.9c-0.2,0.3-0.3,0.6-0.4,0.8
	c-0.1,0.1-0.1,0.2-0.3,0.2c-0.1,0-0.2,0-0.3,0c-0.1-0.1-0.2-0.1-0.2-0.3c0-0.1,0-0.2,0-0.3l6-11.2c0.1-0.2,0.2-0.2,0.4-0.2
	c0.2,0,0.3,0.1,0.4,0.2L87.5,229.4z M62.4,218c0.2-0.1,0.4,0,0.5,0.1c1.4,1.7,2.8,3.2,4,4.6c0.5,0.6,1,1.2,1.6,1.8
	c0.5,0.6,1,1.2,1.5,1.7c0.5,0.5,0.9,1,1.2,1.4c0.3,0.4,0.6,0.7,0.8,0.9v-10.1c0-0.1,0-0.2,0.1-0.3c0.1-0.1,0.2-0.1,0.3-0.1
	c0.1,0,0.2,0,0.3,0.1c0.1,0.1,0.1,0.2,0.1,0.3v11.2c0,0.2-0.1,0.3-0.3,0.4c-0.2,0.1-0.4,0-0.5-0.1c-1.4-1.7-2.8-3.2-4-4.6
	c-0.5-0.6-1-1.2-1.6-1.8c-0.5-0.6-1-1.2-1.5-1.7c-0.5-0.5-0.9-1-1.2-1.4c-0.3-0.4-0.6-0.7-0.8-0.9v10.1c0,0.1,0,0.2-0.1,0.3
	c-0.1,0.1-0.2,0.1-0.3,0.1c-0.1,0-0.2,0-0.3-0.1c-0.1-0.1-0.1-0.2-0.1-0.3v-11.2C62.1,218.2,62.2,218.1,62.4,218z M57.8,218.4
	c0-0.1,0-0.2,0.1-0.3c0.1-0.1,0.2-0.1,0.3-0.1c0.1,0,0.2,0,0.3,0.1c0.1,0.1,0.1,0.2,0.1,0.3v11.2c0,0.1,0,0.2-0.1,0.3
	c-0.1,0.1-0.2,0.1-0.3,0.1c-0.1,0-0.2,0-0.3-0.1c-0.1-0.1-0.1-0.2-0.1-0.3V218.4z M393.7,218.5c0.8-0.5,1.7-0.8,2.9-0.8
	c0.6,0,1.3,0.1,2,0.2c0.7,0.1,1.2,0.3,1.7,0.5c0.1,0,0.2,0.1,0.2,0.2c0,0.1,0,0.2,0,0.3c-0.1,0.1-0.1,0.2-0.3,0.2
	c-0.1,0-0.2,0-0.3,0c-0.4-0.2-0.9-0.3-1.5-0.4c-0.6-0.1-1.2-0.2-1.8-0.2c-0.5,0-1,0.1-1.4,0.2c-0.4,0.1-0.8,0.3-1.1,0.4
	c-0.6,0.4-0.9,1-0.9,1.7c0,0.6,0.3,1.1,0.9,1.5c0.6,0.4,1.4,0.6,2.5,0.8c1.5,0.2,2.7,0.6,3.5,1.2c0.8,0.6,1.2,1.4,1.2,2.3
	c0,1.1-0.5,2-1.5,2.7c-0.9,0.6-2,0.9-3.3,0.9c-1.7,0-3.2-0.5-4.4-1.3c-0.1-0.1-0.2-0.2-0.2-0.3c0-0.1,0-0.2,0.1-0.3
	c0.1-0.1,0.2-0.1,0.3-0.2c0.1,0,0.2,0,0.3,0.1c1,0.8,2.3,1.2,3.8,1.2c0.6,0,1.1-0.1,1.6-0.2c0.5-0.1,0.9-0.3,1.3-0.5
	c0.7-0.5,1.1-1.2,1.1-2c0-0.7-0.4-1.3-1.1-1.7c-0.3-0.2-0.8-0.4-1.2-0.6c-0.5-0.1-1-0.3-1.7-0.4c-1.2-0.2-2.2-0.5-2.9-0.9
	c-0.4-0.3-0.7-0.6-1-0.9c-0.2-0.4-0.4-0.8-0.4-1.3C392.4,219.9,392.8,219.1,393.7,218.5z M389.4,229.2c0.1,0,0.2,0,0.3,0.1
	c0.1,0.1,0.1,0.2,0.1,0.3c0,0.1,0,0.2-0.1,0.3c-0.1,0.1-0.2,0.1-0.3,0.1h-8.3c-0.1,0-0.2,0-0.3-0.1c-0.1-0.1-0.1-0.2-0.1-0.3v-11.2
	c0-0.1,0-0.2,0.1-0.3c0.1-0.1,0.2-0.1,0.3-0.1h8.3c0.1,0,0.2,0,0.3,0.1c0.1,0.1,0.1,0.2,0.1,0.3c0,0.1,0,0.2-0.1,0.3
	c-0.1,0.1-0.2,0.1-0.3,0.1h-7.8v4.8h6.8c0.1,0,0.2,0,0.3,0.1c0.1,0.1,0.1,0.2,0.1,0.3c0,0.1,0,0.2-0.1,0.3c-0.1,0.1-0.2,0.1-0.3,0.1
	h-6.8v4.8H389.4z M378.7,214.1c0.1-0.1,0.2-0.1,0.3-0.1c0.1,0,0.2,0.1,0.3,0.2c0.1,0.1,0.1,0.2,0.1,0.3c0,0.1-0.1,0.2-0.2,0.3
	l-2.3,1.9c-0.1,0.1-0.2,0.1-0.3,0.1c-0.1,0-0.3-0.1-0.3-0.2c-0.1-0.1-0.1-0.2-0.1-0.3c0-0.1,0.1-0.3,0.2-0.3L378.7,214.1z
	 M376.3,218.4c0-0.1,0-0.2,0.1-0.3c0.1-0.1,0.2-0.1,0.3-0.1c0.1,0,0.2,0,0.3,0.1c0.1,0.1,0.1,0.2,0.1,0.3v11.2c0,0.1,0,0.2-0.1,0.3
	c-0.1,0.1-0.2,0.1-0.3,0.1c-0.1,0-0.2,0-0.3-0.1c-0.1-0.1-0.1-0.2-0.1-0.3V218.4z M362.5,218c0.2-0.1,0.4,0,0.5,0.1
	c1.4,1.7,2.8,3.2,4,4.6c0.5,0.6,1,1.2,1.6,1.8c0.5,0.6,1,1.2,1.5,1.7c0.5,0.5,0.9,1,1.2,1.4c0.3,0.4,0.6,0.7,0.8,0.9v-10.1
	c0-0.1,0-0.2,0.1-0.3c0.1-0.1,0.2-0.1,0.3-0.1c0.1,0,0.2,0,0.3,0.1c0.1,0.1,0.1,0.2,0.1,0.3v11.2c0,0.2-0.1,0.3-0.3,0.4
	c-0.2,0.1-0.4,0-0.5-0.1c-1.4-1.7-2.8-3.2-4-4.6c-0.5-0.6-1-1.2-1.6-1.8c-0.5-0.6-1-1.2-1.5-1.7c-0.5-0.5-0.9-1-1.2-1.4
	c-0.3-0.4-0.6-0.7-0.8-0.9v10.1c0,0.1,0,0.2-0.1,0.3c-0.1,0.1-0.2,0.1-0.3,0.1c-0.1,0-0.2,0-0.3-0.1c-0.1-0.1-0.1-0.2-0.1-0.3v-11.2
	C362.2,218.2,362.3,218.1,362.5,218z M357.5,226.1c-0.4-0.7-0.7-1.4-1.1-2.1c-0.4-0.7-0.7-1.4-1.1-2c-0.3-0.6-0.6-1.2-0.9-1.7
	c-0.3-0.5-0.4-0.8-0.5-1c-0.1,0.2-0.3,0.5-0.5,1c-0.3,0.5-0.6,1-0.9,1.7c-0.3,0.6-0.7,1.3-1.1,2c-0.4,0.7-0.8,1.4-1.1,2.1H357.5z
	 M360.3,229.4c0.1,0.1,0.1,0.2,0,0.3c0,0.1-0.1,0.2-0.2,0.3c-0.1,0.1-0.2,0.1-0.3,0c-0.1,0-0.2-0.1-0.3-0.2
	c-0.1-0.2-0.3-0.5-0.4-0.8c-0.1-0.3-0.3-0.6-0.5-0.9c-0.2-0.3-0.4-0.7-0.6-1.1h-8.2c-0.2,0.4-0.4,0.8-0.6,1.1
	c-0.2,0.3-0.3,0.6-0.5,0.9c-0.2,0.3-0.3,0.6-0.4,0.8c-0.1,0.1-0.1,0.2-0.3,0.2c-0.1,0-0.2,0-0.3,0c-0.1-0.1-0.2-0.1-0.2-0.3
	c0-0.1,0-0.2,0-0.3l6-11.2c0.1-0.2,0.2-0.2,0.4-0.2c0.2,0,0.3,0.1,0.4,0.2L360.3,229.4z M337.1,224.9h5c0.4,0,0.8-0.1,1.2-0.2
	c0.4-0.2,0.7-0.4,1-0.7c0.3-0.3,0.5-0.6,0.7-1c0.2-0.4,0.2-0.8,0.2-1.2s-0.1-0.8-0.2-1.2c-0.2-0.4-0.4-0.7-0.7-1
	c-0.3-0.3-0.6-0.5-1-0.7c-0.4-0.2-0.8-0.2-1.2-0.2h-5V224.9z M346.1,229.4c0.1,0.1,0.1,0.2,0.1,0.3c0,0.1-0.1,0.2-0.1,0.3
	c-0.1,0.1-0.2,0.1-0.3,0.1c-0.1,0-0.2-0.1-0.3-0.1l-4-4.2h-4.5v3.8c0,0.1,0,0.2-0.1,0.3c-0.1,0.1-0.2,0.1-0.3,0.1
	c-0.1,0-0.2,0-0.3-0.1c-0.1-0.1-0.1-0.2-0.1-0.3v-11.2c0-0.1,0-0.2,0.1-0.3c0.1-0.1,0.2-0.1,0.3-0.1h5.4c0.6,0,1.1,0.1,1.6,0.3
	c0.5,0.2,0.9,0.5,1.3,0.8c0.4,0.4,0.6,0.8,0.9,1.2c0.2,0.5,0.3,1,0.3,1.5c0,0.5-0.1,0.9-0.3,1.4c-0.2,0.4-0.4,0.8-0.7,1.2
	c-0.3,0.3-0.7,0.6-1.1,0.9c-0.4,0.2-0.8,0.4-1.3,0.5L346.1,229.4z M331.5,226.1c-0.4-0.7-0.7-1.4-1.1-2.1c-0.4-0.7-0.7-1.4-1.1-2
	c-0.3-0.6-0.6-1.2-0.9-1.7c-0.3-0.5-0.4-0.8-0.5-1c-0.1,0.2-0.3,0.5-0.5,1c-0.3,0.5-0.6,1-0.9,1.7c-0.3,0.6-0.7,1.3-1.1,2
	c-0.4,0.7-0.8,1.4-1.1,2.1H331.5z M384.1,382.2c0.5,0.5,1.1,0.9,1.7,1.1c0.6,0.2,1.3,0.4,2,0.4c0.7,0,1.4-0.1,2-0.4
	c0.6-0.3,1.2-0.6,1.7-1.1c0.5-0.5,0.9-1,1.1-1.7c0.3-0.6,0.4-1.3,0.4-1.9c0-0.7-0.1-1.3-0.4-1.9c-0.3-0.6-0.6-1.2-1.1-1.6
	c-0.5-0.5-1.1-0.9-1.7-1.1c-0.6-0.3-1.3-0.4-2-0.4c-0.7,0-1.4,0.1-2,0.4c-0.6,0.3-1.2,0.6-1.7,1.1c-0.5,0.5-0.9,1-1.1,1.6
	c-0.3,0.6-0.4,1.3-0.4,1.9c0,0.7,0.1,1.3,0.4,1.9C383.2,381.2,383.6,381.7,384.1,382.2z M383.5,374.4c0.6-0.6,1.2-1,2-1.3
	c0.7-0.3,1.5-0.4,2.3-0.4c0.8,0,1.6,0.1,2.3,0.4c0.7,0.3,1.4,0.7,2,1.3c0.6,0.6,1,1.2,1.3,1.9c0.3,0.7,0.5,1.5,0.5,2.3
	c0,0.8-0.2,1.5-0.5,2.3c-0.3,0.7-0.7,1.4-1.3,1.9c-0.6,0.6-1.2,1-2,1.3c-0.7,0.3-1.5,0.4-2.3,0.4c-0.8,0-1.6-0.1-2.3-0.4
	c-0.7-0.3-1.4-0.7-2-1.3c-0.6-0.6-1-1.2-1.3-1.9c-0.3-0.7-0.4-1.5-0.4-2.3c0-0.8,0.1-1.5,0.4-2.3C382.5,375.6,382.9,375,383.5,374.4
	z M370.2,373.7v9.7h4.4c0.7,0,1.3-0.1,1.9-0.4c0.6-0.2,1.1-0.6,1.6-1.1c0.5-0.5,0.8-1,1.1-1.6c0.3-0.6,0.4-1.2,0.4-1.9
	c0-0.7-0.1-1.3-0.4-1.9c-0.3-0.6-0.6-1.1-1.1-1.6c-0.5-0.5-1-0.8-1.6-1.1c-0.6-0.3-1.2-0.4-1.9-0.4H370.2z M374.6,372.9
	c0.8,0,1.5,0.1,2.2,0.4c0.7,0.3,1.3,0.7,1.9,1.2c0.6,0.5,1,1.2,1.3,1.8c0.3,0.7,0.4,1.4,0.4,2.2c0,0.8-0.1,1.5-0.4,2.2
	c-0.3,0.7-0.7,1.3-1.3,1.8c-0.6,0.5-1.2,1-1.9,1.2c-0.7,0.3-1.4,0.4-2.2,0.4h-4.8c-0.1,0-0.2,0-0.3-0.1c-0.1-0.1-0.1-0.2-0.1-0.3
	v-10.6c0-0.1,0-0.2,0.1-0.3c0.1-0.1,0.2-0.1,0.3-0.1H374.6z M365.6,380.6c-0.3-0.6-0.7-1.3-1.1-2c-0.4-0.7-0.7-1.3-1-1.9
	c-0.3-0.6-0.6-1.1-0.8-1.6c-0.2-0.5-0.4-0.8-0.5-0.9c-0.1,0.2-0.3,0.5-0.5,0.9c-0.2,0.4-0.5,1-0.8,1.6c-0.3,0.6-0.7,1.2-1,1.9
	c-0.4,0.7-0.7,1.3-1.1,2H365.6z M368.1,383.7c0.1,0.1,0.1,0.2,0,0.3c0,0.1-0.1,0.2-0.2,0.2c-0.1,0.1-0.2,0.1-0.3,0
	c-0.1,0-0.2-0.1-0.2-0.2c-0.1-0.2-0.3-0.5-0.4-0.8c-0.1-0.2-0.3-0.5-0.4-0.8c-0.2-0.3-0.4-0.7-0.6-1h-7.7c-0.2,0.4-0.4,0.7-0.6,1
	c-0.2,0.3-0.3,0.6-0.4,0.8c-0.1,0.3-0.3,0.5-0.4,0.8c-0.1,0.1-0.1,0.2-0.3,0.2c-0.1,0-0.2,0-0.3,0c-0.1-0.1-0.2-0.1-0.2-0.2
	c0-0.1,0-0.2,0-0.3l5.6-10.6c0.1-0.2,0.2-0.2,0.4-0.2c0.2,0,0.3,0.1,0.4,0.2L368.1,383.7z M346.9,374.4c0.6-0.6,1.2-1,2-1.3
	c0.7-0.3,1.5-0.4,2.3-0.4c0.8,0,1.6,0.1,2.3,0.4c0.7,0.3,1.4,0.7,2,1.3c0.1,0.1,0.1,0.2,0.1,0.3c0,0.1,0,0.2-0.1,0.3
	c-0.1,0.1-0.2,0.1-0.3,0.1c-0.1,0-0.2,0-0.3-0.1c-0.5-0.5-1.1-0.9-1.7-1.1c-0.6-0.3-1.3-0.4-2-0.4c-0.7,0-1.4,0.1-2,0.4
	c-0.6,0.3-1.2,0.6-1.7,1.1c-0.5,0.5-0.9,1-1.1,1.6c-0.3,0.6-0.4,1.3-0.4,1.9c0,0.7,0.1,1.3,0.4,1.9c0.3,0.6,0.6,1.2,1.1,1.7
	c0.5,0.5,1.1,0.9,1.7,1.1c0.6,0.2,1.3,0.4,2,0.4c0.7,0,1.4-0.1,2-0.4c0.6-0.3,1.2-0.6,1.7-1.1c0.1-0.1,0.2-0.1,0.3-0.1
	c0.1,0,0.2,0,0.3,0.1c0.1,0.1,0.1,0.2,0.1,0.3c0,0.1,0,0.2-0.1,0.3c-0.6,0.6-1.2,1-2,1.3c-0.7,0.3-1.5,0.4-2.3,0.4
	c-0.8,0-1.6-0.1-2.3-0.4c-0.7-0.3-1.4-0.7-2-1.3c-0.6-0.6-1-1.2-1.3-1.9c-0.3-0.7-0.5-1.5-0.5-2.3c0-0.8,0.2-1.5,0.5-2.3
	C345.9,375.6,346.4,375,346.9,374.4z M335.2,379.5h4.7c0.4,0,0.8-0.1,1.1-0.2c0.4-0.2,0.7-0.4,0.9-0.6c0.3-0.3,0.5-0.6,0.6-0.9
	c0.2-0.4,0.2-0.7,0.2-1.1c0-0.4-0.1-0.8-0.2-1.1c-0.2-0.4-0.4-0.7-0.6-0.9c-0.3-0.3-0.6-0.5-0.9-0.6c-0.4-0.2-0.7-0.2-1.1-0.2h-4.7
	V379.5z M343.7,383.7c0.1,0.1,0.1,0.2,0.1,0.3c0,0.1-0.1,0.2-0.1,0.3c-0.1,0.1-0.2,0.1-0.3,0.1c-0.1,0-0.2-0.1-0.3-0.1l-3.7-3.9
	h-4.2v3.6c0,0.1,0,0.2-0.1,0.3c-0.1,0.1-0.2,0.1-0.3,0.1c-0.1,0-0.2,0-0.3-0.1c-0.1-0.1-0.1-0.2-0.1-0.3v-10.6c0-0.1,0-0.2,0.1-0.3
	c0.1-0.1,0.2-0.1,0.3-0.1h5.1c0.5,0,1,0.1,1.5,0.3c0.5,0.2,0.9,0.5,1.2,0.8c0.3,0.3,0.6,0.7,0.8,1.2c0.2,0.4,0.3,0.9,0.3,1.4
	c0,0.5-0.1,0.9-0.2,1.3c-0.2,0.4-0.4,0.8-0.7,1.1c-0.3,0.3-0.6,0.6-1,0.8c-0.4,0.2-0.8,0.4-1.2,0.4L343.7,383.7z M332,383.5
	c0.1,0,0.2,0,0.3,0.1c0.1,0.1,0.1,0.2,0.1,0.3c0,0.1,0,0.2-0.1,0.3c-0.1,0.1-0.2,0.1-0.3,0.1h-7.8c-0.1,0-0.2,0-0.3-0.1
	c-0.1-0.1-0.1-0.2-0.1-0.3v-10.6c0-0.1,0-0.2,0.1-0.3c0.1-0.1,0.2-0.1,0.3-0.1h7.8c0.1,0,0.2,0,0.3,0.1c0.1,0.1,0.1,0.2,0.1,0.3
	c0,0.1,0,0.2-0.1,0.3c-0.1,0.1-0.2,0.1-0.3,0.1h-7.4v4.5h6.4c0.1,0,0.2,0,0.3,0.1c0.1,0.1,0.1,0.2,0.1,0.3c0,0.1,0,0.2-0.1,0.3
	c-0.1,0.1-0.2,0.1-0.3,0.1h-6.4v4.5H332z M320.4,373.1c0.1-0.2,0.3-0.2,0.5-0.1c0.1,0,0.2,0.1,0.2,0.1c0,0.1,0.1,0.1,0.1,0.2v10.6
	c0,0.1,0,0.2-0.1,0.3c-0.1,0.1-0.2,0.1-0.3,0.1c-0.1,0-0.2,0-0.3-0.1c-0.1-0.1-0.1-0.2-0.1-0.3v-9.4c-0.1,0.2-0.3,0.4-0.5,0.7
	c-0.2,0.3-0.4,0.6-0.7,0.9c-0.2,0.3-0.5,0.6-0.8,1c-0.3,0.3-0.5,0.7-0.8,1c-0.6,0.8-1.3,1.6-2,2.5c-0.1,0.1-0.2,0.1-0.3,0.1
	c-0.1,0-0.3,0-0.3-0.1c-0.7-0.9-1.4-1.7-2-2.5c-0.3-0.3-0.5-0.7-0.8-1c-0.3-0.3-0.5-0.7-0.8-1c-0.3-0.3-0.5-0.6-0.7-0.9
	c-0.2-0.3-0.4-0.5-0.5-0.7v9.4c0,0.1,0,0.2-0.1,0.3c-0.1,0.1-0.2,0.1-0.3,0.1c-0.1,0-0.2,0-0.3-0.1c-0.1-0.1-0.1-0.2-0.1-0.3v-10.6
	c0-0.1,0-0.2,0.1-0.2c0-0.1,0.1-0.1,0.2-0.1c0.2-0.1,0.3,0,0.5,0.1c0.9,1.1,1.7,2.1,2.4,3c0.3,0.4,0.6,0.8,0.9,1.1
	c0.3,0.4,0.6,0.7,0.8,1c0.3,0.3,0.5,0.6,0.7,0.8c0.2,0.2,0.3,0.4,0.4,0.5c0.1-0.1,0.2-0.2,0.4-0.5c0.2-0.2,0.4-0.5,0.7-0.8
	c0.3-0.3,0.5-0.7,0.8-1c0.3-0.4,0.6-0.8,0.9-1.1C318.7,375.2,319.5,374.2,320.4,373.1z M334.2,229.4c0.1,0.1,0.1,0.2,0,0.3
	c0,0.1-0.1,0.2-0.2,0.3c-0.1,0.1-0.2,0.1-0.3,0c-0.1,0-0.2-0.1-0.3-0.2c-0.1-0.2-0.3-0.5-0.4-0.8c-0.1-0.3-0.3-0.6-0.5-0.9
	c-0.2-0.3-0.4-0.7-0.6-1.1h-8.2c-0.2,0.4-0.4,0.8-0.6,1.1c-0.2,0.3-0.3,0.6-0.5,0.9c-0.2,0.3-0.3,0.6-0.4,0.8
	c-0.1,0.1-0.1,0.2-0.3,0.2c-0.1,0-0.2,0-0.3,0c-0.1-0.1-0.2-0.1-0.2-0.3c0-0.1,0-0.2,0-0.3l6-11.2c0.1-0.2,0.2-0.2,0.4-0.2
	c0.2,0,0.3,0.1,0.4,0.2L334.2,229.4z M293.6,373.3c0-0.1,0-0.2,0.1-0.3c0.1-0.1,0.2-0.1,0.3-0.1c0.1,0,0.2,0,0.3,0.1
	c0.1,0.1,0.1,0.2,0.1,0.3v10.2h7.4c0.1,0,0.2,0,0.3,0.1c0.1,0.1,0.1,0.2,0.1,0.3c0,0.1,0,0.2-0.1,0.3c-0.1,0.1-0.2,0.1-0.3,0.1H294
	c-0.1,0-0.2,0-0.3-0.1c-0.1-0.1-0.1-0.2-0.1-0.3V373.3z M291.2,383.5c0.1,0,0.2,0,0.3,0.1c0.1,0.1,0.1,0.2,0.1,0.3
	c0,0.1,0,0.2-0.1,0.3c-0.1,0.1-0.2,0.1-0.3,0.1h-7.8c-0.1,0-0.2,0-0.3-0.1c-0.1-0.1-0.1-0.2-0.1-0.3v-10.6c0-0.1,0-0.2,0.1-0.3
	c0.1-0.1,0.2-0.1,0.3-0.1h7.8c0.1,0,0.2,0,0.3,0.1c0.1,0.1,0.1,0.2,0.1,0.3c0,0.1,0,0.2-0.1,0.3c-0.1,0.1-0.2,0.1-0.3,0.1h-7.4v4.5
	h6.4c0.1,0,0.2,0,0.3,0.1c0.1,0.1,0.1,0.2,0.1,0.3c0,0.1,0,0.2-0.1,0.3c-0.1,0.1-0.2,0.1-0.3,0.1h-6.4v4.5H291.2z M270.8,373.7v9.7
	h4.4c0.7,0,1.3-0.1,1.9-0.4c0.6-0.2,1.1-0.6,1.6-1.1c0.5-0.5,0.8-1,1.1-1.6c0.2-0.6,0.4-1.2,0.4-1.9c0-0.7-0.1-1.3-0.4-1.9
	c-0.3-0.6-0.6-1.1-1.1-1.6c-0.5-0.5-1-0.8-1.6-1.1c-0.6-0.3-1.2-0.4-1.9-0.4H270.8z M275.2,372.9c0.8,0,1.5,0.1,2.2,0.4
	c0.7,0.3,1.3,0.7,1.9,1.2c0.6,0.5,1,1.2,1.3,1.8c0.3,0.7,0.4,1.4,0.4,2.2c0,0.8-0.1,1.5-0.4,2.2c-0.3,0.7-0.7,1.3-1.3,1.8
	c-0.6,0.5-1.2,1-1.9,1.2c-0.7,0.3-1.4,0.4-2.2,0.4h-4.8c-0.1,0-0.2,0-0.3-0.1c-0.1-0.1-0.1-0.2-0.1-0.3v-10.6c0-0.1,0-0.2,0.1-0.3
	c0.1-0.1,0.2-0.1,0.3-0.1H275.2z M251.6,373c0.2-0.1,0.3,0,0.4,0.1c1.4,1.6,2.6,3,3.8,4.3c0.5,0.6,1,1.1,1.5,1.7
	c0.5,0.6,0.9,1.1,1.4,1.6c0.4,0.5,0.8,0.9,1.1,1.3c0.3,0.4,0.6,0.6,0.7,0.8v-9.5c0-0.1,0-0.2,0.1-0.3c0.1-0.1,0.2-0.1,0.3-0.1
	c0.1,0,0.2,0,0.3,0.1c0.1,0.1,0.1,0.2,0.1,0.3v10.5c0,0.2-0.1,0.3-0.3,0.4c-0.2,0.1-0.3,0-0.5-0.1c-1.4-1.6-2.6-3-3.7-4.3
	c-0.5-0.6-1-1.1-1.5-1.7c-0.5-0.6-0.9-1.1-1.4-1.6c-0.4-0.5-0.8-0.9-1.1-1.3c-0.3-0.4-0.6-0.6-0.7-0.8v9.5c0,0.1,0,0.2-0.1,0.3
	c-0.1,0.1-0.2,0.1-0.3,0.1c-0.1,0-0.2,0-0.3-0.1c-0.1-0.1-0.1-0.2-0.1-0.3v-10.6C251.3,373.2,251.4,373,251.6,373z M245.1,369.3
	c0.1-0.1,0.2-0.1,0.3-0.1c0.1,0,0.2,0,0.3,0.1c0.1,0.1,0.1,0.2,0.1,0.3c0,0.1,0,0.2-0.2,0.3l-2.2,1.8c-0.1,0.1-0.2,0.1-0.3,0.1
	c-0.1,0-0.2,0-0.3-0.1c-0.1-0.1-0.1-0.2-0.1-0.2c0-0.1,0.1-0.2,0.1-0.3L245.1,369.3z M239.6,382.2c0.5,0.5,1.1,0.9,1.7,1.1
	c0.6,0.2,1.3,0.4,2,0.4c0.7,0,1.4-0.1,2-0.4c0.6-0.3,1.2-0.6,1.7-1.1c0.5-0.5,0.9-1,1.1-1.7c0.3-0.6,0.4-1.3,0.4-1.9
	c0-0.7-0.1-1.3-0.4-1.9c-0.3-0.6-0.6-1.2-1.1-1.6c-0.5-0.5-1.1-0.9-1.7-1.1c-0.6-0.3-1.3-0.4-2-0.4c-0.7,0-1.4,0.1-2,0.4
	c-0.6,0.3-1.2,0.6-1.7,1.1c-0.5,0.5-0.9,1-1.1,1.6c-0.3,0.6-0.4,1.3-0.4,1.9c0,0.7,0.1,1.3,0.4,1.9
	C238.8,381.2,239.1,381.7,239.6,382.2z M239,374.4c0.6-0.6,1.2-1,2-1.3c0.7-0.3,1.5-0.4,2.3-0.4c0.8,0,1.6,0.1,2.3,0.4
	c0.7,0.3,1.4,0.7,2,1.3c0.6,0.6,1,1.2,1.3,1.9c0.3,0.7,0.5,1.5,0.5,2.3c0,0.8-0.2,1.5-0.5,2.3c-0.3,0.7-0.7,1.4-1.3,1.9
	c-0.6,0.6-1.2,1-2,1.3c-0.7,0.3-1.5,0.4-2.3,0.4c-0.8,0-1.6-0.1-2.3-0.4c-0.7-0.3-1.4-0.7-2-1.3c-0.6-0.6-1-1.2-1.3-1.9
	c-0.3-0.7-0.4-1.5-0.4-2.3c0-0.8,0.1-1.5,0.4-2.3C238,375.6,238.5,375,239,374.4z M234.5,373.3c0-0.1,0-0.2,0.1-0.3
	c0.1-0.1,0.2-0.1,0.3-0.1c0.1,0,0.2,0,0.3,0.1c0.1,0.1,0.1,0.2,0.1,0.3v10.6c0,0.1,0,0.2-0.1,0.3c-0.1,0.1-0.2,0.1-0.3,0.1
	c-0.1,0-0.2,0-0.3-0.1c-0.1-0.1-0.1-0.2-0.1-0.3V373.3z M223.8,374.4c0.6-0.6,1.2-1,2-1.3c0.7-0.3,1.5-0.4,2.3-0.4
	c0.8,0,1.6,0.1,2.3,0.4c0.7,0.3,1.4,0.7,2,1.3c0.1,0.1,0.1,0.2,0.1,0.3c0,0.1,0,0.2-0.1,0.3c-0.1,0.1-0.2,0.1-0.3,0.1
	c-0.1,0-0.2,0-0.3-0.1c-0.5-0.5-1.1-0.9-1.7-1.1c-0.6-0.3-1.3-0.4-2-0.4c-0.7,0-1.4,0.1-2,0.4c-0.6,0.3-1.2,0.6-1.7,1.1
	c-0.5,0.5-0.9,1-1.1,1.6c-0.3,0.6-0.4,1.3-0.4,1.9c0,0.7,0.1,1.3,0.4,1.9c0.3,0.6,0.6,1.2,1.1,1.7c0.5,0.5,1.1,0.9,1.7,1.1
	c0.6,0.2,1.3,0.4,2,0.4c0.7,0,1.4-0.1,2-0.4c0.6-0.3,1.2-0.6,1.7-1.1c0.1-0.1,0.2-0.1,0.3-0.1c0.1,0,0.2,0,0.3,0.1
	c0.1,0.1,0.1,0.2,0.1,0.3c0,0.1,0,0.2-0.1,0.3c-0.6,0.6-1.2,1-2,1.3c-0.7,0.3-1.5,0.4-2.3,0.4c-0.8,0-1.6-0.1-2.3-0.4
	c-0.7-0.3-1.4-0.7-2-1.3c-0.6-0.6-1-1.2-1.3-1.9c-0.3-0.7-0.5-1.5-0.5-2.3c0-0.8,0.2-1.5,0.5-2.3C222.8,375.6,223.2,375,223.8,374.4
	z M219.3,380.6c-0.3-0.6-0.7-1.3-1.1-2c-0.4-0.7-0.7-1.3-1-1.9c-0.3-0.6-0.6-1.1-0.8-1.6c-0.2-0.5-0.4-0.8-0.5-0.9
	c-0.1,0.2-0.3,0.5-0.5,0.9c-0.2,0.4-0.5,1-0.8,1.6c-0.3,0.6-0.7,1.2-1,1.9c-0.4,0.7-0.7,1.3-1.1,2H219.3z M221.9,383.7
	c0.1,0.1,0.1,0.2,0,0.3c0,0.1-0.1,0.2-0.2,0.2c-0.1,0.1-0.2,0.1-0.3,0c-0.1,0-0.2-0.1-0.2-0.2c-0.1-0.2-0.3-0.5-0.4-0.8
	c-0.1-0.2-0.3-0.5-0.4-0.8c-0.2-0.3-0.4-0.7-0.6-1H212c-0.2,0.4-0.4,0.7-0.6,1c-0.2,0.3-0.3,0.6-0.4,0.8c-0.1,0.3-0.3,0.5-0.4,0.8
	c-0.1,0.1-0.1,0.2-0.2,0.2c-0.1,0-0.2,0-0.3,0c-0.1-0.1-0.2-0.1-0.2-0.2c0-0.1,0-0.2,0-0.3l5.6-10.6c0.1-0.2,0.2-0.2,0.4-0.2
	c0.2,0,0.3,0.1,0.4,0.2L221.9,383.7z M207.8,373.3c0-0.1,0-0.2,0.1-0.3c0.1-0.1,0.2-0.1,0.3-0.1s0.2,0,0.3,0.1
	c0.1,0.1,0.1,0.2,0.1,0.3v10.6c0,0.1,0,0.2-0.1,0.3c-0.1,0.1-0.2,0.1-0.3,0.1s-0.2,0-0.3-0.1c-0.1-0.1-0.1-0.2-0.1-0.3V373.3z
	 M197.2,374.4c0.6-0.6,1.2-1,2-1.3c0.7-0.3,1.5-0.4,2.3-0.4c0.8,0,1.6,0.1,2.3,0.4c0.7,0.3,1.4,0.7,2,1.3c0.1,0.1,0.1,0.2,0.1,0.3
	c0,0.1,0,0.2-0.1,0.3c-0.1,0.1-0.2,0.1-0.3,0.1c-0.1,0-0.2,0-0.3-0.1c-0.5-0.5-1.1-0.9-1.7-1.1c-0.6-0.3-1.3-0.4-2-0.4
	c-0.7,0-1.4,0.1-2,0.4c-0.6,0.3-1.2,0.6-1.7,1.1c-0.5,0.5-0.9,1-1.1,1.6c-0.3,0.6-0.4,1.3-0.4,1.9c0,0.7,0.1,1.3,0.4,1.9
	c0.3,0.6,0.6,1.2,1.1,1.7c0.5,0.5,1.1,0.9,1.7,1.1c0.6,0.2,1.3,0.4,2,0.4c0.7,0,1.4-0.1,2-0.4c0.6-0.3,1.2-0.6,1.7-1.1
	c0.1-0.1,0.2-0.1,0.3-0.1c0.1,0,0.2,0,0.3,0.1c0.1,0.1,0.1,0.2,0.1,0.3c0,0.1,0,0.2-0.1,0.3c-0.6,0.6-1.2,1-2,1.3
	c-0.7,0.3-1.5,0.4-2.3,0.4c-0.8,0-1.6-0.1-2.3-0.4c-0.7-0.3-1.4-0.7-2-1.3c-0.6-0.6-1-1.2-1.3-1.9c-0.3-0.7-0.5-1.5-0.5-2.3
	c0-0.8,0.2-1.5,0.5-2.3C196.2,375.6,196.6,375,197.2,374.4z M183.7,373c0.2-0.1,0.3,0,0.4,0.1c1.4,1.6,2.6,3,3.8,4.3
	c0.5,0.6,1,1.1,1.5,1.7c0.5,0.6,0.9,1.1,1.4,1.6c0.4,0.5,0.8,0.9,1.1,1.3c0.3,0.4,0.6,0.6,0.7,0.8v-9.5c0-0.1,0-0.2,0.1-0.3
	c0.1-0.1,0.2-0.1,0.3-0.1c0.1,0,0.2,0,0.3,0.1c0.1,0.1,0.1,0.2,0.1,0.3v10.5c0,0.2-0.1,0.3-0.3,0.4c-0.2,0.1-0.3,0-0.5-0.1
	c-1.4-1.6-2.6-3-3.7-4.3c-0.5-0.6-1-1.1-1.5-1.7c-0.5-0.6-0.9-1.1-1.4-1.6c-0.4-0.5-0.8-0.9-1.1-1.3c-0.3-0.4-0.6-0.6-0.7-0.8v9.5
	c0,0.1,0,0.2-0.1,0.3c-0.1,0.1-0.2,0.1-0.3,0.1c-0.1,0-0.2,0-0.3-0.1c-0.1-0.1-0.1-0.2-0.1-0.3v-10.6
	C183.4,373.2,183.5,373,183.7,373z M179.7,380.6c-0.3-0.6-0.7-1.3-1.1-2c-0.4-0.7-0.7-1.3-1-1.9c-0.3-0.6-0.6-1.1-0.8-1.6
	c-0.2-0.5-0.4-0.8-0.5-0.9c-0.1,0.2-0.3,0.5-0.5,0.9c-0.2,0.4-0.5,1-0.8,1.6c-0.3,0.6-0.7,1.2-1,1.9c-0.4,0.7-0.7,1.3-1.1,2H179.7z
	 M182.2,383.7c0.1,0.1,0.1,0.2,0,0.3c0,0.1-0.1,0.2-0.2,0.2c-0.1,0.1-0.2,0.1-0.3,0c-0.1,0-0.2-0.1-0.2-0.2
	c-0.1-0.2-0.3-0.5-0.4-0.8c-0.1-0.2-0.3-0.5-0.4-0.8c-0.2-0.3-0.4-0.7-0.6-1h-7.7c-0.2,0.4-0.4,0.7-0.6,1c-0.2,0.3-0.3,0.6-0.4,0.8
	c-0.1,0.3-0.3,0.5-0.4,0.8c-0.1,0.1-0.1,0.2-0.3,0.2c-0.1,0-0.2,0-0.3,0c-0.1-0.1-0.2-0.1-0.2-0.2c0-0.1,0-0.2,0-0.3l5.6-10.6
	c0.1-0.2,0.2-0.2,0.4-0.2c0.2,0,0.3,0.1,0.4,0.2L182.2,383.7z M159.3,373c0.2-0.1,0.3,0,0.4,0.1c1.4,1.6,2.6,3,3.8,4.3
	c0.5,0.6,1,1.1,1.5,1.7c0.5,0.6,0.9,1.1,1.4,1.6c0.4,0.5,0.8,0.9,1.1,1.3c0.3,0.4,0.6,0.6,0.7,0.8v-9.5c0-0.1,0-0.2,0.1-0.3
	c0.1-0.1,0.2-0.1,0.3-0.1c0.1,0,0.2,0,0.3,0.1c0.1,0.1,0.1,0.2,0.1,0.3v10.5c0,0.2-0.1,0.3-0.3,0.4c-0.2,0.1-0.3,0-0.5-0.1
	c-1.4-1.6-2.6-3-3.7-4.3c-0.5-0.6-1-1.1-1.5-1.7c-0.5-0.6-0.9-1.1-1.4-1.6c-0.4-0.5-0.8-0.9-1.1-1.3c-0.3-0.4-0.6-0.6-0.7-0.8v9.5
	c0,0.1,0,0.2-0.1,0.3c-0.1,0.1-0.2,0.1-0.3,0.1c-0.1,0-0.2,0-0.3-0.1c-0.1-0.1-0.1-0.2-0.1-0.3v-10.6
	C159.1,373.2,159.1,373,159.3,373z M155.6,373.3c0-0.1,0-0.2,0.1-0.3c0.1-0.1,0.2-0.1,0.3-0.1c0.1,0,0.2,0,0.3,0.1
	c0.1,0.1,0.1,0.2,0.1,0.3v10.6c0,0.1,0,0.2-0.1,0.3c-0.1,0.1-0.2,0.1-0.3,0.1c-0.1,0-0.2,0-0.3-0.1c-0.1-0.1-0.1-0.2-0.1-0.3V373.3z
	 M153.9,372.9c0.1,0,0.2,0,0.3,0.1c0.1,0.1,0.1,0.2,0.1,0.3c0,0.1,0,0.2-0.1,0.3c-0.1,0.1-0.2,0.1-0.3,0.1h-7.4v4.5h6.4
	c0.1,0,0.2,0,0.3,0.1c0.1,0.1,0.1,0.2,0.1,0.3c0,0.1,0,0.2-0.1,0.3c-0.1,0.1-0.2,0.1-0.3,0.1h-6.4v4.9c0,0.1,0,0.2-0.1,0.3
	c-0.1,0.1-0.2,0.1-0.3,0.1c-0.1,0-0.2,0-0.3-0.1c-0.1-0.1-0.1-0.2-0.1-0.3v-10.6c0-0.1,0-0.2,0.1-0.3c0.1-0.1,0.2-0.1,0.3-0.1H153.9
	z M129,379.5h4.7c0.4,0,0.8-0.1,1.1-0.2c0.4-0.2,0.7-0.4,0.9-0.6c0.3-0.3,0.5-0.6,0.6-0.9c0.2-0.4,0.2-0.7,0.2-1.1
	c0-0.4-0.1-0.8-0.2-1.1c-0.2-0.4-0.4-0.7-0.6-0.9c-0.3-0.3-0.6-0.5-0.9-0.6c-0.4-0.2-0.7-0.2-1.1-0.2H129V379.5z M137.6,383.7
	c0.1,0.1,0.1,0.2,0.1,0.3c0,0.1-0.1,0.2-0.1,0.3c-0.1,0.1-0.2,0.1-0.3,0.1c-0.1,0-0.2-0.1-0.3-0.1l-3.7-3.9H129v3.6
	c0,0.1,0,0.2-0.1,0.3c-0.1,0.1-0.2,0.1-0.3,0.1c-0.1,0-0.2,0-0.3-0.1c-0.1-0.1-0.1-0.2-0.1-0.3v-10.6c0-0.1,0-0.2,0.1-0.3
	c0.1-0.1,0.2-0.1,0.3-0.1h5.1c0.5,0,1,0.1,1.5,0.3c0.5,0.2,0.9,0.5,1.2,0.8c0.3,0.3,0.6,0.7,0.8,1.2c0.2,0.4,0.3,0.9,0.3,1.4
	c0,0.5-0.1,0.9-0.2,1.3c-0.2,0.4-0.4,0.8-0.7,1.1c-0.3,0.3-0.6,0.6-1,0.8c-0.4,0.2-0.8,0.4-1.2,0.4L137.6,383.7z M116.5,382.2
	c0.5,0.5,1.1,0.9,1.7,1.1c0.6,0.2,1.3,0.4,2,0.4c0.7,0,1.4-0.1,2-0.4c0.6-0.3,1.2-0.6,1.7-1.1c0.5-0.5,0.9-1,1.1-1.7
	c0.3-0.6,0.4-1.3,0.4-1.9c0-0.7-0.1-1.3-0.4-1.9c-0.3-0.6-0.6-1.2-1.1-1.6c-0.5-0.5-1.1-0.9-1.7-1.1c-0.6-0.3-1.3-0.4-2-0.4
	c-0.7,0-1.4,0.1-2,0.4c-0.6,0.3-1.2,0.6-1.7,1.1c-0.5,0.5-0.9,1-1.1,1.6c-0.3,0.6-0.4,1.3-0.4,1.9c0,0.7,0.1,1.3,0.4,1.9
	C115.6,381.2,116,381.7,116.5,382.2z M115.9,374.4c0.6-0.6,1.2-1,2-1.3c0.7-0.3,1.5-0.4,2.3-0.4c0.8,0,1.6,0.1,2.3,0.4
	c0.7,0.3,1.4,0.7,2,1.3c0.6,0.6,1,1.2,1.3,1.9c0.3,0.7,0.5,1.5,0.5,2.3c0,0.8-0.2,1.5-0.5,2.3c-0.3,0.7-0.7,1.4-1.3,1.9
	c-0.6,0.6-1.2,1-2,1.3c-0.7,0.3-1.5,0.4-2.3,0.4c-0.8,0-1.6-0.1-2.3-0.4c-0.7-0.3-1.4-0.7-2-1.3c-0.6-0.6-1-1.2-1.3-1.9
	c-0.3-0.7-0.4-1.5-0.4-2.3c0-0.8,0.1-1.5,0.4-2.3C114.9,375.6,115.3,375,115.9,374.4z M111.3,373.3c0-0.1,0-0.2,0.1-0.3
	c0.1-0.1,0.2-0.1,0.3-0.1c0.1,0,0.2,0,0.3,0.1c0.1,0.1,0.1,0.2,0.1,0.3v7.5c0,0.5-0.1,1-0.3,1.4c-0.2,0.5-0.5,0.9-0.8,1.2
	c-0.3,0.3-0.8,0.6-1.2,0.8c-0.5,0.2-1,0.3-1.5,0.3c-0.5,0-1-0.1-1.5-0.3c-0.5-0.2-0.9-0.5-1.2-0.8c-0.1-0.1-0.1-0.2-0.1-0.3
	c0-0.1,0-0.2,0.1-0.3c0.1-0.1,0.2-0.1,0.3-0.1c0.1,0,0.2,0,0.3,0.1c0.3,0.3,0.6,0.5,1,0.6c0.4,0.1,0.7,0.2,1.1,0.2
	c0.4,0,0.8-0.1,1.2-0.2c0.4-0.2,0.7-0.4,1-0.6c0.3-0.3,0.5-0.6,0.6-0.9c0.2-0.4,0.2-0.7,0.2-1.1V373.3z M104.3,383.5
	c0.1,0,0.2,0,0.3,0.1c0.1,0.1,0.1,0.2,0.1,0.3c0,0.1,0,0.2-0.1,0.3c-0.1,0.1-0.2,0.1-0.3,0.1h-7.8c-0.1,0-0.2,0-0.3-0.1
	c-0.1-0.1-0.1-0.2-0.1-0.3v-10.6c0-0.1,0-0.2,0.1-0.3c0.1-0.1,0.2-0.1,0.3-0.1h7.8c0.1,0,0.2,0,0.3,0.1c0.1,0.1,0.1,0.2,0.1,0.3
	c0,0.1,0,0.2-0.1,0.3c-0.1,0.1-0.2,0.1-0.3,0.1h-7.4v4.5h6.4c0.1,0,0.2,0,0.3,0.1c0.1,0.1,0.1,0.2,0.1,0.3c0,0.1,0,0.2-0.1,0.3
	c-0.1,0.1-0.2,0.1-0.3,0.1h-6.4v4.5H104.3z M92.7,373.1c0.1-0.2,0.3-0.2,0.4-0.1c0.1,0,0.2,0.1,0.2,0.1c0.1,0.1,0.1,0.1,0.1,0.2
	v10.6c0,0.1,0,0.2-0.1,0.3c-0.1,0.1-0.2,0.1-0.3,0.1c-0.1,0-0.2,0-0.3-0.1c-0.1-0.1-0.1-0.2-0.1-0.3v-9.4c-0.1,0.2-0.3,0.4-0.5,0.7
	c-0.2,0.3-0.4,0.6-0.7,0.9c-0.2,0.3-0.5,0.6-0.8,1c-0.3,0.3-0.5,0.7-0.8,1c-0.6,0.8-1.3,1.6-2,2.5c-0.1,0.1-0.2,0.1-0.3,0.1
	c-0.1,0-0.3,0-0.3-0.1c-0.7-0.9-1.4-1.7-2-2.5c-0.3-0.3-0.5-0.7-0.8-1c-0.3-0.3-0.5-0.7-0.8-1c-0.2-0.3-0.5-0.6-0.7-0.9
	c-0.2-0.3-0.4-0.5-0.5-0.7v9.4c0,0.1,0,0.2-0.1,0.3c-0.1,0.1-0.2,0.1-0.3,0.1c-0.1,0-0.2,0-0.3-0.1c-0.1-0.1-0.1-0.2-0.1-0.3v-10.6
	c0-0.1,0-0.2,0.1-0.2c0-0.1,0.1-0.1,0.2-0.1c0.2-0.1,0.3,0,0.5,0.1c0.9,1.1,1.7,2.1,2.4,3c0.3,0.4,0.6,0.8,0.9,1.1
	c0.3,0.4,0.6,0.7,0.9,1c0.3,0.3,0.5,0.6,0.7,0.8c0.2,0.2,0.3,0.4,0.4,0.5c0.1-0.1,0.2-0.2,0.4-0.5c0.2-0.2,0.4-0.5,0.7-0.8
	c0.3-0.3,0.5-0.7,0.8-1c0.3-0.4,0.6-0.8,0.9-1.1C91,375.2,91.8,374.2,92.7,373.1z M71.7,380.6c-0.3-0.6-0.7-1.3-1.1-2
	c-0.4-0.7-0.7-1.3-1-1.9c-0.3-0.6-0.6-1.1-0.8-1.6c-0.2-0.5-0.4-0.8-0.5-0.9c-0.1,0.2-0.3,0.5-0.5,0.9c-0.2,0.4-0.5,1-0.8,1.6
	c-0.3,0.6-0.7,1.2-1,1.9c-0.4,0.7-0.7,1.3-1.1,2H71.7z M74.3,383.7c0.1,0.1,0.1,0.2,0,0.3c0,0.1-0.1,0.2-0.2,0.2
	c-0.1,0.1-0.2,0.1-0.3,0c-0.1,0-0.2-0.1-0.2-0.2c-0.1-0.2-0.3-0.5-0.4-0.8c-0.1-0.2-0.3-0.5-0.4-0.8c-0.2-0.3-0.4-0.7-0.6-1h-7.7
	c-0.2,0.4-0.4,0.7-0.6,1c-0.2,0.3-0.3,0.6-0.4,0.8c-0.1,0.3-0.3,0.5-0.4,0.8c-0.1,0.1-0.1,0.2-0.2,0.2c-0.1,0-0.2,0-0.3,0
	c-0.1-0.1-0.2-0.1-0.2-0.2c0-0.1,0-0.2,0-0.3l5.6-10.6c0.1-0.2,0.2-0.2,0.4-0.2c0.2,0,0.3,0.1,0.4,0.2L74.3,383.7z M54.2,373.3
	c0-0.1,0-0.2,0.1-0.3c0.1-0.1,0.2-0.1,0.3-0.1c0.1,0,0.2,0,0.3,0.1c0.1,0.1,0.1,0.2,0.1,0.3v10.2h7.4c0.1,0,0.2,0,0.3,0.1
	c0.1,0.1,0.1,0.2,0.1,0.3c0,0.1,0,0.2-0.1,0.3c-0.1,0.1-0.2,0.1-0.3,0.1h-7.8c-0.1,0-0.2,0-0.3-0.1c-0.1-0.1-0.1-0.2-0.1-0.3V373.3z
	 M318.4,397.6c0.7-0.5,1.6-0.7,2.7-0.7c0.6,0,1.2,0.1,1.8,0.2c0.6,0.1,1.2,0.3,1.6,0.5c0.1,0,0.2,0.1,0.2,0.2c0,0.1,0,0.2,0,0.3
	c-0.1,0.1-0.1,0.2-0.2,0.2c-0.1,0-0.2,0-0.3,0c-0.4-0.2-0.9-0.3-1.5-0.4c-0.6-0.1-1.1-0.2-1.7-0.2c-0.5,0-0.9,0-1.3,0.1
	c-0.4,0.1-0.7,0.2-1,0.4c-0.6,0.4-0.9,0.9-0.9,1.6c0,0.6,0.3,1.1,0.9,1.4c0.5,0.3,1.3,0.6,2.3,0.7c1.4,0.2,2.5,0.6,3.3,1.2
	c0.8,0.6,1.1,1.3,1.1,2.2c0,1.1-0.5,1.9-1.4,2.5c-0.8,0.5-1.9,0.8-3.1,0.8c-1.6,0-3-0.4-4.1-1.3c-0.1-0.1-0.1-0.2-0.2-0.3
	c0-0.1,0-0.2,0.1-0.3c0.1-0.1,0.2-0.1,0.3-0.2c0.1,0,0.2,0,0.3,0.1c1,0.7,2.2,1.1,3.6,1.1c0.5,0,1-0.1,1.5-0.2
	c0.5-0.1,0.8-0.3,1.2-0.5c0.7-0.5,1-1.1,1-1.9c0-0.7-0.3-1.2-1-1.6c-0.3-0.2-0.7-0.4-1.2-0.5c-0.5-0.1-1-0.3-1.6-0.3
	c-1.1-0.2-2-0.4-2.7-0.8c-0.4-0.2-0.7-0.5-0.9-0.9c-0.2-0.4-0.3-0.8-0.3-1.3C317.2,398.9,317.6,398.1,318.4,397.6z M315,407.6
	c0.1,0,0.2,0,0.3,0.1c0.1,0.1,0.1,0.2,0.1,0.3c0,0.1,0,0.2-0.1,0.3c-0.1,0.1-0.2,0.1-0.3,0.1h-7.8c-0.1,0-0.2,0-0.3-0.1
	c-0.1-0.1-0.1-0.2-0.1-0.3v-10.6c0-0.1,0-0.2,0.1-0.3c0.1-0.1,0.2-0.1,0.3-0.1h7.8c0.1,0,0.2,0,0.3,0.1c0.1,0.1,0.1,0.2,0.1,0.3
	c0,0.1,0,0.2-0.1,0.3c-0.1,0.1-0.2,0.1-0.3,0.1h-7.4v4.5h6.4c0.1,0,0.2,0,0.3,0.1c0.1,0.1,0.1,0.2,0.1,0.3c0,0.1,0,0.2-0.1,0.3
	c-0.1,0.1-0.2,0.1-0.3,0.1h-6.4v4.5H315z M297.2,397.5c0-0.1,0-0.2,0.1-0.3c0.1-0.1,0.2-0.1,0.3-0.1s0.2,0,0.3,0.1
	c0.1,0.1,0.1,0.2,0.1,0.3v10.2h7.4c0.1,0,0.2,0,0.3,0.1c0.1,0.1,0.1,0.2,0.1,0.3c0,0.1,0,0.2-0.1,0.3c-0.1,0.1-0.2,0.1-0.3,0.1h-7.8
	c-0.1,0-0.2,0-0.3-0.1c-0.1-0.1-0.1-0.2-0.1-0.3V397.5z M293.4,404.8c-0.3-0.6-0.7-1.3-1.1-2c-0.4-0.7-0.7-1.3-1-1.9
	c-0.3-0.6-0.6-1.1-0.8-1.6c-0.2-0.5-0.4-0.8-0.5-0.9c-0.1,0.2-0.3,0.5-0.5,0.9c-0.2,0.4-0.5,1-0.8,1.6c-0.3,0.6-0.7,1.2-1,1.9
	c-0.4,0.7-0.7,1.3-1.1,2H293.4z M296,407.9c0.1,0.1,0.1,0.2,0,0.3c0,0.1-0.1,0.2-0.2,0.2c-0.1,0.1-0.2,0.1-0.3,0
	c-0.1,0-0.2-0.1-0.2-0.2c-0.1-0.2-0.3-0.5-0.4-0.8c-0.1-0.2-0.3-0.5-0.4-0.8c-0.2-0.3-0.4-0.7-0.6-1h-7.7c-0.2,0.4-0.4,0.7-0.6,1
	c-0.2,0.3-0.3,0.6-0.4,0.8c-0.1,0.3-0.3,0.5-0.4,0.8c-0.1,0.1-0.1,0.2-0.2,0.2c-0.1,0-0.2,0-0.3,0c-0.1-0.1-0.2-0.1-0.2-0.2
	c0-0.1,0-0.2,0-0.3l5.6-10.6c0.1-0.2,0.2-0.2,0.4-0.2c0.2,0,0.3,0.1,0.4,0.2L296,407.9z M282,397.5c0-0.1,0-0.2,0.1-0.3
	c0.1-0.1,0.2-0.1,0.3-0.1c0.1,0,0.2,0,0.3,0.1c0.1,0.1,0.1,0.2,0.1,0.3V408c0,0.1,0,0.2-0.1,0.3c-0.1,0.1-0.2,0.1-0.3,0.1
	c-0.1,0-0.2,0-0.3-0.1c-0.1-0.1-0.1-0.2-0.1-0.3V397.5z M271.3,398.6c0.6-0.6,1.2-1,2-1.3c0.7-0.3,1.5-0.4,2.3-0.4
	c0.8,0,1.6,0.1,2.3,0.4c0.7,0.3,1.4,0.7,2,1.3c0.1,0.1,0.1,0.2,0.1,0.3c0,0.1,0,0.2-0.1,0.3c-0.1,0.1-0.2,0.1-0.3,0.1
	c-0.1,0-0.2,0-0.3-0.1c-0.5-0.5-1.1-0.9-1.7-1.1c-0.6-0.3-1.3-0.4-2-0.4c-0.7,0-1.4,0.1-2,0.4c-0.6,0.3-1.2,0.6-1.7,1.1
	c-0.5,0.5-0.9,1-1.1,1.6c-0.3,0.6-0.4,1.3-0.4,1.9c0,0.7,0.1,1.3,0.4,1.9c0.3,0.6,0.6,1.2,1.1,1.7c0.5,0.5,1.1,0.9,1.7,1.1
	c0.6,0.2,1.3,0.4,2,0.4c0.7,0,1.4-0.1,2-0.4c0.6-0.3,1.2-0.6,1.7-1.1c0.1-0.1,0.2-0.1,0.3-0.1c0.1,0,0.2,0,0.3,0.1
	c0.1,0.1,0.1,0.2,0.1,0.3c0,0.1,0,0.2-0.1,0.3c-0.6,0.6-1.2,1-2,1.3c-0.7,0.3-1.5,0.4-2.3,0.4c-0.8,0-1.6-0.1-2.3-0.4
	c-0.7-0.3-1.4-0.7-2-1.3c-0.6-0.6-1-1.2-1.3-1.9c-0.3-0.7-0.5-1.5-0.5-2.3c0-0.8,0.2-1.5,0.5-2.3
	C270.3,399.8,270.8,399.1,271.3,398.6z M257.9,397.1c0.2-0.1,0.3,0,0.4,0.1c1.4,1.6,2.6,3,3.8,4.3c0.5,0.6,1,1.1,1.5,1.7
	c0.5,0.6,0.9,1.1,1.4,1.6c0.4,0.5,0.8,0.9,1.1,1.3c0.3,0.4,0.6,0.6,0.7,0.8v-9.5c0-0.1,0-0.2,0.1-0.3c0.1-0.1,0.2-0.1,0.3-0.1
	c0.1,0,0.2,0,0.3,0.1c0.1,0.1,0.1,0.2,0.1,0.3V408c0,0.2-0.1,0.3-0.3,0.4c-0.2,0.1-0.3,0-0.5-0.1c-1.4-1.6-2.6-3-3.7-4.3
	c-0.5-0.6-1-1.1-1.5-1.7c-0.5-0.6-0.9-1.1-1.4-1.6c-0.4-0.5-0.8-0.9-1.1-1.3c-0.3-0.4-0.6-0.6-0.7-0.8v9.5c0,0.1,0,0.2-0.1,0.3
	c-0.1,0.1-0.2,0.1-0.3,0.1c-0.1,0-0.2,0-0.3-0.1c-0.1-0.1-0.1-0.2-0.1-0.3v-10.6C257.6,397.3,257.7,397.2,257.9,397.1z M255.2,407.6
	c0.1,0,0.2,0,0.3,0.1c0.1,0.1,0.1,0.2,0.1,0.3c0,0.1,0,0.2-0.1,0.3c-0.1,0.1-0.2,0.1-0.3,0.1h-7.8c-0.1,0-0.2,0-0.3-0.1
	c-0.1-0.1-0.1-0.2-0.1-0.3v-10.6c0-0.1,0-0.2,0.1-0.3c0.1-0.1,0.2-0.1,0.3-0.1h7.8c0.1,0,0.2,0,0.3,0.1c0.1,0.1,0.1,0.2,0.1,0.3
	c0,0.1,0,0.2-0.1,0.3c-0.1,0.1-0.2,0.1-0.3,0.1h-7.4v4.5h6.4c0.1,0,0.2,0,0.3,0.1c0.1,0.1,0.1,0.2,0.1,0.3c0,0.1,0,0.2-0.1,0.3
	c-0.1,0.1-0.2,0.1-0.3,0.1h-6.4v4.5H255.2z M236.4,403.6h4.7c0.4,0,0.8-0.1,1.1-0.2c0.4-0.2,0.7-0.4,0.9-0.6
	c0.3-0.3,0.5-0.6,0.6-0.9c0.2-0.4,0.2-0.7,0.2-1.1c0-0.4-0.1-0.8-0.2-1.1c-0.2-0.4-0.4-0.7-0.6-0.9c-0.3-0.3-0.6-0.5-0.9-0.6
	c-0.4-0.2-0.7-0.2-1.1-0.2h-4.7V403.6z M244.9,407.8c0.1,0.1,0.1,0.2,0.1,0.3c0,0.1-0.1,0.2-0.1,0.3c-0.1,0.1-0.2,0.1-0.3,0.1
	c-0.1,0-0.2-0.1-0.3-0.1l-3.7-3.9h-4.2v3.6c0,0.1,0,0.2-0.1,0.3c-0.1,0.1-0.2,0.1-0.3,0.1c-0.1,0-0.2,0-0.3-0.1
	c-0.1-0.1-0.1-0.2-0.1-0.3v-10.6c0-0.1,0-0.2,0.1-0.3c0.1-0.1,0.2-0.1,0.3-0.1h5.1c0.5,0,1,0.1,1.5,0.3c0.5,0.2,0.9,0.5,1.2,0.8
	c0.3,0.3,0.6,0.7,0.8,1.2c0.2,0.4,0.3,0.9,0.3,1.4c0,0.5-0.1,0.9-0.2,1.3c-0.2,0.4-0.4,0.8-0.7,1.1c-0.3,0.3-0.6,0.6-1,0.8
	c-0.4,0.2-0.8,0.4-1.2,0.4L244.9,407.8z M233.1,407.6c0.1,0,0.2,0,0.3,0.1c0.1,0.1,0.1,0.2,0.1,0.3c0,0.1,0,0.2-0.1,0.3
	c-0.1,0.1-0.2,0.1-0.3,0.1h-7.8c-0.1,0-0.2,0-0.3-0.1c-0.1-0.1-0.1-0.2-0.1-0.3v-10.6c0-0.1,0-0.2,0.1-0.3c0.1-0.1,0.2-0.1,0.3-0.1
	h7.8c0.1,0,0.2,0,0.3,0.1c0.1,0.1,0.1,0.2,0.1,0.3c0,0.1,0,0.2-0.1,0.3c-0.1,0.1-0.2,0.1-0.3,0.1h-7.4v4.5h6.4c0.1,0,0.2,0,0.3,0.1
	c0.1,0.1,0.1,0.2,0.1,0.3c0,0.1,0,0.2-0.1,0.3c-0.1,0.1-0.2,0.1-0.3,0.1h-6.4v4.5H233.1z M223.2,397.1c0.1,0,0.2,0,0.3,0.1
	c0.1,0.1,0.1,0.2,0.1,0.3c0,0.1,0,0.2-0.1,0.3c-0.1,0.1-0.2,0.1-0.3,0.1h-7.4v4.5h6.4c0.1,0,0.2,0,0.3,0.1c0.1,0.1,0.1,0.2,0.1,0.3
	c0,0.1,0,0.2-0.1,0.3c-0.1,0.1-0.2,0.1-0.3,0.1h-6.4v4.9c0,0.1,0,0.2-0.1,0.3c-0.1,0.1-0.2,0.1-0.3,0.1c-0.1,0-0.2,0-0.3-0.1
	c-0.1-0.1-0.1-0.2-0.1-0.3v-10.6c0-0.1,0-0.2,0.1-0.3c0.1-0.1,0.2-0.1,0.3-0.1H223.2z M212.7,407.6c0.1,0,0.2,0,0.3,0.1
	c0.1,0.1,0.1,0.2,0.1,0.3c0,0.1,0,0.2-0.1,0.3c-0.1,0.1-0.2,0.1-0.3,0.1h-7.8c-0.1,0-0.2,0-0.3-0.1c-0.1-0.1-0.1-0.2-0.1-0.3v-10.6
	c0-0.1,0-0.2,0.1-0.3c0.1-0.1,0.2-0.1,0.3-0.1h7.8c0.1,0,0.2,0,0.3,0.1c0.1,0.1,0.1,0.2,0.1,0.3c0,0.1,0,0.2-0.1,0.3
	c-0.1,0.1-0.2,0.1-0.3,0.1h-7.4v4.5h6.4c0.1,0,0.2,0,0.3,0.1c0.1,0.1,0.1,0.2,0.1,0.3c0,0.1,0,0.2-0.1,0.3c-0.1,0.1-0.2,0.1-0.3,0.1
	h-6.4v4.5H212.7z M193.8,403.6h4.7c0.4,0,0.8-0.1,1.1-0.2c0.4-0.2,0.7-0.4,0.9-0.6c0.3-0.3,0.5-0.6,0.6-0.9c0.2-0.4,0.2-0.7,0.2-1.1
	c0-0.4-0.1-0.8-0.2-1.1c-0.2-0.4-0.4-0.7-0.6-0.9c-0.3-0.3-0.6-0.5-0.9-0.6c-0.4-0.2-0.7-0.2-1.1-0.2h-4.7V403.6z M202.4,407.8
	c0.1,0.1,0.1,0.2,0.1,0.3c0,0.1-0.1,0.2-0.1,0.3c-0.1,0.1-0.2,0.1-0.3,0.1c-0.1,0-0.2-0.1-0.3-0.1l-3.7-3.9h-4.2v3.6
	c0,0.1,0,0.2-0.1,0.3c-0.1,0.1-0.2,0.1-0.3,0.1c-0.1,0-0.2,0-0.3-0.1c-0.1-0.1-0.1-0.2-0.1-0.3v-10.6c0-0.1,0-0.2,0.1-0.3
	c0.1-0.1,0.2-0.1,0.3-0.1h5.1c0.5,0,1,0.1,1.5,0.3c0.5,0.2,0.9,0.5,1.2,0.8s0.6,0.7,0.8,1.2c0.2,0.4,0.3,0.9,0.3,1.4
	c0,0.5-0.1,0.9-0.2,1.3c-0.2,0.4-0.4,0.8-0.7,1.1c-0.3,0.3-0.6,0.6-1,0.8c-0.4,0.2-0.8,0.4-1.2,0.4L202.4,407.8z M182.9,397.9v5.8
	h4.7c0.4,0,0.8-0.1,1.1-0.2c0.4-0.2,0.7-0.4,0.9-0.6c0.3-0.3,0.5-0.6,0.6-0.9c0.2-0.4,0.2-0.7,0.2-1.1c0-0.4-0.1-0.8-0.2-1.1
	c-0.2-0.4-0.4-0.7-0.6-0.9c-0.3-0.3-0.6-0.5-0.9-0.6c-0.4-0.2-0.7-0.2-1.1-0.2H182.9z M187.6,397.1c0.5,0,1,0.1,1.5,0.3
	c0.5,0.2,0.9,0.5,1.2,0.8c0.3,0.3,0.6,0.7,0.8,1.2c0.2,0.4,0.3,0.9,0.3,1.4c0,0.5-0.1,1-0.3,1.4c-0.2,0.4-0.5,0.8-0.8,1.2
	c-0.3,0.3-0.7,0.6-1.2,0.8c-0.5,0.2-0.9,0.3-1.5,0.3h-4.7v3.6c0,0.1,0,0.2-0.1,0.3c-0.1,0.1-0.2,0.1-0.3,0.1c-0.1,0-0.2,0-0.3-0.1
	c-0.1-0.1-0.1-0.2-0.1-0.3v-10.6c0-0.1,0-0.2,0.1-0.3c0.1-0.1,0.2-0.1,0.3-0.1H187.6z M166.7,397.6c0.7-0.5,1.6-0.7,2.7-0.7
	c0.6,0,1.2,0.1,1.8,0.2c0.6,0.1,1.2,0.3,1.6,0.5c0.1,0,0.2,0.1,0.2,0.2c0,0.1,0,0.2,0,0.3c-0.1,0.1-0.1,0.2-0.2,0.2
	c-0.1,0-0.2,0-0.3,0c-0.4-0.2-0.9-0.3-1.5-0.4c-0.6-0.1-1.1-0.2-1.7-0.2c-0.5,0-0.9,0-1.3,0.1c-0.4,0.1-0.7,0.2-1,0.4
	c-0.6,0.4-0.9,0.9-0.9,1.6c0,0.6,0.3,1.1,0.9,1.4c0.5,0.3,1.3,0.6,2.3,0.7c1.4,0.2,2.5,0.6,3.3,1.2c0.8,0.6,1.1,1.3,1.1,2.2
	c0,1.1-0.5,1.9-1.4,2.5c-0.8,0.5-1.9,0.8-3.1,0.8c-1.6,0-3-0.4-4.1-1.3c-0.1-0.1-0.1-0.2-0.2-0.3c0-0.1,0-0.2,0.1-0.3
	c0.1-0.1,0.2-0.1,0.3-0.2c0.1,0,0.2,0,0.3,0.1c1,0.7,2.2,1.1,3.6,1.1c0.5,0,1-0.1,1.5-0.2c0.5-0.1,0.8-0.3,1.2-0.5
	c0.7-0.5,1-1.1,1-1.9c0-0.7-0.3-1.2-1-1.6c-0.3-0.2-0.7-0.4-1.2-0.5c-0.5-0.1-1-0.3-1.6-0.3c-1.1-0.2-2-0.4-2.7-0.8
	c-0.4-0.2-0.7-0.5-0.9-0.9c-0.2-0.4-0.3-0.8-0.3-1.3C165.5,398.9,165.9,398.1,166.7,397.6z M161.9,404.8c-0.3-0.6-0.7-1.3-1.1-2
	c-0.4-0.7-0.7-1.3-1-1.9c-0.3-0.6-0.6-1.1-0.8-1.6c-0.2-0.5-0.4-0.8-0.5-0.9c-0.1,0.2-0.3,0.5-0.5,0.9c-0.2,0.4-0.5,1-0.8,1.6
	c-0.3,0.6-0.7,1.2-1,1.9c-0.4,0.7-0.7,1.3-1.1,2H161.9z M164.4,407.9c0.1,0.1,0.1,0.2,0,0.3c0,0.1-0.1,0.2-0.2,0.2
	c-0.1,0.1-0.2,0.1-0.3,0c-0.1,0-0.2-0.1-0.2-0.2c-0.1-0.2-0.3-0.5-0.4-0.8c-0.1-0.2-0.3-0.5-0.4-0.8c-0.2-0.3-0.4-0.7-0.6-1h-7.7
	c-0.2,0.4-0.4,0.7-0.6,1c-0.2,0.3-0.3,0.6-0.4,0.8c-0.1,0.3-0.3,0.5-0.4,0.8c-0.1,0.1-0.1,0.2-0.2,0.2c-0.1,0-0.2,0-0.3,0
	c-0.1-0.1-0.2-0.1-0.2-0.2c0-0.1,0-0.2,0-0.3l5.6-10.6c0.1-0.2,0.2-0.2,0.4-0.2c0.2,0,0.3,0.1,0.4,0.2L164.4,407.9z M144.5,397.6
	c0.7-0.5,1.6-0.7,2.7-0.7c0.6,0,1.2,0.1,1.8,0.2c0.6,0.1,1.2,0.3,1.6,0.5c0.1,0,0.2,0.1,0.2,0.2c0,0.1,0,0.2,0,0.3
	c-0.1,0.1-0.1,0.2-0.2,0.2c-0.1,0-0.2,0-0.3,0c-0.4-0.2-0.9-0.3-1.5-0.4c-0.6-0.1-1.1-0.2-1.7-0.2c-0.5,0-0.9,0-1.3,0.1
	c-0.4,0.1-0.7,0.2-1,0.4c-0.6,0.4-0.9,0.9-0.9,1.6c0,0.6,0.3,1.1,0.9,1.4c0.5,0.3,1.3,0.6,2.3,0.7c1.4,0.2,2.5,0.6,3.3,1.2
	c0.8,0.6,1.1,1.3,1.1,2.2c0,1.1-0.5,1.9-1.4,2.5c-0.8,0.5-1.9,0.8-3.1,0.8c-1.6,0-3-0.4-4.1-1.3c-0.1-0.1-0.1-0.2-0.2-0.3
	c0-0.1,0-0.2,0.1-0.3c0.1-0.1,0.2-0.1,0.3-0.2c0.1,0,0.2,0,0.3,0.1c1,0.7,2.2,1.1,3.6,1.1c0.5,0,1-0.1,1.5-0.2
	c0.5-0.1,0.8-0.3,1.2-0.5c0.7-0.5,1-1.1,1-1.9c0-0.7-0.3-1.2-1-1.6c-0.3-0.2-0.7-0.4-1.2-0.5c-0.5-0.1-1-0.3-1.6-0.3
	c-1.1-0.2-2-0.4-2.7-0.8c-0.4-0.2-0.7-0.5-0.9-0.9c-0.2-0.4-0.3-0.8-0.3-1.3C143.3,398.9,143.7,398.1,144.5,397.6z M139.7,404.8
	c-0.3-0.6-0.7-1.3-1.1-2c-0.4-0.7-0.7-1.3-1-1.9c-0.3-0.6-0.6-1.1-0.8-1.6c-0.2-0.5-0.4-0.8-0.5-0.9c-0.1,0.2-0.3,0.5-0.5,0.9
	c-0.2,0.4-0.5,1-0.8,1.6c-0.3,0.6-0.7,1.2-1,1.9c-0.4,0.7-0.7,1.3-1.1,2H139.7z M142.3,407.9c0.1,0.1,0.1,0.2,0,0.3
	c0,0.1-0.1,0.2-0.2,0.2c-0.1,0.1-0.2,0.1-0.3,0c-0.1,0-0.2-0.1-0.2-0.2c-0.1-0.2-0.3-0.5-0.4-0.8c-0.1-0.2-0.3-0.5-0.4-0.8
	c-0.2-0.3-0.4-0.7-0.6-1h-7.7c-0.2,0.4-0.4,0.7-0.6,1c-0.2,0.3-0.3,0.6-0.4,0.8c-0.1,0.3-0.3,0.5-0.4,0.8c-0.1,0.1-0.1,0.2-0.2,0.2
	c-0.1,0-0.2,0-0.3,0c-0.1-0.1-0.2-0.1-0.2-0.2c0-0.1,0-0.2,0-0.3l5.6-10.6c0.1-0.2,0.2-0.2,0.4-0.2c0.2,0,0.3,0.1,0.4,0.2
	L142.3,407.9z M131.5,397.1c0.1,0,0.2,0,0.3,0.1c0.1,0.1,0.1,0.2,0.1,0.3c0,0.1,0,0.2-0.1,0.3c-0.1,0.1-0.2,0.1-0.3,0.1h-4V408
	c0,0.1,0,0.2-0.1,0.3c-0.1,0.1-0.2,0.1-0.3,0.1c-0.1,0-0.2,0-0.3-0.1c-0.1-0.1-0.1-0.2-0.1-0.3v-10.2h-4c-0.1,0-0.2,0-0.3-0.1
	c-0.1-0.1-0.1-0.2-0.1-0.3c0-0.1,0-0.2,0.1-0.3c0.1-0.1,0.2-0.1,0.3-0.1H131.5z M55.3,217.9c0.1,0,0.2,0,0.3,0.1
	c0.1,0.1,0.1,0.2,0.1,0.3c0,0.1,0,0.2-0.1,0.3c-0.1,0.1-0.2,0.1-0.3,0.1h-7.8v4.8h6.8c0.1,0,0.2,0,0.3,0.1c0.1,0.1,0.1,0.2,0.1,0.3
	c0,0.1,0,0.2-0.1,0.3c-0.1,0.1-0.2,0.1-0.3,0.1h-6.8v5.2c0,0.1,0,0.2-0.1,0.3c-0.1,0.1-0.2,0.1-0.3,0.1c-0.1,0-0.2,0-0.3-0.1
	c-0.1-0.1-0.1-0.2-0.1-0.3v-11.2c0-0.1,0-0.2,0.1-0.3c0.1-0.1,0.2-0.1,0.3-0.1H55.3z M89.4,256.7h269.2v86.1H89.4V256.7z"/>
</g>


<g>
	<path class="faceHover" d="M356.3,11h-46.7c-6.4,0-11.7,5.2-11.7,11.6v46.6c0,6.4,5.2,11.6,11.7,11.6c59.5,0,5.7,0,46.7,0 c6.5,0,11.7-5.2,11.7-11.6V22.6C368,16.2,362.8,11,356.3,11"/>
	<path class="face" d="M356.3,11h-46.7c-6.4,0-11.7,5.2-11.7,11.6v46.6c0,6.4,5.2,11.6,11.7,11.6h24.8V56.1h-8.7V45.9h8.7v-7.3 c0-10.2,5.8-16,14.6-16c4.6,0,7.3,1.5,7.3,1.5v8.7h-5.8c-4.2,0-5.8,3-5.8,5.8v7.3h10.2l-1.5,10.2h-8.8v24.7h11.7 c6.5,0,11.7-5.2,11.7-11.6V22.6C368,16.2,362.8,11,356.3,11"/>
</g>
<path class="instaHover" d="M209.7,11c-11.4,0-20.7,9.3-20.7,20.6v28.6c0,11.4,9.3,20.6,20.7,20.6h28.7c11.4,0,20.7-9.3,20.7-20.6V31.6 c0-11.4-9.3-20.6-20.7-20.6H209.7z"/>
<path class="whastHover" d="M115,11c-19.3,0-35,15.7-35,34.9c0,6,1.6,11.9,4.5,17.1l-4.5,15.8c-0.3,1.1,0.7,2.2,1.8,1.9l16.6-4.1 c5.1,2.7,10.8,4.1,16.5,4.1c19.3,0,35-15.7,35-34.9C150.1,26.7,134.3,11,115,11"/>

<path class="insta" d="M209.7,11c-11.4,0-20.7,9.3-20.7,20.6v28.6c0,11.4,9.3,20.6,20.7,20.6h28.7c11.4,0,20.7-9.3,20.7-20.6V31.6 c0-11.4-9.3-20.6-20.7-20.6H209.7z M243.1,23.7c1.8,0,3.2,1.4,3.2,3.2c0,1.7-1.4,3.2-3.2,3.2c-1.7,0-3.2-1.4-3.2-3.2 C239.9,25.1,241.4,23.7,243.1,23.7z M224,28.5c9.7,0,17.5,7.8,17.5,17.5c0,9.6-7.8,17.5-17.5,17.5c-9.7,0-17.5-7.8-17.5-17.5 C206.5,36.3,214.3,28.5,224,28.5z M224,31.6c-7.9,0-14.3,6.4-14.3,14.3c0,7.9,6.4,14.3,14.3,14.3c7.9,0,14.3-6.4,14.3-14.3 C238.3,38.1,231.9,31.6,224,31.6z"/>
<path class="whast" d="M115,11c-19.3,0-35,15.7-35,34.9c0,6,1.6,11.9,4.5,17.1l-4.5,15.8c-0.3,1.1,0.7,2.2,1.8,1.9l16.6-4.1 c5.1,2.7,10.8,4.1,16.5,4.1c19.3,0,35-15.7,35-34.9C150.1,26.7,134.3,11,115,11 M126.6,62.5c-10.8,1.6-29.8-13.9-29.8-24.7 c0-7.2,7.5-11.2,9.3-6.9c0.6,1.3,3.4,7,2.8,8.1c-0.9,1.7-3.5,3.5-2.6,4.8c1.7,2.8,11.5,13.4,14.2,10.3c1.5-1.7,2.8-4.7,4.9-3.9 c0.8,0.3,7.5,3.3,7.9,3.9C135,56.9,130.2,61.9,126.6,62.5z"/>


<style type="text/css">
	.st0{fill-rule:evenodd;clip-rule:evenodd;fill:#FF00FF;opacity: 0;}
	.st1{fill:white;filter: drop-shadow(0px 2px 10px black);}
	.st2{fill-rule:evenodd;clip-rule:evenodd;fill:#6C87B4;}
	.st3{fill-rule:evenodd;clip-rule:evenodd;fill:#838382;}
	.face,.insta,.whast{fill:white;transition: 0.5s;cursor: pointer;}
	.faceHover,.instaHover,.whastHover{fill:transparent;cursor: pointer;}
	.face:hover,.insta:hover,.whast:hover{fill: #1F3973;filter: drop-shadow(0px 0px 10px gainsboro);}

	
	.faceHover:hover ~ .face{
		fill: #1F3973 ;filter: drop-shadow(0px 0px 10px gainsboro);
	}
	.instaHover:hover ~ .insta{
		fill: #1F3973 ;filter: drop-shadow(0px 0px 10px gainsboro);
	}
	.whastHover:hover ~ .whast{
		fill: #1F3973 ;filter: drop-shadow(0px 0px 10px gainsboro);
	}
</style>
<script>
	const face = document.querySelector(".face")
	const insta = document.querySelector(".insta")
	const whast = document.querySelector(".whast")
	const faceHover = document.querySelector(".faceHover")
	const instaHover = document.querySelector(".instaHover")
	const whastHover = document.querySelector(".whastHover")
	whast.addEventListener("click", ()=>window.open("https://wa.me/595994441044", '_blank'))
	whastHover.addEventListener("click", ()=>window.open("https://wa.me/595994441044", '_blank'))
	insta.addEventListener("click", ()=>window.open("https://www.instagram.com/torreboggiani/?igsh=MXI4eHh2Mng2MXVycw%3D%3D", '_blank'))
	instaHover.addEventListener("click", ()=>window.open("https://www.instagram.com/torreboggiani/?igsh=MXI4eHh2Mng2MXVycw%3D%3D", '_blank'))
	face.addEventListener("click", ()=>window.open("https://www.facebook.com/profile.php?id=100069916925603", '_blank'))
	faceHover.addEventListener("click", ()=>window.open("https://www.facebook.com/profile.php?id=100069916925603", '_blank'))
</script>

</svg>
