<?xml version="1.0" encoding="utf-8"?>
<!-- Generator: Adobe Illustrator 27.9.0, SVG Export Plug-In . SVG Version: 6.00 Build 0)  -->
<svg version="1.1" id="Layer_1" xmlns="http://www.w3.org/2000/svg" xmlns:xlink="http://www.w3.org/1999/xlink" x="0px" y="0px"
	 viewBox="0 0 500 500" style="enable-background:new 0 0 500 500;" xml:space="preserve">
<style type="text/css">
	/* .st0{fill-rule:evenodd;clip-rule:evenodd;fill:#AD9143;stroke-width: 15px;stroke: #1F3973;} */
	.st0{fill-rule:evenodd;clip-rule:evenodd;fill:#1F3973;stroke-width: 15px;stroke: #AD9143;}
	.st1{fill:#DADDDA;}
	.st2{fill-rule:evenodd;clip-rule:evenodd;fill:#B0B4B4;}
	.st3{fill-rule:evenodd;clip-rule:evenodd;fill:#DADDDA;}
</style>
<path class="st0" d="M249,26c124.3,0,225,100.7,225,225c0,124.3-100.7,225-225,225C124.7,476,24,375.3,24,251
	C24,126.7,124.7,26,249,26"/>
<path class="st1" d="M298.1,160.2c0.9,0,1.6,0.3,2.2,0.9c0.6,0.6,0.9,1.3,0.9,2.2c0,0.9-0.3,1.6-0.9,2.2c-0.6,0.6-1.3,0.9-2.2,0.9
	h-27c-0.8,0-1.6-0.3-2.2-0.9c-0.6-0.6-0.9-1.3-0.9-2.2v-36.9c0-0.8,0.3-1.5,0.9-2.2c0.6-0.6,1.4-0.9,2.2-0.9h27
	c0.9,0,1.6,0.3,2.2,0.9c0.6,0.6,0.9,1.3,0.9,2.2c0,0.9-0.3,1.6-0.9,2.2c-0.6,0.6-1.3,0.9-2.2,0.9h-23.9v12.3h20.6
	c0.9,0,1.6,0.3,2.2,0.9c0.6,0.6,0.9,1.3,0.9,2.2c0,0.9-0.3,1.6-0.9,2.2c-0.6,0.6-1.3,0.9-2.2,0.9h-20.6v12.3H298.1z M231.3,146.3
	h14.6c1.2,0,2.3-0.2,3.3-0.6c1-0.4,2-1,2.7-1.8c0.8-0.8,1.4-1.6,1.8-2.7c0.4-1,0.7-2.1,0.7-3.3c0-1.1-0.2-2.2-0.7-3.3
	c-0.4-1-1-1.9-1.8-2.7c-0.8-0.8-1.7-1.4-2.7-1.8c-1-0.4-2.2-0.6-3.3-0.6h-14.6V146.3z M260.6,161.4c0.6,0.6,0.9,1.4,0.8,2.2
	c0,0.9-0.4,1.6-1,2.2c-0.7,0.6-1.4,0.8-2.3,0.8c-0.9,0-1.6-0.4-2.2-1l-12.4-13.2h-12.2v10.9c0,0.9-0.3,1.6-0.9,2.2
	c-0.6,0.6-1.4,0.9-2.2,0.9c-0.9,0-1.6-0.3-2.2-0.9s-0.9-1.3-0.9-2.2v-36.9c0-0.8,0.3-1.5,0.9-2.2c0.6-0.6,1.3-0.9,2.2-0.9h17.7
	c2,0,4,0.4,5.8,1.1c1.8,0.8,3.4,1.8,4.7,3.1c1.3,1.3,2.4,2.9,3.2,4.6c0.8,1.8,1.2,3.6,1.2,5.7c0,1.6-0.2,3-0.7,4.4
	c-0.5,1.4-1.1,2.7-2,3.8c-0.9,1.2-1.9,2.2-3,3.1c-1.1,0.9-2.4,1.6-3.8,2.2L260.6,161.4z M188.4,146.3H203c1.2,0,2.3-0.2,3.3-0.6
	c1-0.4,2-1,2.7-1.8c0.8-0.8,1.4-1.6,1.8-2.7c0.4-1,0.7-2.1,0.7-3.3c0-1.1-0.2-2.2-0.7-3.3s-1-1.9-1.8-2.7c-0.8-0.8-1.7-1.4-2.7-1.8
	c-1-0.4-2.2-0.6-3.3-0.6h-14.6V146.3z M217.7,161.4c0.6,0.6,0.9,1.4,0.8,2.2c0,0.9-0.4,1.6-1,2.2c-0.7,0.6-1.4,0.8-2.3,0.8
	c-0.9,0-1.6-0.4-2.2-1l-12.4-13.2h-12.2v10.9c0,0.9-0.3,1.6-0.9,2.2c-0.6,0.6-1.4,0.9-2.2,0.9c-0.9,0-1.6-0.3-2.2-0.9
	c-0.6-0.6-0.9-1.3-0.9-2.2v-36.9c0-0.8,0.3-1.5,0.9-2.2c0.6-0.6,1.3-0.9,2.2-0.9H203c2,0,4,0.4,5.8,1.1c1.8,0.8,3.4,1.8,4.7,3.1
	c1.3,1.3,2.4,2.9,3.2,4.6c0.8,1.8,1.2,3.6,1.2,5.7c0,1.6-0.2,3-0.7,4.4c-0.5,1.4-1.1,2.7-2,3.8c-0.9,1.2-1.9,2.2-3,3.1
	c-1.1,0.9-2.4,1.6-3.8,2.2L217.7,161.4z M141.5,156.3c1.6,1.5,3.4,2.7,5.4,3.5c2,0.8,4.1,1.2,6.3,1.2c2.2,0,4.3-0.4,6.3-1.2
	c2-0.8,3.8-2,5.3-3.5c1.6-1.6,2.8-3.3,3.6-5.3c0.8-1.9,1.2-4,1.2-6.2c0-2.2-0.4-4.2-1.2-6.2c-0.8-1.9-2-3.7-3.6-5.2
	c-1.5-1.6-3.3-2.7-5.3-3.5c-2-0.8-4.1-1.2-6.3-1.2c-2.2,0-4.3,0.4-6.3,1.2c-2,0.8-3.8,2-5.4,3.5c-1.5,1.5-2.7,3.2-3.5,5.2
	c-0.8,1.9-1.2,4-1.2,6.2c0,2.2,0.4,4.2,1.2,6.2C138.7,153,139.9,154.7,141.5,156.3z M144.3,124.3c2.9-1.1,5.9-1.7,8.8-1.7
	c3,0,5.9,0.6,8.8,1.7c2.8,1.2,5.2,2.8,7.2,4.8c2,2,3.7,4.4,4.9,7.1c1.2,2.7,1.8,5.6,1.8,8.7c0,3.1-0.6,6-1.8,8.7
	c-1.2,2.7-2.8,5.1-4.9,7.1c-2,2-4.5,3.6-7.2,4.8s-5.7,1.7-8.8,1.7c-3.1,0-6.1-0.6-8.8-1.7c-2.8-1.1-5.2-2.7-7.2-4.8
	c-2.1-2.1-3.8-4.4-4.9-7.1c-1.2-2.7-1.8-5.6-1.8-8.7c0-3.1,0.6-6,1.8-8.7c1.1-2.6,2.8-5,4.9-7.1
	C139.1,127.1,141.5,125.5,144.3,124.3z M129.5,123.3c0.8,0,1.6,0.3,2.2,0.9c0.6,0.6,0.9,1.3,0.9,2.2c0,0.9-0.3,1.6-0.9,2.2
	c-0.6,0.6-1.4,0.9-2.2,0.9h-12.2v33.8c0,0.9-0.3,1.6-0.9,2.2c-0.6,0.6-1.3,0.9-2.2,0.9c-0.9,0-1.6-0.3-2.2-0.9
	c-0.6-0.6-0.9-1.3-0.9-2.2v-33.8H98.9c-0.9,0-1.6-0.3-2.2-0.9c-0.6-0.6-0.9-1.3-0.9-2.2c0-0.8,0.3-1.5,0.9-2.2
	c0.6-0.6,1.3-0.9,2.2-0.9H129.5z"/>
<path class="st1" d="M296.8,325.9h9.7c0.8,0,1.5-0.1,2.2-0.4c0.7-0.3,1.3-0.7,1.8-1.2c0.5-0.5,0.9-1.1,1.2-1.8
	c0.3-0.7,0.4-1.4,0.4-2.2c0-0.8-0.1-1.5-0.4-2.2c-0.3-0.7-0.7-1.3-1.2-1.8c-0.5-0.5-1.1-0.9-1.8-1.2c-0.7-0.3-1.4-0.4-2.2-0.4h-9.7
	V325.9z M316.3,336.1c0.4,0.4,0.6,0.9,0.5,1.5c0,0.6-0.3,1.1-0.7,1.4c-0.4,0.4-1,0.6-1.5,0.5c-0.6,0-1.1-0.2-1.4-0.7l-8.3-8.8h-8.2
	v7.3c0,0.6-0.2,1.1-0.6,1.5c-0.4,0.4-0.9,0.6-1.5,0.6c-0.6,0-1.1-0.2-1.5-0.6c-0.4-0.4-0.6-0.9-0.6-1.5v-24.6c0-0.5,0.2-1,0.6-1.4
	c0.4-0.4,0.9-0.6,1.5-0.6h11.8c1.4,0,2.7,0.3,3.9,0.8c1.2,0.5,2.2,1.2,3.1,2.1c0.9,0.9,1.6,1.9,2.1,3.1c0.5,1.2,0.8,2.4,0.8,3.8
	c0,1-0.2,2-0.5,3c-0.3,0.9-0.7,1.8-1.3,2.6c-0.6,0.8-1.2,1.5-2,2.1c-0.8,0.6-1.6,1.1-2.5,1.4L316.3,336.1z M263.5,332.6
	c1.1,1,2.3,1.8,3.6,2.3c1.3,0.5,2.7,0.8,4.2,0.8c1.5,0,2.9-0.3,4.2-0.8c1.3-0.5,2.5-1.3,3.5-2.3c1.1-1,1.9-2.2,2.4-3.5
	c0.5-1.3,0.8-2.7,0.8-4.1c0-1.4-0.3-2.8-0.8-4.1c-0.5-1.3-1.3-2.5-2.4-3.5c-1-1-2.2-1.8-3.5-2.4c-1.3-0.5-2.7-0.8-4.2-0.8
	c-1.5,0-2.9,0.3-4.2,0.8c-1.3,0.5-2.5,1.3-3.6,2.4c-1,1-1.8,2.2-2.4,3.5c-0.5,1.3-0.8,2.7-0.8,4.1c0,1.4,0.3,2.8,0.8,4.1
	C261.6,330.4,262.4,331.6,263.5,332.6z M265.3,311.3c2-0.8,3.9-1.1,5.9-1.1c2,0,3.9,0.4,5.9,1.1c1.8,0.8,3.4,1.9,4.8,3.2
	c1.4,1.3,2.5,2.9,3.3,4.7c0.8,1.8,1.2,3.7,1.2,5.8c0,2.1-0.4,4-1.2,5.8c-0.8,1.8-1.9,3.4-3.3,4.7c-1.4,1.4-3,2.4-4.8,3.2
	c-1.8,0.8-3.8,1.1-5.9,1.1c-2.1,0-4.1-0.4-5.9-1.1c-1.8-0.8-3.4-1.8-4.8-3.2c-1.4-1.4-2.5-3-3.3-4.7c-0.8-1.8-1.2-3.7-1.2-5.8
	c0-2.1,0.4-4,1.2-5.8c0.8-1.8,1.8-3.3,3.3-4.7C261.9,313.1,263.5,312.1,265.3,311.3z M245.9,312.7c0-0.5,0.2-1,0.6-1.4
	s0.9-0.6,1.5-0.6c0.6,0,1.1,0.2,1.5,0.6c0.4,0.4,0.6,0.9,0.6,1.4V330c0,1.4-0.3,2.6-0.8,3.8c-0.5,1.2-1.2,2.2-2.1,3.1
	c-0.9,0.9-2,1.6-3.2,2.1c-1.2,0.5-2.5,0.8-3.9,0.8c-1.3,0-2.6-0.2-3.8-0.7c-1.2-0.5-2.3-1.2-3.2-2.2c-0.4-0.4-0.6-0.9-0.6-1.4
	c0-0.6,0.2-1.1,0.6-1.4c0.4-0.4,0.9-0.6,1.5-0.6c0.6,0,1.1,0.2,1.5,0.6c1.1,1.1,2.5,1.6,4.1,1.6c0.8,0,1.6-0.2,2.3-0.5
	c0.7-0.3,1.3-0.7,1.8-1.2c0.5-0.5,0.9-1.1,1.2-1.8c0.3-0.7,0.5-1.4,0.5-2.2V312.7z M226.6,335.2c0.6,0,1.1,0.2,1.5,0.6
	c0.4,0.4,0.6,0.9,0.6,1.5c0,0.6-0.2,1.1-0.6,1.5c-0.4,0.4-0.9,0.6-1.5,0.6h-18c-0.6,0-1-0.2-1.5-0.6c-0.4-0.4-0.6-0.9-0.6-1.5v-24.6
	c0-0.5,0.2-1,0.6-1.4c0.4-0.4,0.9-0.6,1.5-0.6h18c0.6,0,1.1,0.2,1.5,0.6c0.4,0.4,0.6,0.9,0.6,1.4c0,0.6-0.2,1.1-0.6,1.5
	c-0.4,0.4-0.9,0.6-1.5,0.6h-16v8.2h13.8c0.6,0,1.1,0.2,1.5,0.6c0.4,0.4,0.6,0.9,0.6,1.4c0,0.6-0.2,1.1-0.6,1.5
	c-0.4,0.4-0.9,0.6-1.5,0.6h-13.8v8.2H226.6z M195,311.4c0.3-0.3,0.7-0.6,1.1-0.7c0.4-0.1,0.8-0.1,1.3,0c0.4,0.1,0.8,0.4,1,0.7
	c0.3,0.4,0.4,0.8,0.4,1.2v24.6c0,0.6-0.2,1.1-0.6,1.5c-0.4,0.4-0.9,0.6-1.5,0.6c-0.6,0-1.1-0.2-1.5-0.6c-0.4-0.4-0.6-0.9-0.6-1.5
	v-18.7c-1,1.2-2,2.4-3.1,3.7c-1.1,1.3-2.1,2.5-3,3.7c-1.1,1.3-2.1,2.6-3.2,3.9c-0.4,0.5-0.9,0.8-1.6,0.8c-0.7,0-1.2-0.3-1.6-0.8
	c-1-1.3-2.1-2.6-3.2-3.9c-0.9-1.1-1.9-2.4-3-3.7c-1.1-1.3-2.1-2.6-3-3.7v18.7c0,0.6-0.2,1.1-0.6,1.5c-0.4,0.4-0.9,0.6-1.5,0.6
	c-0.6,0-1-0.2-1.5-0.6c-0.4-0.4-0.6-0.9-0.6-1.5v-24.6c0-0.4,0.1-0.8,0.4-1.2c0.3-0.4,0.6-0.6,1-0.7c0.4-0.1,0.8-0.1,1.3,0
	c0.4,0.1,0.8,0.3,1,0.7c1.6,2.1,3.2,4,4.7,5.8c0.6,0.8,1.2,1.6,1.9,2.4c0.7,0.8,1.3,1.6,1.9,2.3c0.6,0.7,1.1,1.4,1.6,2
	c0.5,0.6,0.9,1.1,1.2,1.5c0.3-0.4,0.7-0.9,1.2-1.5c0.5-0.6,1-1.3,1.6-2c0.6-0.7,1.2-1.5,1.8-2.3c0.6-0.8,1.3-1.6,1.9-2.4
	C191.8,315.4,193.4,313.5,195,311.4z M141.1,330c-0.6-1.2-1.3-2.4-1.9-3.6c-0.7-1.2-1.3-2.4-1.9-3.6c-0.6-1.1-1.2-2.2-1.7-3.2
	c-0.5-1-1-1.8-1.3-2.4c-0.4,0.7-0.8,1.5-1.3,2.4c-0.5,1-1.1,2-1.7,3.2c-0.6,1.1-1.3,2.3-1.9,3.6c-0.7,1.2-1.3,2.5-1.9,3.6H141.1z
	 M149.1,336.3c0.3,0.5,0.3,1,0.1,1.6c-0.2,0.5-0.5,0.9-1,1.2c-0.5,0.3-1.1,0.3-1.6,0.2c-0.5-0.2-1-0.5-1.2-1l-0.6-1.1
	c-0.2-0.4-0.4-0.8-0.7-1.3c-0.3-0.5-0.6-1.1-0.9-1.7h-18c-0.7,1.2-1.2,2.2-1.6,3l-0.6,1.1c-0.3,0.5-0.7,0.9-1.2,1
	c-0.5,0.2-1.1,0.1-1.6-0.2c-0.5-0.2-0.8-0.6-1-1.2c-0.2-0.5-0.1-1.1,0.1-1.6l13.1-24.6c0.2-0.3,0.5-0.6,0.8-0.8
	c0.3-0.2,0.7-0.3,1.1-0.3s0.7,0.1,1.1,0.3c0.3,0.2,0.6,0.5,0.8,0.8L149.1,336.3z M96.3,312.7c0-0.5,0.2-1,0.6-1.4
	c0.4-0.4,0.9-0.6,1.5-0.6c0.6,0,1.1,0.2,1.5,0.6c0.4,0.4,0.6,0.9,0.6,1.4v22.6h16c0.6,0,1.1,0.2,1.5,0.6c0.4,0.4,0.6,0.9,0.6,1.5
	c0,0.6-0.2,1.1-0.6,1.5c-0.4,0.4-0.9,0.6-1.5,0.6h-18c-0.6,0-1-0.2-1.5-0.6c-0.4-0.4-0.6-0.9-0.6-1.5V312.7z"/>
<path class="st1" d="M295.6,352.1c0.4-0.2,0.8-0.2,1.2-0.1c0.4,0.1,0.7,0.3,1,0.6c2.3,2.6,4.4,5.2,6.5,7.6c0.9,1,1.8,2.1,2.7,3.2
	c0.9,1.1,1.8,2.1,2.7,3.2c0.9,1,1.7,2,2.5,2.9c0.8,0.9,1.5,1.7,2.1,2.3v-17.9c0-0.5,0.2-1,0.6-1.3c0.4-0.4,0.8-0.6,1.4-0.6
	c0.6,0,1,0.2,1.4,0.6c0.4,0.4,0.6,0.8,0.6,1.3V377c0,0.4-0.1,0.8-0.4,1.1c-0.2,0.3-0.6,0.5-0.9,0.7c-0.4,0.2-0.7,0.2-1.1,0.1
	c-0.4-0.1-0.7-0.3-1-0.6c-2.3-2.6-4.4-5.2-6.5-7.6c-0.9-1-1.8-2.1-2.7-3.2c-0.9-1.1-1.8-2.1-2.7-3.2c-0.9-1-1.7-2-2.5-2.9
	c-0.8-0.9-1.5-1.7-2-2.3V377c0,0.5-0.2,1-0.6,1.4c-0.4,0.4-0.9,0.6-1.4,0.6c-0.5,0-1-0.2-1.4-0.6c-0.4-0.4-0.6-0.8-0.6-1.4v-23.1
	c0-0.4,0.1-0.7,0.4-1.1C294.9,352.5,295.2,352.3,295.6,352.1 M278.1,342.7c0.4-0.4,0.9-0.5,1.4-0.5c0.5,0.1,1,0.3,1.3,0.7
	c0.4,0.4,0.5,0.9,0.5,1.4c-0.1,0.5-0.3,1-0.7,1.3l-4.7,3.9c-0.4,0.3-0.9,0.5-1.4,0.4c-0.5,0-1-0.3-1.4-0.7c-0.3-0.4-0.5-0.9-0.5-1.4
	c0-0.5,0.3-0.9,0.7-1.3L278.1,342.7z M267,372.6c1,1,2.1,1.7,3.4,2.2c1.2,0.5,2.6,0.8,4,0.8c1.4,0,2.7-0.3,4-0.8s2.4-1.2,3.3-2.2
	c1-1,1.7-2.1,2.3-3.3c0.5-1.2,0.8-2.5,0.8-3.9c0-1.4-0.3-2.7-0.8-3.9c-0.5-1.2-1.3-2.3-2.3-3.3c-1-1-2.1-1.7-3.3-2.2
	c-1.2-0.5-2.6-0.8-4-0.8c-1.4,0-2.7,0.3-4,0.8c-1.2,0.5-2.4,1.2-3.4,2.2c-1,1-1.7,2-2.2,3.3c-0.5,1.2-0.8,2.5-0.8,3.9
	c0,1.4,0.3,2.6,0.8,3.9C265.3,370.5,266,371.6,267,372.6z M268.8,352.6c1.8-0.7,3.7-1.1,5.5-1.1c1.9,0,3.7,0.4,5.5,1.1
	c1.7,0.7,3.2,1.7,4.5,3c1.3,1.3,2.3,2.7,3.1,4.4c0.7,1.7,1.1,3.5,1.1,5.4c0,2-0.4,3.8-1.1,5.4c-0.8,1.7-1.8,3.2-3.1,4.4
	c-1.3,1.3-2.8,2.3-4.5,3c-1.7,0.7-3.6,1.1-5.5,1.1c-2,0-3.8-0.4-5.5-1.1c-1.7-0.7-3.2-1.7-4.5-3c-1.3-1.3-2.4-2.8-3.1-4.4
	c-0.7-1.7-1.1-3.5-1.1-5.4c0-1.9,0.4-3.7,1.1-5.4c0.7-1.6,1.7-3.1,3.1-4.4C265.5,354.3,267.1,353.3,268.8,352.6z M250.3,353.9
	c0-0.5,0.2-1,0.6-1.3c0.4-0.4,0.8-0.6,1.4-0.6c0.6,0,1,0.2,1.4,0.6c0.4,0.4,0.6,0.8,0.6,1.3V377c0,0.5-0.2,1-0.6,1.4
	c-0.4,0.4-0.8,0.6-1.4,0.6c-0.6,0-1-0.2-1.4-0.6c-0.4-0.4-0.6-0.8-0.6-1.4V353.9z M227,353.3c0.8-0.6,1.8-1,2.9-1.3
	c1.1-0.3,2.3-0.4,3.7-0.4c1.4,0,2.8,0.1,4.2,0.4c1.4,0.3,2.7,0.7,3.7,1.1c0.5,0.2,0.8,0.6,1,1.1c0.2,0.5,0.2,1,0,1.5
	c-0.2,0.5-0.6,0.8-1.1,1c-0.5,0.2-1,0.2-1.5,0c-0.8-0.4-1.8-0.6-2.9-0.9c-1.2-0.2-2.3-0.3-3.4-0.3c-0.9,0-1.7,0.1-2.5,0.3
	c-0.7,0.2-1.4,0.5-1.9,0.8c-0.9,0.6-1.4,1.5-1.4,2.6c0,0.3,0.1,0.7,0.2,1.1c0.2,0.4,0.5,0.8,1.1,1.2c1,0.6,2.6,1.1,4.7,1.4
	c3,0.4,5.4,1.2,7.2,2.4c1.1,0.7,1.9,1.6,2.5,2.6c0.6,1,0.9,2.1,0.9,3.3c0,1.3-0.3,2.5-0.9,3.6c-0.6,1.1-1.4,2-2.6,2.8
	c-1,0.7-2.1,1.2-3.3,1.5c-1.2,0.3-2.6,0.5-4.1,0.5c-3.8,0-7-1-9.6-3c-0.4-0.3-0.7-0.8-0.8-1.3c-0.1-0.5,0.1-1,0.4-1.4
	c0.3-0.4,0.8-0.7,1.3-0.8c0.5-0.1,1,0.1,1.5,0.4c0.8,0.6,1.7,1.1,2.6,1.4c1.3,0.5,2.9,0.7,4.6,0.7c2.1,0,3.9-0.4,5.2-1.3
	c1.2-0.8,1.7-1.9,1.7-3.2c0-0.4-0.1-0.8-0.3-1.3c-0.2-0.5-0.6-1-1.4-1.5c-1.3-0.8-3.1-1.4-5.5-1.8c-2.6-0.4-4.7-1.1-6.3-2
	c-2.1-1.3-3.2-3.2-3.2-5.5c0-1.2,0.3-2.3,0.8-3.3C225.2,354.8,225.9,353.9,227,353.3z M199.2,366.3h9.1c0.7,0,1.4-0.1,2.1-0.4
	c0.7-0.3,1.2-0.6,1.7-1.1c0.5-0.5,0.9-1,1.1-1.7c0.3-0.6,0.4-1.3,0.4-2c0-0.7-0.1-1.4-0.4-2c-0.3-0.6-0.7-1.2-1.1-1.7
	c-0.5-0.5-1.1-0.9-1.7-1.1c-0.7-0.3-1.3-0.4-2.1-0.4h-9.1V366.3z M217.6,375.9c0.4,0.4,0.5,0.8,0.5,1.4c0,0.5-0.2,1-0.6,1.3
	c-0.4,0.4-0.9,0.5-1.4,0.5c-0.5,0-1-0.2-1.4-0.6l-7.8-8.3h-7.7v6.8c0,0.5-0.2,1-0.6,1.4c-0.4,0.4-0.9,0.6-1.4,0.6
	c-0.5,0-1-0.2-1.4-0.6c-0.4-0.4-0.6-0.8-0.6-1.4v-23.1c0-0.5,0.2-1,0.6-1.3c0.4-0.4,0.8-0.6,1.4-0.6h11.1c1.3,0,2.5,0.2,3.6,0.7
	c1.1,0.5,2.1,1.1,2.9,2c0.8,0.8,1.5,1.8,2,2.9c0.5,1.1,0.7,2.3,0.7,3.5c0,1-0.1,1.9-0.4,2.8c-0.3,0.9-0.7,1.7-1.2,2.4
	c-0.5,0.7-1.2,1.4-1.9,1.9c-0.7,0.6-1.5,1-2.4,1.3L217.6,375.9z M187.5,375.1c0.6,0,1,0.2,1.4,0.6c0.4,0.4,0.6,0.8,0.6,1.4
	c0,0.5-0.2,1-0.6,1.4c-0.4,0.4-0.8,0.6-1.4,0.6h-16.9c-0.5,0-1-0.2-1.4-0.6c-0.4-0.4-0.6-0.8-0.6-1.4v-23.1c0-0.5,0.2-1,0.6-1.3
	c0.4-0.4,0.9-0.6,1.4-0.6h16.9c0.6,0,1,0.2,1.4,0.6c0.4,0.4,0.6,0.8,0.6,1.3c0,0.5-0.2,1-0.6,1.4c-0.4,0.4-0.8,0.6-1.4,0.6h-15v7.7
	h12.9c0.5,0,1,0.2,1.4,0.6c0.4,0.4,0.6,0.8,0.6,1.3c0,0.5-0.2,1-0.6,1.4c-0.4,0.4-0.8,0.6-1.4,0.6h-12.9v7.7H187.5z M160.5,353
	c0.3-0.5,0.6-0.8,1.2-0.9c0.5-0.2,1-0.1,1.5,0.1c0.5,0.3,0.8,0.6,1,1.1c0.2,0.5,0.1,1-0.1,1.5l-12.3,23.1c-0.2,0.3-0.4,0.6-0.7,0.8
	c-0.3,0.2-0.6,0.3-1,0.3c-0.8,0-1.4-0.3-1.8-1L136,354.8c-0.3-0.5-0.3-1-0.1-1.5c0.2-0.5,0.5-0.9,1-1.1c0.5-0.3,1-0.3,1.5-0.1
	c0.5,0.2,0.9,0.5,1.2,0.9c1.5,2.9,2.9,5.5,4.3,8.1c0.6,1.1,1.2,2.2,1.8,3.3c0.6,1.1,1.2,2.2,1.7,3.3c0.6,1,1.1,2,1.6,2.9
	c0.5,0.9,0.9,1.6,1.2,2.3c0.3-0.6,0.7-1.4,1.2-2.3c0.5-0.9,1-1.8,1.5-2.9c0.5-1,1.1-2.1,1.7-3.3c0.6-1.1,1.2-2.3,1.8-3.3
	C157.6,358.6,159,355.9,160.5,353z M108.7,352.1c0.4-0.2,0.8-0.2,1.2-0.1c0.4,0.1,0.7,0.3,1,0.6c2.3,2.6,4.4,5.2,6.5,7.6
	c0.9,1,1.8,2.1,2.7,3.2c0.9,1.1,1.8,2.1,2.7,3.2c0.9,1,1.7,2,2.5,2.9c0.8,0.9,1.5,1.7,2.1,2.3v-17.9c0-0.5,0.2-1,0.6-1.3
	c0.4-0.4,0.8-0.6,1.4-0.6c0.6,0,1,0.2,1.4,0.6c0.4,0.4,0.6,0.8,0.6,1.3V377c0,0.4-0.1,0.8-0.4,1.1c-0.2,0.3-0.6,0.5-0.9,0.7
	c-0.4,0.2-0.7,0.2-1.1,0.1c-0.4-0.1-0.7-0.3-1-0.6c-2.3-2.6-4.4-5.2-6.5-7.6c-0.9-1-1.8-2.1-2.7-3.2c-0.9-1.1-1.8-2.1-2.7-3.2
	c-0.9-1-1.7-2-2.5-2.9c-0.8-0.9-1.5-1.7-2-2.3V377c0,0.5-0.2,1-0.6,1.4c-0.4,0.4-0.9,0.6-1.4,0.6c-0.5,0-1-0.2-1.4-0.6
	c-0.4-0.4-0.6-0.8-0.6-1.4v-23.1c0-0.4,0.1-0.7,0.4-1.1C108.1,352.5,108.4,352.3,108.7,352.1z M96.3,353.9c0-0.5,0.2-1,0.6-1.3
	c0.4-0.4,0.8-0.6,1.4-0.6c0.6,0,1,0.2,1.4,0.6c0.4,0.4,0.6,0.8,0.6,1.3V377c0,0.5-0.2,1-0.6,1.4c-0.4,0.4-0.8,0.6-1.4,0.6
	c-0.6,0-1-0.2-1.4-0.6c-0.4-0.4-0.6-0.8-0.6-1.4V353.9z"/>
<path class="st2" d="M119.3,250.3v-72.2c0-1.2,0.9-2.1,2.1-2.1h27.9c1.2,0,2.1,0.9,2.1,2.1v78.6c0,30.7-32.7,32.8-33.9,32.8l-21.8-1
	v-27.4c0-0.9,1.2-1.8,2.1-1.9C104.6,258.9,119.3,263.8,119.3,250.3"/>
<path class="st2" d="M364.2,286.3V178.2c0-1.2,1-2.2,2.2-2.2h28.7c1.2,0,2.2,1,2.2,2.2v108.1c0,1.2-1,2.2-2.2,2.2h-28.7
	C365.2,288.5,364.2,287.5,364.2,286.3"/>
<path class="st2" d="M243.8,250.3v-72.2c0-1.2,0.9-2.1,2.1-2.1h27.9c1.2,0,2.1,0.9,2.1,2.1v78.6c0,30.7-32.7,32.8-33.9,32.8l-21.8-1
	v-27.4c0-0.9,1.2-1.8,2.1-1.9C229,258.9,243.8,263.8,243.8,250.3"/>
<path class="st3" d="M339.1,245.4v-67.3c0-1.2,0.9-2.1,2.1-2.1h27.9c1.2,0,2.1,0.9,2.1,2.1v68.5c0,28.5-23.7,43.1-49.4,43.1
	s-49.4-14.6-49.4-43.1v-68.5c0-1.2,0.9-2.1,2.1-2.1h27.9c1.2,0,2.1,0.9,2.1,2.1v67.3c0,13.7,10.1,14.7,17.3,14.9
	C329,260.1,339.1,259.1,339.1,245.4"/>
<path class="st2" d="M392.9,130.3l4.1,2.6c5.3,3.4,6.9,10.4,3.5,15.7l-8.1,12.8c-3.4,5.3-10.4,6.9-15.7,3.5l-4.1-2.6
	c-5.3-3.4-6.9-10.4-3.5-15.7l8.1-12.8C380.5,128.5,387.6,126.9,392.9,130.3"/>
<path class="st3" d="M151.9,175.9h78.9c1.1,0,2,0.9,2,2v26.3c0,1.1-0.9,2-2,2h-49v11.9h45.7c1,0,1.8,0.8,1.8,1.8v23.6
	c0,1-0.8,1.8-1.8,1.8h-45.7V259h49.1c1,0,1.9,0.9,1.9,1.9v25.3c0,1-0.9,1.9-1.9,1.9h-79c-1,0-1.9-0.9-1.9-1.9c0-36.1,0-72.1,0-108.2
	C149.9,176.8,150.8,175.9,151.9,175.9"/>
</svg>
