<?xml version="1.0" encoding="utf-8"?>
<!-- Generator: Adobe Illustrator 27.9.0, SVG Export Plug-In . SVG Version: 6.00 Build 0)  -->
<svg version="1.1" id="Layer_1" xmlns="http://www.w3.org/2000/svg" xmlns:xlink="http://www.w3.org/1999/xlink" x="0px" y="0px"
	 viewBox="0 0 350 300" style="enable-background:new 0 0 350 300;" xml:space="preserve">
<style type="text/css">
	.st0{fill:#DADDDA;filter: drop-shadow(1px 1px 2px rgba(0,0,0,.5));}
	.st1{fill-rule:evenodd;clip-rule:evenodd;fill:#B0B4B4;filter: drop-shadow(0px 2px 10px rgba(0,0,0,.5));}
	.st2{fill-rule:evenodd;clip-rule:evenodd;fill:#DADDDA;filter: drop-shadow(0px 2px 10px rgba(0,0,0,.5));}
</style>
<path class="st0" d="M224.9,228.2H235c0.8,0,1.6-0.1,2.3-0.4c0.7-0.3,1.4-0.7,1.9-1.2c0.5-0.5,1-1.1,1.3-1.9
	c0.3-0.7,0.5-1.5,0.5-2.3c0-0.8-0.2-1.6-0.5-2.3c-0.3-0.7-0.7-1.3-1.3-1.9c-0.5-0.5-1.2-1-1.9-1.3c-0.7-0.3-1.5-0.4-2.3-0.4h-10.1
	V228.2z M245.3,238.8c0.4,0.4,0.6,0.9,0.6,1.5c0,0.6-0.3,1.1-0.7,1.5c-0.5,0.4-1,0.6-1.6,0.6c-0.6,0-1.1-0.3-1.5-0.7l-8.7-9.2h-8.5
	v7.6c0,0.6-0.2,1.1-0.7,1.5c-0.4,0.4-0.9,0.6-1.5,0.6c-0.6,0-1.1-0.2-1.6-0.6c-0.4-0.4-0.6-0.9-0.6-1.5v-25.7c0-0.6,0.2-1.1,0.6-1.5
	c0.4-0.4,0.9-0.6,1.6-0.6H235c1.4,0,2.8,0.3,4,0.8c1.3,0.5,2.3,1.3,3.3,2.2c0.9,0.9,1.7,2,2.2,3.2c0.5,1.2,0.8,2.5,0.8,3.9
	c0,1.1-0.2,2.1-0.5,3.1s-0.8,1.9-1.4,2.7c-0.6,0.8-1.3,1.5-2.1,2.2c-0.8,0.6-1.7,1.1-2.6,1.5L245.3,238.8z M190.1,235.2
	c1.1,1.1,2.4,1.9,3.7,2.4c1.4,0.6,2.8,0.8,4.4,0.8c1.5,0,3-0.3,4.4-0.8c1.4-0.6,2.6-1.4,3.7-2.4c1.1-1.1,1.9-2.3,2.5-3.7
	c0.6-1.4,0.9-2.8,0.9-4.3c0-1.5-0.3-2.9-0.9-4.3c-0.6-1.4-1.4-2.6-2.5-3.6c-1.1-1.1-2.3-1.9-3.7-2.5c-1.4-0.6-2.8-0.8-4.4-0.8
	c-1.5,0-3,0.3-4.4,0.8c-1.4,0.6-2.6,1.4-3.7,2.5c-1.1,1.1-1.9,2.3-2.5,3.6c-0.6,1.4-0.9,2.8-0.9,4.3c0,1.5,0.3,2.9,0.9,4.3
	C188.2,232.9,189,234.1,190.1,235.2z M192.1,212.9c2-0.8,4.1-1.2,6.2-1.2c2.1,0,4.1,0.4,6.2,1.2c1.9,0.8,3.6,1.9,5,3.3
	c1.4,1.4,2.6,3,3.4,4.9c0.8,1.9,1.2,3.9,1.2,6c0,2.2-0.4,4.2-1.2,6c-0.8,1.9-2,3.5-3.4,4.9c-1.4,1.4-3.1,2.5-5,3.3
	c-1.9,0.8-4,1.2-6.2,1.2c-2.2,0-4.2-0.4-6.2-1.2c-1.9-0.8-3.6-1.9-5-3.3c-1.5-1.5-2.6-3.1-3.4-4.9c-0.8-1.9-1.2-3.9-1.2-6
	c0-2.1,0.4-4.2,1.2-6c0.8-1.8,1.9-3.5,3.4-4.9C188.5,214.9,190.1,213.8,192.1,212.9z M171.8,214.4c0-0.6,0.2-1.1,0.7-1.5
	c0.4-0.4,0.9-0.6,1.5-0.6c0.6,0,1.1,0.2,1.6,0.6c0.4,0.4,0.6,0.9,0.6,1.5v18.1c0,1.4-0.3,2.8-0.8,4c-0.6,1.2-1.3,2.3-2.2,3.2
	c-0.9,0.9-2,1.6-3.3,2.2c-1.3,0.5-2.6,0.8-4.1,0.8c-1.4,0-2.7-0.2-4-0.7c-1.3-0.5-2.4-1.2-3.4-2.2c-0.4-0.4-0.6-0.9-0.6-1.5
	c0-0.6,0.2-1.1,0.6-1.5c0.4-0.4,1-0.6,1.6-0.6c0.6,0,1.1,0.2,1.6,0.6c1.2,1.1,2.6,1.7,4.3,1.7c0.8,0,1.6-0.2,2.4-0.5
	c0.7-0.3,1.4-0.7,1.9-1.3c0.5-0.5,1-1.2,1.3-1.9c0.3-0.7,0.5-1.5,0.5-2.3V214.4z M151.6,237.9c0.6,0,1.1,0.2,1.6,0.6
	c0.4,0.4,0.6,0.9,0.6,1.5c0,0.6-0.2,1.1-0.6,1.5c-0.4,0.4-0.9,0.6-1.6,0.6h-18.8c-0.6,0-1.1-0.2-1.5-0.6c-0.4-0.4-0.7-0.9-0.7-1.5
	v-25.7c0-0.6,0.2-1.1,0.7-1.5c0.4-0.4,0.9-0.6,1.5-0.6h18.8c0.6,0,1.1,0.2,1.6,0.6c0.4,0.4,0.6,0.9,0.6,1.5c0,0.6-0.2,1.1-0.6,1.5
	c-0.4,0.4-0.9,0.6-1.6,0.6H135v8.6h14.4c0.6,0,1.1,0.2,1.6,0.6c0.4,0.4,0.6,0.9,0.6,1.5c0,0.6-0.2,1.1-0.6,1.5
	c-0.4,0.4-0.9,0.6-1.6,0.6H135v8.6H151.6z M118.7,213.1c0.3-0.3,0.7-0.6,1.1-0.7c0.4-0.1,0.9-0.1,1.3,0c0.4,0.1,0.8,0.4,1.1,0.8
	c0.3,0.4,0.4,0.8,0.4,1.2v25.7c0,0.6-0.2,1.1-0.7,1.5c-0.4,0.4-0.9,0.6-1.5,0.6c-0.6,0-1.1-0.2-1.6-0.6c-0.4-0.4-0.6-0.9-0.6-1.5
	v-19.5c-1,1.2-2.1,2.5-3.2,3.9c-1.1,1.4-2.1,2.7-3.1,3.9c-1.1,1.4-2.2,2.7-3.3,4.1c-0.4,0.5-1,0.8-1.7,0.8c-0.7,0-1.3-0.3-1.7-0.8
	c-1.1-1.4-2.2-2.7-3.3-4.1c-1-1.2-2-2.5-3.1-3.9c-1.1-1.4-2.2-2.7-3.2-3.9v19.5c0,0.6-0.2,1.1-0.6,1.5c-0.4,0.4-0.9,0.6-1.6,0.6
	c-0.6,0-1.1-0.2-1.5-0.6c-0.4-0.4-0.7-0.9-0.7-1.5v-25.7c0-0.5,0.1-0.9,0.4-1.2c0.3-0.4,0.6-0.6,1.1-0.8c0.4-0.1,0.9-0.1,1.3,0
	c0.4,0.1,0.8,0.4,1.1,0.7c1.7,2.1,3.3,4.2,4.9,6.1c0.6,0.8,1.3,1.7,2,2.5c0.7,0.8,1.3,1.6,1.9,2.4c0.6,0.8,1.2,1.4,1.7,2.1
	c0.5,0.6,0.9,1.1,1.3,1.5c0.3-0.4,0.7-0.9,1.2-1.5c0.5-0.6,1.1-1.3,1.7-2.1c0.6-0.8,1.3-1.5,1.9-2.4c0.7-0.8,1.3-1.7,2-2.5
	C115.3,217.2,117,215.2,118.7,213.1z M62.3,232.5c-0.7-1.2-1.3-2.5-2-3.8c-0.7-1.3-1.3-2.5-2-3.7c-0.6-1.2-1.2-2.3-1.8-3.3
	c-0.6-1-1-1.9-1.4-2.6c-0.4,0.7-0.8,1.5-1.4,2.6c-0.5,1-1.1,2.1-1.8,3.3c-0.6,1.2-1.3,2.4-2,3.7c-0.7,1.3-1.4,2.6-2,3.8H62.3z
	 M70.8,239.1c0.3,0.5,0.3,1.1,0.2,1.6c-0.2,0.6-0.5,1-1.1,1.2c-0.6,0.3-1.1,0.3-1.7,0.2c-0.6-0.2-1-0.5-1.3-1.1l-0.6-1.2
	c-0.2-0.4-0.5-0.9-0.7-1.4c-0.3-0.5-0.6-1.1-0.9-1.8H45.8c-0.7,1.3-1.3,2.3-1.7,3.1l-0.6,1.2c-0.3,0.5-0.7,0.9-1.3,1.1
	c-0.6,0.2-1.1,0.1-1.7-0.2c-0.5-0.3-0.9-0.7-1.1-1.2c-0.2-0.6-0.1-1.1,0.2-1.6l13.6-25.7c0.2-0.3,0.5-0.6,0.8-0.8
	c0.3-0.2,0.7-0.3,1.1-0.3c0.4,0,0.8,0.1,1.1,0.3c0.3,0.2,0.6,0.5,0.8,0.8L70.8,239.1z M15.6,214.4c0-0.6,0.2-1.1,0.7-1.5
	c0.4-0.4,0.9-0.6,1.5-0.6c0.6,0,1.1,0.2,1.6,0.6c0.4,0.4,0.6,0.9,0.6,1.5v23.5h16.7c0.6,0,1.1,0.2,1.6,0.6c0.4,0.4,0.6,0.9,0.6,1.5
	c0,0.6-0.2,1.1-0.6,1.5c-0.4,0.4-0.9,0.6-1.6,0.6H17.8c-0.6,0-1.1-0.2-1.5-0.6c-0.4-0.4-0.7-0.9-0.7-1.5V214.4z"/>
<path class="st0" d="M223.6,255.6c0.4-0.2,0.8-0.2,1.2-0.1c0.4,0.1,0.8,0.3,1.1,0.6c2.4,2.8,4.6,5.4,6.8,7.9
	c0.9,1.1,1.9,2.2,2.9,3.3c1,1.1,1.9,2.2,2.8,3.3c0.9,1.1,1.8,2.1,2.6,3c0.8,0.9,1.5,1.8,2.2,2.5v-18.7c0-0.5,0.2-1,0.6-1.4
	c0.4-0.4,0.9-0.6,1.5-0.6c0.6,0,1.1,0.2,1.5,0.6c0.4,0.4,0.6,0.9,0.6,1.4v24.1c0,0.4-0.1,0.8-0.4,1.1c-0.2,0.3-0.6,0.6-1,0.7
	c-0.4,0.2-0.8,0.2-1.2,0.1c-0.4-0.1-0.8-0.3-1.1-0.6c-2.4-2.8-4.6-5.4-6.8-7.9c-0.9-1.1-1.9-2.2-2.9-3.3c-1-1.1-1.9-2.2-2.9-3.3
	c-0.9-1.1-1.8-2.1-2.6-3c-0.8-0.9-1.5-1.8-2.1-2.5v18.7c0,0.6-0.2,1-0.6,1.4c-0.4,0.4-0.9,0.6-1.4,0.6c-0.6,0-1.1-0.2-1.5-0.6
	c-0.4-0.4-0.6-0.9-0.6-1.4v-24.1c0-0.4,0.1-0.8,0.4-1.1C223,256,223.3,255.7,223.6,255.6 M205.3,245.8c0.4-0.4,0.9-0.5,1.5-0.5
	c0.6,0.1,1,0.3,1.4,0.7c0.4,0.4,0.5,0.9,0.5,1.5c-0.1,0.5-0.3,1-0.7,1.4l-4.9,4.1c-0.4,0.3-0.9,0.5-1.5,0.5c-0.6,0-1-0.3-1.4-0.7
	c-0.4-0.4-0.5-0.9-0.5-1.4c0-0.5,0.3-1,0.8-1.4L205.3,245.8z M193.8,277c1,1,2.2,1.7,3.5,2.3c1.3,0.5,2.7,0.8,4.1,0.8
	c1.4,0,2.8-0.3,4.1-0.8c1.3-0.5,2.5-1.3,3.5-2.3c1-1,1.8-2.2,2.4-3.4c0.5-1.3,0.8-2.6,0.8-4c0-1.4-0.3-2.8-0.8-4
	c-0.5-1.3-1.3-2.4-2.4-3.4c-1-1-2.2-1.8-3.5-2.3c-1.3-0.5-2.7-0.8-4.1-0.8c-1.4,0-2.8,0.3-4.1,0.8c-1.3,0.5-2.5,1.3-3.5,2.3
	c-1,1-1.8,2.1-2.3,3.4c-0.5,1.3-0.8,2.6-0.8,4c0,1.4,0.3,2.8,0.8,4C192,274.8,192.8,275.9,193.8,277z M195.6,256.1
	c1.9-0.8,3.8-1.1,5.8-1.1s3.9,0.4,5.8,1.1c1.8,0.8,3.4,1.8,4.7,3.1c1.3,1.3,2.4,2.9,3.2,4.6c0.8,1.8,1.1,3.7,1.1,5.7
	c0,2-0.4,3.9-1.1,5.7c-0.8,1.8-1.9,3.3-3.2,4.6c-1.3,1.3-2.9,2.4-4.7,3.1c-1.8,0.7-3.7,1.1-5.8,1.1s-4-0.4-5.8-1.1
	c-1.8-0.8-3.4-1.8-4.7-3.1c-1.4-1.4-2.5-2.9-3.2-4.6c-0.8-1.7-1.2-3.6-1.2-5.7c0-2,0.4-3.9,1.2-5.7c0.7-1.7,1.8-3.3,3.2-4.6
	C192.3,257.9,193.8,256.8,195.6,256.1z M176.4,257.4c0-0.5,0.2-1,0.6-1.4c0.4-0.4,0.9-0.6,1.5-0.6s1.1,0.2,1.5,0.6
	c0.4,0.4,0.6,0.9,0.6,1.4v24.1c0,0.6-0.2,1-0.6,1.4c-0.4,0.4-0.9,0.6-1.5,0.6s-1.1-0.2-1.5-0.6c-0.4-0.4-0.6-0.9-0.6-1.4V257.4z
	 M152,256.7c0.9-0.6,1.9-1,3.1-1.3c1.2-0.3,2.4-0.5,3.8-0.5c1.4,0,2.9,0.1,4.4,0.4c1.5,0.3,2.8,0.7,3.9,1.2c0.5,0.2,0.9,0.6,1.1,1.1
	c0.2,0.5,0.2,1,0,1.5c-0.2,0.5-0.6,0.9-1.1,1c-0.5,0.2-1,0.2-1.6,0c-0.8-0.4-1.8-0.7-3.1-0.9c-1.2-0.2-2.4-0.3-3.6-0.3
	c-1,0-1.8,0.1-2.6,0.3c-0.8,0.2-1.4,0.5-2,0.8c-1,0.6-1.5,1.6-1.5,2.7c0,0.3,0.1,0.7,0.2,1.1c0.2,0.4,0.6,0.8,1.2,1.2
	c1.1,0.7,2.7,1.2,4.9,1.5c3.1,0.5,5.6,1.3,7.5,2.5c1.1,0.8,2,1.7,2.6,2.7c0.6,1,0.9,2.2,0.9,3.5c0,1.4-0.3,2.6-0.9,3.8
	c-0.6,1.1-1.5,2.1-2.7,2.9c-1,0.7-2.2,1.2-3.5,1.5c-1.3,0.3-2.7,0.5-4.2,0.5c-4,0-7.3-1-10.1-3.1c-0.5-0.3-0.7-0.8-0.8-1.3
	c-0.1-0.5,0.1-1,0.4-1.5c0.4-0.5,0.8-0.7,1.4-0.8c0.5-0.1,1.1,0.1,1.5,0.4c0.9,0.6,1.8,1.1,2.7,1.5c1.4,0.5,3,0.8,4.8,0.8
	c2.2,0,4-0.4,5.4-1.3c1.2-0.8,1.8-1.9,1.8-3.3c0-0.4-0.1-0.8-0.3-1.3c-0.2-0.5-0.7-1-1.5-1.5c-1.3-0.9-3.3-1.5-5.8-1.8
	c-2.7-0.4-4.9-1.1-6.6-2.1c-2.2-1.4-3.3-3.3-3.3-5.7c0-1.3,0.3-2.4,0.8-3.5C150.1,258.3,150.9,257.4,152,256.7z M123,270.4h9.5
	c0.8,0,1.5-0.1,2.2-0.4c0.7-0.3,1.3-0.7,1.8-1.2c0.5-0.5,0.9-1.1,1.2-1.7c0.3-0.7,0.4-1.4,0.4-2.1c0-0.8-0.1-1.5-0.4-2.1
	c-0.3-0.7-0.7-1.3-1.2-1.8c-0.5-0.5-1.1-0.9-1.8-1.2s-1.4-0.4-2.2-0.4H123V270.4z M142.2,280.3c0.4,0.4,0.6,0.9,0.5,1.4
	c0,0.6-0.2,1-0.7,1.4c-0.4,0.4-0.9,0.5-1.5,0.5c-0.6,0-1-0.2-1.4-0.6l-8.1-8.6h-8v7.1c0,0.6-0.2,1-0.6,1.4c-0.4,0.4-0.9,0.6-1.4,0.6
	c-0.6,0-1.1-0.2-1.5-0.6c-0.4-0.4-0.6-0.9-0.6-1.4v-24.1c0-0.5,0.2-1,0.6-1.4c0.4-0.4,0.9-0.6,1.5-0.6h11.6c1.3,0,2.6,0.2,3.8,0.7
	c1.2,0.5,2.2,1.2,3.1,2c0.9,0.9,1.6,1.9,2.1,3c0.5,1.2,0.8,2.4,0.8,3.7c0,1-0.1,2-0.4,2.9c-0.3,0.9-0.7,1.7-1.3,2.5s-1.2,1.4-2,2
	c-0.8,0.6-1.6,1.1-2.5,1.4L142.2,280.3z M110.8,279.5c0.6,0,1.1,0.2,1.5,0.6s0.6,0.9,0.6,1.4c0,0.6-0.2,1-0.6,1.4
	c-0.4,0.4-0.9,0.6-1.5,0.6H93.1c-0.5,0-1-0.2-1.4-0.6c-0.4-0.4-0.6-0.9-0.6-1.4v-24.1c0-0.5,0.2-1,0.6-1.4c0.4-0.4,0.9-0.6,1.4-0.6
	h17.7c0.6,0,1.1,0.2,1.5,0.6c0.4,0.4,0.6,0.9,0.6,1.4c0,0.6-0.2,1-0.6,1.4c-0.4,0.4-0.9,0.6-1.5,0.6H95.2v8h13.5
	c0.6,0,1.1,0.2,1.5,0.6c0.4,0.4,0.6,0.9,0.6,1.4c0,0.6-0.2,1-0.6,1.4c-0.4,0.4-0.9,0.6-1.5,0.6H95.2v8H110.8z M82.6,256.5
	c0.3-0.5,0.7-0.8,1.2-1c0.5-0.2,1.1-0.1,1.6,0.1c0.5,0.3,0.8,0.7,1,1.2c0.2,0.5,0.1,1-0.1,1.5l-12.8,24.1c-0.2,0.3-0.4,0.6-0.8,0.8
	c-0.3,0.2-0.7,0.3-1,0.3c-0.8,0-1.5-0.4-1.8-1.1L57,258.4c-0.3-0.5-0.3-1-0.1-1.5c0.2-0.5,0.5-0.9,1-1.2c0.5-0.3,1-0.3,1.6-0.1
	c0.5,0.2,0.9,0.5,1.2,1c1.6,3,3.1,5.8,4.5,8.4c0.6,1.1,1.2,2.3,1.8,3.5c0.6,1.2,1.2,2.3,1.8,3.4c0.6,1.1,1.1,2.1,1.6,3
	c0.5,0.9,0.9,1.7,1.3,2.4c0.3-0.6,0.7-1.4,1.2-2.4c0.5-0.9,1-1.9,1.6-3c0.6-1.1,1.2-2.2,1.8-3.4c0.6-1.2,1.2-2.4,1.8-3.5
	C79.6,262.3,81.1,259.5,82.6,256.5z M28.6,255.6c0.4-0.2,0.8-0.2,1.2-0.1c0.4,0.1,0.8,0.3,1.1,0.6c2.4,2.8,4.6,5.4,6.8,7.9
	c0.9,1.1,1.9,2.2,2.8,3.3c1,1.1,1.9,2.2,2.8,3.3c0.9,1.1,1.8,2.1,2.6,3c0.8,0.9,1.5,1.8,2.2,2.5v-18.7c0-0.5,0.2-1,0.6-1.4
	c0.4-0.4,0.9-0.6,1.5-0.6c0.6,0,1.1,0.2,1.5,0.6c0.4,0.4,0.6,0.9,0.6,1.4v24.1c0,0.4-0.1,0.8-0.4,1.1c-0.2,0.3-0.6,0.6-1,0.7
	c-0.4,0.2-0.8,0.2-1.2,0.1c-0.4-0.1-0.8-0.3-1.1-0.6c-2.4-2.8-4.6-5.4-6.8-7.9c-0.9-1.1-1.9-2.2-2.8-3.3c-1-1.1-1.9-2.2-2.9-3.3
	c-0.9-1.1-1.8-2.1-2.6-3c-0.8-0.9-1.5-1.8-2.1-2.5v18.7c0,0.6-0.2,1-0.6,1.4c-0.4,0.4-0.9,0.6-1.4,0.6c-0.6,0-1.1-0.2-1.5-0.6
	c-0.4-0.4-0.6-0.9-0.6-1.4v-24.1c0-0.4,0.1-0.8,0.4-1.1C27.9,256,28.2,255.7,28.6,255.6z M15.6,257.4c0-0.5,0.2-1,0.6-1.4
	c0.4-0.4,0.9-0.6,1.5-0.6c0.6,0,1.1,0.2,1.5,0.6c0.4,0.4,0.6,0.9,0.6,1.4v24.1c0,0.6-0.2,1-0.6,1.4c-0.4,0.4-0.9,0.6-1.5,0.6
	c-0.6,0-1.1-0.2-1.5-0.6c-0.4-0.4-0.6-0.9-0.6-1.4V257.4z"/>
<path class="st0" d="M226.3,55.2c0.9,0,1.7,0.3,2.3,0.9c0.6,0.6,1,1.4,1,2.3c0,0.9-0.3,1.7-1,2.3c-0.6,0.6-1.4,0.9-2.3,0.9h-28.2
	c-0.9,0-1.6-0.3-2.3-0.9c-0.7-0.6-1-1.4-1-2.3V19.9c0-0.9,0.3-1.6,1-2.2c0.7-0.6,1.4-1,2.3-1h28.2c0.9,0,1.7,0.3,2.3,1
	c0.6,0.6,1,1.4,1,2.2c0,0.9-0.3,1.7-1,2.3c-0.6,0.6-1.4,0.9-2.3,0.9h-24.9V36h21.5c0.9,0,1.7,0.3,2.3,1c0.6,0.6,1,1.4,1,2.2
	c0,0.9-0.3,1.7-1,2.3c-0.6,0.6-1.4,0.9-2.3,0.9h-21.5v12.8H226.3z M156.6,40.7h15.2c1.2,0,2.4-0.2,3.5-0.7c1.1-0.4,2-1.1,2.8-1.9
	c0.8-0.8,1.4-1.7,1.9-2.8c0.5-1.1,0.7-2.2,0.7-3.4c0-1.2-0.2-2.3-0.7-3.4c-0.5-1.1-1.1-2-1.9-2.8c-0.8-0.8-1.8-1.4-2.8-1.9
	c-1.1-0.4-2.3-0.7-3.5-0.7h-15.2V40.7z M187.1,56.5c0.6,0.6,0.9,1.4,0.9,2.3c0,0.9-0.4,1.6-1,2.2c-0.7,0.6-1.5,0.9-2.4,0.8
	c-0.9,0-1.6-0.4-2.3-1l-13-13.8h-12.8v11.4c0,0.9-0.3,1.7-1,2.3c-0.7,0.6-1.4,0.9-2.3,0.9c-0.9,0-1.7-0.3-2.3-0.9
	c-0.6-0.6-0.9-1.4-0.9-2.3V19.9c0-0.9,0.3-1.6,0.9-2.2c0.6-0.6,1.4-1,2.3-1h18.5c2.1,0,4.1,0.4,6,1.2c1.9,0.8,3.5,1.9,4.9,3.3
	c1.4,1.4,2.5,3,3.3,4.8c0.8,1.8,1.2,3.8,1.2,5.9c0,1.6-0.2,3.2-0.7,4.6c-0.5,1.5-1.2,2.8-2.1,4c-0.9,1.2-1.9,2.3-3.1,3.2
	c-1.2,0.9-2.5,1.7-4,2.2L187.1,56.5z M111.8,40.7H127c1.2,0,2.4-0.2,3.5-0.7c1.1-0.4,2-1.1,2.8-1.9c0.8-0.8,1.4-1.7,1.9-2.8
	c0.5-1.1,0.7-2.2,0.7-3.4c0-1.2-0.2-2.3-0.7-3.4c-0.5-1.1-1.1-2-1.9-2.8c-0.8-0.8-1.8-1.4-2.8-1.9c-1.1-0.4-2.2-0.7-3.5-0.7h-15.2
	V40.7z M142.4,56.5c0.6,0.6,0.9,1.4,0.9,2.3c0,0.9-0.4,1.6-1,2.2c-0.7,0.6-1.5,0.9-2.4,0.8c-0.9,0-1.6-0.4-2.3-1l-13-13.8h-12.8
	v11.4c0,0.9-0.3,1.7-1,2.3c-0.7,0.6-1.4,0.9-2.3,0.9c-0.9,0-1.7-0.3-2.3-0.9c-0.6-0.6-1-1.4-1-2.3V19.9c0-0.9,0.3-1.6,1-2.2
	c0.6-0.6,1.4-1,2.3-1H127c2.1,0,4.1,0.4,6,1.2c1.9,0.8,3.5,1.9,4.9,3.3c1.4,1.4,2.5,3,3.3,4.8c0.8,1.8,1.2,3.8,1.2,5.9
	c0,1.6-0.2,3.2-0.7,4.6c-0.5,1.5-1.2,2.8-2.1,4c-0.9,1.2-1.9,2.3-3.1,3.2c-1.2,0.9-2.5,1.7-4,2.2L142.4,56.5z M62.7,51.1
	c1.7,1.6,3.5,2.8,5.6,3.6c2.1,0.8,4.3,1.3,6.6,1.3s4.5-0.4,6.6-1.3c2.1-0.8,3.9-2,5.5-3.6c1.7-1.6,2.9-3.5,3.8-5.5
	c0.9-2,1.3-4.2,1.3-6.4c0-2.3-0.4-4.4-1.3-6.4c-0.9-2-2.1-3.8-3.8-5.4c-1.6-1.6-3.5-2.9-5.5-3.7c-2.1-0.8-4.3-1.3-6.6-1.3
	s-4.5,0.4-6.6,1.3c-2.1,0.8-3.9,2.1-5.6,3.7c-1.6,1.6-2.8,3.4-3.7,5.4c-0.9,2-1.3,4.2-1.3,6.4c0,2.3,0.4,4.4,1.3,6.4
	C59.9,47.7,61.1,49.5,62.7,51.1z M65.7,17.8c3.1-1.2,6.1-1.8,9.2-1.8c3.1,0,6.2,0.6,9.2,1.8c2.9,1.2,5.4,2.9,7.5,5
	c2.1,2.1,3.8,4.6,5.1,7.4c1.2,2.8,1.8,5.8,1.8,9c0,3.3-0.6,6.3-1.8,9c-1.3,2.8-3,5.3-5.1,7.4c-2.1,2.1-4.7,3.8-7.5,5
	c-2.9,1.2-6,1.8-9.2,1.8c-3.3,0-6.4-0.6-9.2-1.8c-2.9-1.2-5.4-2.9-7.5-5c-2.2-2.2-3.9-4.6-5.1-7.4c-1.2-2.8-1.8-5.8-1.8-9
	c0-3.2,0.6-6.2,1.8-9c1.2-2.7,2.9-5.2,5.1-7.4C60.3,20.7,62.8,19,65.7,17.8z M50.2,16.7c0.9,0,1.6,0.3,2.3,1c0.7,0.6,1,1.4,1,2.2
	c0,0.9-0.3,1.7-1,2.3c-0.7,0.6-1.4,0.9-2.3,0.9H37.5v35.3c0,0.9-0.3,1.7-0.9,2.3c-0.6,0.6-1.4,0.9-2.3,0.9c-0.9,0-1.7-0.3-2.3-0.9
	c-0.6-0.6-1-1.4-1-2.3V23.2H18.3c-0.9,0-1.7-0.3-2.3-0.9c-0.6-0.6-1-1.4-1-2.3c0-0.9,0.3-1.6,1-2.2c0.6-0.6,1.4-1,2.3-1H50.2z"/>
<path class="st1" d="M39.6,149.3V73.9c0-1.2,1-2.2,2.2-2.2H71c1.2,0,2.2,1,2.2,2.2V156c0,32.1-34.2,34.3-35.4,34.2l-22.7-1.1v-28.6
	c0-1,1.2-1.9,2.2-1.9C24.2,158.3,39.6,163.4,39.6,149.3"/>
<path class="st1" d="M295.3,186.9V74c0-1.2,1-2.3,2.3-2.3h30c1.2,0,2.3,1,2.3,2.3v112.9c0,1.2-1,2.3-2.3,2.3h-30
	C296.3,189.2,295.3,188.1,295.3,186.9"/>
<path class="st1" d="M169.6,149.3V73.9c0-1.2,1-2.2,2.2-2.2h29.1c1.2,0,2.2,1,2.2,2.2V156c0,32.1-34.2,34.3-35.4,34.2l-22.7-1.1
	v-28.6c0-1,1.2-1.9,2.2-1.9C154.1,158.3,169.6,163.4,169.6,149.3"/>
<path class="st2" d="M269.1,144.2V73.9c0-1.2,1-2.2,2.2-2.2h29.1c1.2,0,2.2,1,2.2,2.2v71.5c0,29.8-24.8,45-51.6,45
	c-26.8,0-51.6-15.2-51.6-45V73.9c0-1.2,1-2.2,2.2-2.2h29.1c1.2,0,2.2,1,2.2,2.2v70.2c0,14.3,10.6,15.4,18,15.5
	C258.5,159.5,269.1,158.5,269.1,144.2"/>
<path class="st1" d="M325.2,23.9l4.3,2.7c5.5,3.5,7.2,10.9,3.7,16.4l-8.5,13.3c-3.5,5.5-10.9,7.2-16.4,3.7l-4.3-2.7
	c-5.5-3.5-7.2-10.9-3.7-16.4l8.5-13.3C312.3,22.1,319.6,20.4,325.2,23.9"/>
<path class="st2" d="M73.6,71.7h82.3c1.1,0,2.1,0.9,2.1,2.1v27.5c0,1.1-0.9,2.1-2.1,2.1h-51.2v12.4h47.7c1,0,1.9,0.8,1.9,1.9v24.6
	c0,1-0.8,1.9-1.9,1.9h-47.7v14.3H156c1.1,0,2,0.9,2,2v26.4c0,1.1-0.9,2-2,2H73.5c-1.1,0-2-0.9-2-2c0-37.7,0-75.3,0-113
	C71.5,72.6,72.5,71.7,73.6,71.7"/>
</svg>
