<?xml version="1.0" encoding="utf-8"?>
<!-- Generator: Adobe Illustrator 27.9.0, SVG Export Plug-In . SVG Version: 6.00 Build 0)  -->
<svg version="1.1" id="Layer_1" xmlns="http://www.w3.org/2000/svg" xmlns:xlink="http://www.w3.org/1999/xlink" x="0px" y="0px"
	 viewBox="0 0 2500 3363.2" style="enable-background:new 0 0 2500 3363.2;" xml:space="preserve">
<style type="text/css">
	.st0{fill-rule:evenodd;clip-rule:evenodd;fill:transparent;}
	/* .st0{fill-rule:evenodd;clip-rule:evenodd;fill:red;} */
	.fondoDetalles{fill:#E5E5E5;opacity: 0.5;}
	.fondoDetallesLine{fill:none;stroke:gray;stroke-width:3;}
	.titulos{font-family: "Exo", sans-serif;font-weight: 600;font-size:60px;fill: black;}
	.divisoria{fill:none;stroke:gray;stroke-width:3;}
	.icon{fill-rule:evenodd;clip-rule:evenodd;fill:#9B853E;}
	.textos{font-family: "Exo", sans-serif;font-weight: 400;font-size:45px;fill: black;}

	.flecha{fill:#9B853E;}
	.metrosCuadrados{font-family: "Exo", sans-serif;font-weight: 600;font-size:70px;fill: white;}
	.jejui{font-family: "Exo", sans-serif;font-weight: 600;font-size:38px;fill: #663333;}
	.asc{fill-rule:evenodd;clip-rule:evenodd;fill:#bbb;}
	.dpto{fill-rule:evenodd;clip-rule:evenodd;fill:#243A71;}
	.dptoLine{fill:none;stroke:#669898;stroke-width:6;}
	.calle{fill-rule:evenodd;clip-rule:evenodd;fill:#663333;}
	.textos{font-family: "Exo", sans-serif;font-weight: 600;font-size:60px;fill: black;}
	.textosTitu{font-family: "Exo", sans-serif;font-weight: 600;font-size:70px;fill: black;}
	.textosTituB{font-family: "Exo", sans-serif;font-weight: bolder;font-size:70px;fill: white;}
	.re{fill: #243A71;}

	.fondoMono{;fill:#E5E5E5;opacity: 0.5;}
	.fondoMonoLine{fill:none;stroke:gray;stroke-width:2;}
	.lavaderoCocina{fill:#000;}
	.anafe{fill:#000;}
	.lavarropas{fill:#000;}
	.divisorias{opacity:0.5;fill:#1F3973; opacity: 0.5;}
	.referncia{fill:none;stroke:white;stroke-width:2;opacity: 0.5;}
	.comedor{fill:#000;}
	.escritorio{fill:#000;}
	.sofaCama{fill:#000;}
	.balcon{fill:#000;}
	/* .comedor{fill:#9B853E;}
	.escritorio{fill:#9B853E;}
	.sofaCama{fill:#9B853E;}
	.balcon{fill:#9B853E;} */
	.inodoro{fill:#000;}
	.ducha{fill:#000;}
	.lavadoBanio{fill:#000;}
	.mLine{fill:none;stroke:#000;stroke-width:2;}

	.mbalcon1{stroke-dasharray: 306;}
	.mbalcon2{stroke-dasharray: 306;}
	.mMono1{stroke-dasharray: 540;}
	.mMono2{stroke-dasharray: 540;}
	.mBanio1{stroke-dasharray: 165;}
	.mBanio2{stroke-dasharray: 165;}
	.mBanioA1{stroke-dasharray: 195;}
	.mBanioA2{stroke-dasharray: 195;}

	.puertas{fill:none;stroke:#B2B2B2;stroke-width:15;}
	.textos{font-family: "Exo", sans-serif;font-weight: 600;font-size:60px;fill: black;}
	.textosDorado{font-family: "Exo", sans-serif;font-weight: 600;font-size:60px;fill: #9B853E;}
	.paredes{fill:none;stroke:#4D4D4D;stroke-width:40;}
	.banio1{stroke-dasharray: 490;}
	.banio2{stroke-dasharray: 320;}
	.arriba{stroke-dasharray: 1780;}
	.abajo{stroke-dasharray: 3300;}
</style>
<rect x="3.9" y="5.3" class="st0" width="2492.1" height="3352.6"/>
<g class="servicosAdicionales">
	<path class="fondoDetalles" d="M133.7,1005.1h2232.7c33.8,0,61.4-27.6,61.4-61.4V135.2c0-33.8-27.6-61.4-61.4-61.4H133.7
		c-33.8,0-61.4,27.6-61.4,61.4v808.5C72.3,977.5,99.9,1005.1,133.7,1005.1z"/>
	<path class="fondoDetallesLine" d="M133.7,1005.1h2232.7c33.8,0,61.4-27.6,61.4-61.4V135.2c0-33.8-27.6-61.4-61.4-61.4H133.7
		c-33.8,0-61.4,27.6-61.4,61.4v808.5C72.3,977.5,99.9,1005.1,133.7,1005.1z"/>
	<text transform="matrix(1 0 0 1 248.4816 192.9366)" class="titulos">SERVICIOS</text>
	<text transform="matrix(1 0 0 1 1573.0481 385.0773)" class="textos">Pavimento</text>
	<text transform="matrix(1 0 0 1 1573.8489 304.4054)" class="textos">Cloaca</text>
	<text transform="matrix(1 0 0 1 293.0285 380.4093)" class="textos">Energía trifásica</text>
	<text transform="matrix(1 0 0 1 250.132 608.1554)" class="titulos">ADICIONALES</text>
	<text transform="matrix(1 0 0 1 293.8332 795.6281)" class="textos">Quincho</text>
	<text transform="matrix(1 0 0 1 293.8312 713.3488)" class="textos">Gimnasio</text>
	<text transform="matrix(1 0 0 1 953.5773 799.2921)" class="textos">Pileta</text>
	<text transform="matrix(1 0 0 1 293.7902 461.5206)" class="textos">Seguridad 24hs</text>
	<line class="divisoria" x1="251.5" y1="224.9" x2="1907.8" y2="224.9"/>
	<line class="divisoria" x1="251.5" y1="635.3" x2="1907.8" y2="635.3"/>
	<path class="icon" d="M264.2,262.8h-28.6c-5.7,0-10.4,4.7-10.4,10.4v28.6c0,5.7,4.7,10.4,10.4,10.4h28.6c5.7,0,10.4-4.7,10.4-10.4
		v-28.6C274.6,267.5,269.9,262.8,264.2,262.8 M247.3,298.2l19-19c0.4-0.4,0.6-0.9,0.6-1.5c0-0.5-0.2-1.1-0.6-1.5
		c-0.4-0.4-0.9-0.6-1.5-0.6c-0.5,0-1.1,0.2-1.5,0.6l-19,19l-8.1-8.1c-0.4-0.4-0.9-0.6-1.5-0.6s-1.1,0.2-1.5,0.6
		c-0.4,0.4-0.6,0.9-0.6,1.5c0,0.5,0.2,1.1,0.6,1.5l8.1,8.1c0.8,0.8,1.8,1.2,2.9,1.2C245.5,299.4,246.5,298.9,247.3,298.2z
		 M235.6,267.4h28.6c3.2,0,5.8,2.6,5.8,5.8v28.6c0,3.2-2.6,5.8-5.8,5.8h-28.6c-3.2,0-5.8-2.6-5.8-5.8v-28.6
		C229.8,270,232.4,267.4,235.6,267.4z"/>
	<path class="icon" d="M264.2,344h-28.6c-5.7,0-10.4,4.7-10.4,10.4V383c0,5.7,4.7,10.4,10.4,10.4h28.6c5.7,0,10.4-4.7,10.4-10.4
		v-28.6C274.6,348.7,269.9,344,264.2,344 M247.3,379.4l19-19c0.4-0.4,0.6-0.9,0.6-1.5c0-0.5-0.2-1.1-0.6-1.5
		c-0.4-0.4-0.9-0.6-1.5-0.6c-0.5,0-1.1,0.2-1.5,0.6l-19,19l-8.1-8.1c-0.4-0.4-0.9-0.6-1.5-0.6s-1.1,0.2-1.5,0.6
		c-0.4,0.4-0.6,0.9-0.6,1.5c0,0.5,0.2,1.1,0.6,1.5l8.1,8.1c0.8,0.8,1.8,1.2,2.9,1.2C245.5,380.6,246.5,380.2,247.3,379.4z
		 M235.6,348.6h28.6c3.2,0,5.8,2.6,5.8,5.8V383c0,3.2-2.6,5.8-5.8,5.8h-28.6c-3.2,0-5.8-2.6-5.8-5.8v-28.6
		C229.8,351.2,232.4,348.6,235.6,348.6z"/>
	<path class="icon" d="M264.2,425.3h-28.6c-5.7,0-10.4,4.7-10.4,10.4v28.6c0,5.7,4.7,10.4,10.4,10.4h28.6c5.7,0,10.4-4.7,10.4-10.4
		v-28.6C274.6,429.9,269.9,425.3,264.2,425.3 M247.3,460.6l19-19c0.4-0.4,0.6-0.9,0.6-1.5c0-0.5-0.2-1.1-0.6-1.5
		c-0.4-0.4-0.9-0.6-1.5-0.6c-0.5,0-1.1,0.2-1.5,0.6l-19,19l-8.1-8.1c-0.4-0.4-0.9-0.6-1.5-0.6s-1.1,0.2-1.5,0.6
		c-0.4,0.4-0.6,0.9-0.6,1.5c0,0.5,0.2,1.1,0.6,1.5l8.1,8.1c0.8,0.8,1.8,1.2,2.9,1.2C245.5,461.8,246.5,461.4,247.3,460.6z
		 M235.6,429.8h28.6c3.2,0,5.8,2.6,5.8,5.8v28.6c0,3.2-2.6,5.8-5.8,5.8h-28.6c-3.2,0-5.8-2.6-5.8-5.8v-28.6
		C229.8,432.4,232.4,429.8,235.6,429.8z"/>
	<path class="icon" d="M264.2,672.2h-28.6c-5.7,0-10.4,4.7-10.4,10.4v28.6c0,5.7,4.7,10.4,10.4,10.4h28.6c5.7,0,10.4-4.7,10.4-10.4
		v-28.6C274.6,676.9,269.9,672.2,264.2,672.2 M247.3,707.6l19-19c0.4-0.4,0.6-0.9,0.6-1.5c0-0.5-0.2-1.1-0.6-1.5
		c-0.4-0.4-0.9-0.6-1.5-0.6c-0.5,0-1.1,0.2-1.5,0.6l-19,19l-8.1-8.1c-0.4-0.4-0.9-0.6-1.5-0.6s-1.1,0.2-1.5,0.6
		c-0.4,0.4-0.6,0.9-0.6,1.5c0,0.5,0.2,1.1,0.6,1.5l8.1,8.1c0.8,0.8,1.8,1.2,2.9,1.2C245.5,708.8,246.5,708.4,247.3,707.6z
		 M235.6,676.8h28.6c3.2,0,5.8,2.6,5.8,5.8v28.6c0,3.2-2.6,5.8-5.8,5.8h-28.6c-3.2,0-5.8-2.6-5.8-5.8v-28.6
		C229.8,679.4,232.4,676.8,235.6,676.8z"/>
	<path class="icon" d="M264.2,757.7h-28.6c-5.7,0-10.4,4.7-10.4,10.4v28.6c0,5.7,4.7,10.4,10.4,10.4h28.6c5.7,0,10.4-4.7,10.4-10.4
		v-28.6C274.6,762.4,269.9,757.7,264.2,757.7 M247.3,793.1l19-19c0.4-0.4,0.6-0.9,0.6-1.5c0-0.5-0.2-1.1-0.6-1.5
		c-0.4-0.4-0.9-0.6-1.5-0.6c-0.5,0-1.1,0.2-1.5,0.6l-19,19l-8.1-8.1c-0.4-0.4-0.9-0.6-1.5-0.6s-1.1,0.2-1.5,0.6
		c-0.4,0.4-0.6,0.9-0.6,1.5c0,0.5,0.2,1.1,0.6,1.5l8.1,8.1c0.8,0.8,1.8,1.2,2.9,1.2C245.5,794.3,246.5,793.8,247.3,793.1z
		 M235.6,762.3h28.6c3.2,0,5.8,2.6,5.8,5.8v28.6c0,3.2-2.6,5.8-5.8,5.8h-28.6c-3.2,0-5.8-2.6-5.8-5.8v-28.6
		C229.8,764.9,232.4,762.3,235.6,762.3z"/>
	<path class="icon" d="M264.2,845.8h-28.6c-5.7,0-10.4,4.7-10.4,10.4v28.6c0,5.7,4.7,10.4,10.4,10.4h28.6c5.7,0,10.4-4.7,10.4-10.4
		v-28.6C274.6,850.5,269.9,845.8,264.2,845.8 M247.3,881.2l19-19c0.4-0.4,0.6-0.9,0.6-1.5c0-0.5-0.2-1.1-0.6-1.5
		c-0.4-0.4-0.9-0.6-1.5-0.6c-0.5,0-1.1,0.2-1.5,0.6l-19,19l-8.1-8.1c-0.4-0.4-0.9-0.6-1.5-0.6s-1.1,0.2-1.5,0.6
		c-0.4,0.4-0.6,0.9-0.6,1.5c0,0.5,0.2,1.1,0.6,1.5l8.1,8.1c0.8,0.8,1.8,1.2,2.9,1.2C245.5,882.4,246.5,882,247.3,881.2z
		 M235.6,850.4h28.6c3.2,0,5.8,2.6,5.8,5.8v28.6c0,3.2-2.6,5.8-5.8,5.8h-28.6c-3.2,0-5.8-2.6-5.8-5.8v-28.6
		C229.8,853,232.4,850.4,235.6,850.4z"/>
	<path class="icon" d="M914.3,262.8h-28.6c-5.7,0-10.4,4.7-10.4,10.4v28.6c0,5.7,4.7,10.4,10.4,10.4h28.6c5.7,0,10.4-4.7,10.4-10.4
		v-28.6C924.7,267.5,920,262.8,914.3,262.8 M897.4,298.2l19-19c0.4-0.4,0.6-0.9,0.6-1.5c0-0.5-0.2-1.1-0.6-1.5
		c-0.4-0.4-0.9-0.6-1.5-0.6s-1.1,0.2-1.5,0.6l-19,19l-8.1-8.1c-0.4-0.4-0.9-0.6-1.5-0.6s-1.1,0.2-1.5,0.6c-0.4,0.4-0.6,0.9-0.6,1.5
		c0,0.5,0.2,1.1,0.6,1.5l8.1,8.1c0.8,0.8,1.8,1.2,2.9,1.2C895.6,299.4,896.7,298.9,897.4,298.2z M885.7,267.4h28.6
		c3.2,0,5.8,2.6,5.8,5.8v28.6c0,3.2-2.6,5.8-5.8,5.8h-28.6c-3.2,0-5.8-2.6-5.8-5.8v-28.6C879.9,270,882.5,267.4,885.7,267.4z"/>
	<path class="icon" d="M914.3,344h-28.6c-5.7,0-10.4,4.7-10.4,10.4V383c0,5.7,4.7,10.4,10.4,10.4h28.6c5.7,0,10.4-4.7,10.4-10.4
		v-28.6C924.7,348.7,920,344,914.3,344 M897.4,379.4l19-19c0.4-0.4,0.6-0.9,0.6-1.5c0-0.5-0.2-1.1-0.6-1.5c-0.4-0.4-0.9-0.6-1.5-0.6
		s-1.1,0.2-1.5,0.6l-19,19l-8.1-8.1c-0.4-0.4-0.9-0.6-1.5-0.6s-1.1,0.2-1.5,0.6c-0.4,0.4-0.6,0.9-0.6,1.5c0,0.5,0.2,1.1,0.6,1.5
		l8.1,8.1c0.8,0.8,1.8,1.2,2.9,1.2C895.6,380.6,896.7,380.2,897.4,379.4z M885.7,348.6h28.6c3.2,0,5.8,2.6,5.8,5.8V383
		c0,3.2-2.6,5.8-5.8,5.8h-28.6c-3.2,0-5.8-2.6-5.8-5.8v-28.6C879.9,351.2,882.5,348.6,885.7,348.6z"/>
	<path class="icon" d="M914.3,425.3h-28.6c-5.7,0-10.4,4.7-10.4,10.4v28.6c0,5.7,4.7,10.4,10.4,10.4h28.6c5.7,0,10.4-4.7,10.4-10.4
		v-28.6C924.7,429.9,920,425.3,914.3,425.3 M897.4,460.6l19-19c0.4-0.4,0.6-0.9,0.6-1.5c0-0.5-0.2-1.1-0.6-1.5
		c-0.4-0.4-0.9-0.6-1.5-0.6s-1.1,0.2-1.5,0.6l-19,19l-8.1-8.1c-0.4-0.4-0.9-0.6-1.5-0.6s-1.1,0.2-1.5,0.6c-0.4,0.4-0.6,0.9-0.6,1.5
		c0,0.5,0.2,1.1,0.6,1.5l8.1,8.1c0.8,0.8,1.8,1.2,2.9,1.2C895.6,461.8,896.7,461.4,897.4,460.6z M885.7,429.8h28.6
		c3.2,0,5.8,2.6,5.8,5.8v28.6c0,3.2-2.6,5.8-5.8,5.8h-28.6c-3.2,0-5.8-2.6-5.8-5.8v-28.6C879.9,432.4,882.5,429.8,885.7,429.8z"/>
	<path class="icon" d="M914.3,672.2h-28.6c-5.7,0-10.4,4.7-10.4,10.4v28.6c0,5.7,4.7,10.4,10.4,10.4h28.6c5.7,0,10.4-4.7,10.4-10.4
		v-28.6C924.7,676.9,920,672.2,914.3,672.2 M897.4,707.6l19-19c0.4-0.4,0.6-0.9,0.6-1.5c0-0.5-0.2-1.1-0.6-1.5
		c-0.4-0.4-0.9-0.6-1.5-0.6s-1.1,0.2-1.5,0.6l-19,19l-8.1-8.1c-0.4-0.4-0.9-0.6-1.5-0.6s-1.1,0.2-1.5,0.6c-0.4,0.4-0.6,0.9-0.6,1.5
		c0,0.5,0.2,1.1,0.6,1.5l8.1,8.1c0.8,0.8,1.8,1.2,2.9,1.2C895.6,708.8,896.7,708.4,897.4,707.6z M885.7,676.8h28.6
		c3.2,0,5.8,2.6,5.8,5.8v28.6c0,3.2-2.6,5.8-5.8,5.8h-28.6c-3.2,0-5.8-2.6-5.8-5.8v-28.6C879.9,679.4,882.5,676.8,885.7,676.8z"/>
	<path class="icon" d="M914.3,757.7h-28.6c-5.7,0-10.4,4.7-10.4,10.4v28.6c0,5.7,4.7,10.4,10.4,10.4h28.6c5.7,0,10.4-4.7,10.4-10.4
		v-28.6C924.7,762.4,920,757.7,914.3,757.7 M897.4,793.1l19-19c0.4-0.4,0.6-0.9,0.6-1.5c0-0.5-0.2-1.1-0.6-1.5
		c-0.4-0.4-0.9-0.6-1.5-0.6s-1.1,0.2-1.5,0.6l-19,19l-8.1-8.1c-0.4-0.4-0.9-0.6-1.5-0.6s-1.1,0.2-1.5,0.6c-0.4,0.4-0.6,0.9-0.6,1.5
		c0,0.5,0.2,1.1,0.6,1.5l8.1,8.1c0.8,0.8,1.8,1.2,2.9,1.2C895.6,794.3,896.7,793.8,897.4,793.1z M885.7,762.3h28.6
		c3.2,0,5.8,2.6,5.8,5.8v28.6c0,3.2-2.6,5.8-5.8,5.8h-28.6c-3.2,0-5.8-2.6-5.8-5.8v-28.6C879.9,764.9,882.5,762.3,885.7,762.3z"/>
	<path class="icon" d="M1547.2,262.8h-28.6c-5.7,0-10.4,4.7-10.4,10.4v28.6c0,5.7,4.7,10.4,10.4,10.4h28.6c5.7,0,10.4-4.7,10.4-10.4
		v-28.6C1557.6,267.5,1552.9,262.8,1547.2,262.8 M1530.3,298.2l19-19c0.4-0.4,0.6-0.9,0.6-1.5c0-0.5-0.2-1.1-0.6-1.5
		c-0.4-0.4-0.9-0.6-1.5-0.6c-0.5,0-1.1,0.2-1.5,0.6l-19,19l-8.1-8.1c-0.4-0.4-0.9-0.6-1.5-0.6c-0.5,0-1.1,0.2-1.5,0.6
		c-0.4,0.4-0.6,0.9-0.6,1.5c0,0.5,0.2,1.1,0.6,1.5l8.1,8.1c0.8,0.8,1.8,1.2,2.9,1.2C1528.5,299.4,1529.5,298.9,1530.3,298.2z
		 M1518.5,267.4h28.6c3.2,0,5.8,2.6,5.8,5.8v28.6c0,3.2-2.6,5.8-5.8,5.8h-28.6c-3.2,0-5.8-2.6-5.8-5.8v-28.6
		C1512.7,270,1515.3,267.4,1518.5,267.4z"/>
	<path class="icon" d="M1547.2,344h-28.6c-5.7,0-10.4,4.7-10.4,10.4V383c0,5.7,4.7,10.4,10.4,10.4h28.6c5.7,0,10.4-4.7,10.4-10.4
		v-28.6C1557.6,348.7,1552.9,344,1547.2,344 M1530.3,379.4l19-19c0.4-0.4,0.6-0.9,0.6-1.5c0-0.5-0.2-1.1-0.6-1.5
		c-0.4-0.4-0.9-0.6-1.5-0.6c-0.5,0-1.1,0.2-1.5,0.6l-19,19l-8.1-8.1c-0.4-0.4-0.9-0.6-1.5-0.6c-0.5,0-1.1,0.2-1.5,0.6
		c-0.4,0.4-0.6,0.9-0.6,1.5c0,0.5,0.2,1.1,0.6,1.5l8.1,8.1c0.8,0.8,1.8,1.2,2.9,1.2C1528.5,380.6,1529.5,380.2,1530.3,379.4z
		 M1518.5,348.6h28.6c3.2,0,5.8,2.6,5.8,5.8V383c0,3.2-2.6,5.8-5.8,5.8h-28.6c-3.2,0-5.8-2.6-5.8-5.8v-28.6
		C1512.7,351.2,1515.3,348.6,1518.5,348.6z"/>
	<text transform="matrix(1 0 0 1 294.9523 298.5988)" class="textos">Agua Corriente</text>
	<text transform="matrix(1 0 0 1 953.5773 299.2452)" class="textos">Lobby</text>
	<text transform="matrix(1 0 0 1 953.5773 385.6163)" class="textos">Bauleras</text>
	<text transform="matrix(1 0 0 1 954.382 466.8585)" class="textos">Cocheras</text>
	<text transform="matrix(1 0 0 1 293.8332 882.0773)" class="textos">Coworking</text>
	<text transform="matrix(1 0 0 1 955.4992 713.8156)" class="textos">Aire Acondicionado</text>
</g>
<g class="medio">
	<rect class="re" x="570" y="1089.6" width="820.8" height="118.4"/>
	<path class="flecha" d="M1227.7,1135.8l19.1-32.7c4.9-8.3,13.9-13.5,23.5-13.5h216.2c9.7,0,18.7,5.2,23.5,13.5v92.9
		c-4.9,8.3-13.9,13.5-23.5,13.5h-216.2c-9.7,0-18.7-5.2-23.5-13.5l-19.1-32.7C1222.8,1154.8,1222.8,1144.3,1227.7,1135.8z"/>
	<text transform="matrix(1 0 0 1 1289.8411 1173.6573)" class="metrosCuadrados">30m²</text>
	<polygon class="asc" points="2038,1279.4 2038,1427.9 1993.5,1427.9 1993.5,1463 1971.4,1463 1971.4,1611.3 2040.4,1611.3 
		2040.4,1618.9 2096.2,1618.9 2096.2,1611.3 2113.9,1611.3 2131.6,1611.3 2131.6,1618.9 2187.3,1618.9 2187.3,1611.3 2256.3,1611.3 
		2256.3,1463 2234.2,1463 2234.2,1428.1 2190.5,1428.1 2146.9,1428.1 2146.9,1407.2 2190.5,1407.2 2190.5,1300.6 2146.9,1300.6 
		2146.9,1279.7 2190.5,1279.7 2234.2,1279.7 2234.2,1246.6 2256.3,1246.6 2256.3,1097.3 2187.3,1097.3 2187.3,1089.6 2131.6,1089.6 
		2131.6,1097.3 2113.9,1097.3 2096.2,1097.3 2096.2,1089.6 2040.4,1089.6 2040.4,1097.3 1971.4,1097.3 1971.4,1246.6 1993.5,1246.6 
		1993.5,1279.4 	"/>
	<polygon class="dpto" points="2256.3,1245.6 2234.2,1245.6 2234.2,1279.7 2333,1279.7 2333,1097.2 2298,1097.2 2298,1089.6 
		2256.3,1089.6 	"/>
	<polygon class="dptoLine" points="2256.3,1245.6 2234.2,1245.6 2234.2,1279.7 2333,1279.7 2333,1097.2 2298,1097.2 2298,1089.6 
		2256.3,1089.6 	"/>
	<polygon class="dpto" points="1971.4,1245.6 1993.5,1245.6 1993.5,1279.7 1894.7,1279.7 1894.7,1097.2 1929.7,1097.2 1929.7,1089.6 
		1971.5,1089.6 	"/>
	<polygon class="dptoLine" points="1971.4,1245.6 1993.5,1245.6 1993.5,1279.7 1894.7,1279.7 1894.7,1097.2 1929.7,1097.2 1929.7,1089.6 
		1971.5,1089.6 	"/>
	<polygon class="dpto" points="2256.3,1463 2234.2,1463 2234.2,1428.9 2333,1428.9 2333,1611.3 2298,1611.3 2298,1618.9 
		2256.3,1618.9 	"/>
	<polygon class="dptoLine" points="2256.3,1463 2234.2,1463 2234.2,1428.9 2333,1428.9 2333,1611.3 2298,1611.3 2298,1618.9 
		2256.3,1618.9 	"/>
	<polygon class="dpto" points="1971.4,1463 1993.5,1463 1993.5,1428.9 1894.7,1428.9 1894.7,1611.3 1929.7,1611.3 1929.7,1618.9 
		1971.5,1618.9 	"/>
	<polygon class="dptoLine" points="1971.4,1463 1993.5,1463 1993.5,1428.9 1894.7,1428.9 1894.7,1611.3 1929.7,1611.3 1929.7,1618.9 
		1971.5,1618.9 	"/>
	<path class="calle" d="M2332.3,1741v12.3h-436.9V1741H2332.3z M1935.6,1718.6v4.3h-31.8v-4.3H1935.6z M1978.7,1718.6v4.3h-31.8v-4.3
		H1978.7z M2021.9,1718.6v4.3h-31.8v-4.3H2021.9z M2237.6,1718.6v4.3h-31.8v-4.3H2237.6z M2280.8,1718.6v4.3H2249v-4.3H2280.8z
		 M2324,1718.6v4.3h-31.8v-4.3H2324z M2332.3,1688.8v12.3h-436.9v-12.3H2332.3z"/>
	<text transform="matrix(1 0 0 1 2067.1243 1738.8077)" class="jejui">JEJUÍ</text>
	<text transform="matrix(1 0 0 1 906.466 1338.6769)" class="textos">NIVELES</text>
	<text transform="matrix(1 0 0 1 877.1418 1421.3546)" class="textos">del 5 al 11</text>
	<text transform="matrix(1 0 0 1 166.0363 1182.3624)" class="textosTitu">TIPOLOGÍA :</text>
	<text transform="matrix(1 0 0 1 610.4484 1182.3624)" class="textosTituB">MONOAMBIENTE</text>
	<text transform="matrix(1 0 0 1 603.673 1577.6593)" class="textos">COCINA - COMEDOR</text>
	<text transform="matrix(1 0 0 1 448.4484 1660.337)" class="textos">DORMITORIO INTEGRADO</text>
	<text transform="matrix(1 0 0 1 702.8976 1743.0128)" class="textos">BAÑO - BALCÓN</text>

</g>
<g class="tipologiaSVG">
	<g>
	<rect x="291.1" y="2250.7" class="divisorias" width="259.8" height="425.3"/>
	<rect x="626.3" y="2250.7" class="divisorias" width="490" height="740.4"/>
	<rect x="1623.5" y="2483.1" class="divisorias" width="148.8" height="507.9"/>
	<rect x="1772.3" y="2691.1" class="divisorias" width="188.2" height="300"/>
	<path class="fondoMono" d="M165.4,1876.1h2169.1c51.2,0,93.2,41.9,93.2,93.2v1227c0,51.2-41.9,93.2-93.2,93.2H165.4 c-51.2,0-93.2-41.9-93.2-93.2v-1227C72.3,1918,114.2,1876.1,165.4,1876.1z"/>
	<path class="fondoMonoLine" d="M165.4,1876.1h2169.1c51.2,0,93.2,41.9,93.2,93.2v1227c0,51.2-41.9,93.2-93.2,93.2H165.4 c-51.2,0-93.2-41.9-93.2-93.2v-1227C72.3,1918,114.2,1876.1,165.4,1876.1z"/>
	

	<line class="paredes banio1" x1="1772.3" y1="2991" x2="1772.3" y2="2483.1"/>
	<path class="paredes  banio2" d="M2149.5,2483.1h59.5 M1613.6,2483.1h309"/>
	<polyline class="paredes arriba" points="1932.6,2028.4 1874.6,2028.4 1874.6,2250.7 378.4,2250.7"/>
	<polyline class="paredes abajo" points="560.1,2675.9 401.6,2675.9 401.6,2991 2209.1,2991 2209.1,2028.4 2151.1,2028.4"/>
	<polyline class="mLine mMono1" points="560.1,3085.3 560.1,3115 1063.1,3115 	"/>
	<polyline class="mLine mbalcon1" points="196.9,2250.7 167.2,2250.7 167.2,2526.6 	"/>
	<polyline class="mLine mBanioA2" points="2303.3,2483.1 2333,2483.1 2333,2642.9 	"/>
	<polyline class="mLine mBanio2" points="2209.1,3085.3 2209.1,3115 2076,3115 	"/>
	<polyline class="mLine mbalcon2" points="196.9,2991 167.2,2991 167.2,2715.1 	"/>
	<polyline class="mLine mMono2" points="1754.5,3085.3 1754.5,3115 1251.5,3115 	"/>
	<polyline class="mLine mBanio1" points="1754.5,3085.3 1754.5,3115 1887.5,3115 	"/>
	<polyline class="mLine mBanioA1" points="2303.3,2991 2333,2991 2333,2831.3 	"/>

	<text transform="matrix(1 0 0 1 1087.634 3136.7532)" class="textos">4.8m</text>
	<text transform="matrix(1 0 0 1 1918.8625 3136.7844)" class="textos">1.8m</text>
	<text transform="matrix(-6.123234e-17 -1 1 -6.123234e-17 2354.8958 2794.009)" class="textos">2.1m</text>
	<text transform="matrix(-6.123234e-17 -1 1 -6.123234e-17 188.9367 2680.3)" class="textos">3.1m</text>

	
	
	<path class="lavarropas" d="M1655,2828.9c-2.6,0-4.6,2-4.6,4.6v18.2h25.6v-22.8H1655z M1681.9,2851.5h62.9v-18.4c0-2.4-2-4.4-4.4-4.4
		h-58.5V2851.5z M1650.6,2927.2c0,2.4,2,4.4,4.4,4.4h85.7c2.4,0,4.4-2,4.4-4.4v-69.7h-94.5V2927.2z M1655,2937.4
		c-5.6,0-10.2-4.6-10.2-10.2v-93.9c0-5.8,4.6-10.4,10.4-10.4h85.5c5.8,0,10.2,4.6,10.4,10.4v93.9c0,5.6-4.6,10.2-10.2,10.2H1655z"/>
	<path class="lavarropas" d="M1697.7,2870.3c-13.8,0-25,11.2-25,25s11.2,25,25,25c13.8,0,25-11.2,25-25S1711.5,2870.3,1697.7,2870.3
		 M1697.7,2926c-17,0-30.8-13.8-30.8-30.8c0-17,13.8-30.8,30.8-30.8c17,0,30.8,13.8,30.8,30.8
		C1728.5,2912.2,1714.7,2926,1697.7,2926z"/>
	<rect x="1658.8" y="2837.1" class="lavarropas" width="6.6" height="6.6"/>
	<rect x="1728.9" y="2837.1" class="lavarropas" width="6.6" height="6.6"/>
	<path class="lavarropas" d="M1689.9,2913c-1.6,0-3-1.4-3-3c0-2.2,0.6-3.4,1-4c0.4-0.8,0.4-1.2,0.4-1.8c0-0.6,0-1-0.4-1.8
		c-0.4-0.6-1-1.8-1-4c0-2.2,0.6-3.4,1-4c0.4-0.8,0.4-1.2,0.4-1.8c0-0.6,0-1-0.4-1.8c-0.4-0.6-1-1.8-1-4c0-2.2,0.6-3.4,1-4
		c0.4-0.8,0.4-1.2,0.4-1.8c0-1.6,1.4-3,3-3c1.6,0,2.8,0.6,2.8,2.2c0,2.2-0.6,3.4-1,4c-0.4,0.8-0.4,1.2-0.4,1.8c0,0.8,0,1,0.4,1.8
		c0.4,0.6,1,1.8,1,4c0,2.2-0.6,3.4-1,4c-0.4,0.8-0.4,1.2-0.4,1.8c0,0.8,0,1,0.4,1.8c0.4,0.6,1,1.8,1,4c0,2.2-0.6,3.4-1,4
		c-0.4,0.8-0.4,1.2-0.4,1.8C1692.9,2911.6,1691.5,2913,1689.9,2913"/>
	<path class="lavarropas" d="M1704.1,2913c-1.6,0-3-1.4-3-3c0-2.2,0.6-3.4,1-4c0.4-0.8,0.4-1.2,0.4-1.8c0-0.6,0-1-0.4-1.8
		c-0.4-0.6-1-1.8-1-4c0-2.2,0.6-3.4,1-4c0.4-0.8,0.4-1.2,0.4-1.8c0-0.6,0-1-0.4-1.8c-0.4-0.6-1-1.8-1-4c0-2.2,0.6-3.4,1-4
		c0.4-0.8,0.4-1.2,0.4-1.8c0-1.6,1.4-3,3-3c1.6,0,3,1.4,3,3c0,2.2-0.6,3.4-1,4c-0.4,0.8-0.4,1.2-0.4,1.8c0,0.8,0,1,0.4,1.8
		c0.4,0.6,1,1.8,1,4c0,2.2-0.6,3.4-1,4c-0.4,0.8-0.4,1.2-0.4,1.8c0,0.8,0,1,0.4,1.8c0.4,0.6,1,1.8,1,4c0,2.2-0.6,3.4-1,4
		c-0.4,0.8-0.4,1.2-0.4,1.8C1707.1,2911.6,1705.7,2913,1704.1,2913"/>
	<polygon class="comedor" points="1233,2780.1 1279.3,2780.1 1285.6,2830.6 1291.4,2830.6 1291.4,2780.1 1291.4,2763.2 1277.2,2763.2 
		1234.4,2763.2 1234.1,2763.2 1228.6,2673.3 1218.3,2673.3 1218.3,2763.2 1218.3,2768.8 1218.3,2780.1 1218.3,2830.6 1228.6,2830.6 
			"/>
	<path class="comedor" d="M1238,2757.6h50.6c1.6,0,2.8-1.3,2.8-2.8c0-1.6-1.3-2.8-2.8-2.8H1238c-1.6,0-2.8,1.3-2.8,2.8
		C1235.2,2756.3,1236.4,2757.6,1238,2757.6"/>
	<polygon class="comedor" points="1521.5,2763.2 1521.2,2763.2 1478.4,2763.2 1460,2763.2 1460,2780.1 1460,2830.6 1470,2830.6 
		1476.3,2780.1 1522.6,2780.1 1527,2830.6 1538.7,2830.6 1538.7,2780.1 1538.7,2768.8 1538.7,2763.2 1538.7,2673.3 1527,2673.3 	"/>
	<path class="comedor" d="M1460,2754.8c0,1.6,1.3,2.8,2.8,2.8h50.6c1.6,0,2.8-1.3,2.8-2.8c0-1.6-1.3-2.8-2.8-2.8h-50.6
		C1461.3,2752,1460,2753.2,1460,2754.8"/>
	<path class="comedor" d="M1421.1,2712.6l0.8,11.2h-91.7l0.8-11.2H1421.1z M1268.2,2712.6h45.6v118h8.7l6.7-95.5h93.3l6.8,95.5h8.1v-118
		h51.2c2.7,0,5-2.2,5-5v-1.3c0-2.7-2.2-5-5-5h-220.5c-2.7,0-5,2.2-5,5v1.3C1263.3,2710.4,1265.5,2712.6,1268.2,2712.6z"/>
	<path class="anafe" d="M1660.2,2768.5c-2.6,0-4.7-2.1-4.7-4.7c0-2.6,2.1-4.7,4.7-4.7c2.6,0,4.7,2.1,4.7,4.7
		C1664.9,2766.4,1662.8,2768.5,1660.2,2768.5 M1660.2,2730.8c-2.6,0-4.7-2.1-4.7-4.7c0-2.6,2.1-4.7,4.7-4.7c2.6,0,4.7,2.1,4.7,4.7
		C1664.9,2728.7,1662.8,2730.8,1660.2,2730.8z M1749.7,2787.4h-70.7v-84.8h70.7V2787.4z M1646.1,2780.3v-70.7c0-3.9,3.2-7.1,7.1-7.1
		h21.2v84.8h-21.2C1649.3,2787.4,1646.1,2784.2,1646.1,2780.3z M1722.9,2723.9c0-5.3-4.3-9.6-9.6-9.6c-5.3,0-9.6,4.3-9.6,9.6
		c0,5.3,4.3,9.6,9.6,9.6C1718.6,2733.5,1722.9,2729.2,1722.9,2723.9z M1713.3,2706.6c-9.5,0-17.3,7.7-17.3,17.3
		c0,9.5,7.7,17.3,17.3,17.3c9.5,0,17.3-7.7,17.3-17.3C1730.6,2714.4,1722.8,2706.6,1713.3,2706.6z M1713.3,2710.3
		c7.5,0,13.6,6.1,13.6,13.6c0,7.5-6.1,13.6-13.6,13.6c-7.5,0-13.6-6.1-13.6-13.6C1699.7,2716.4,1705.8,2710.3,1713.3,2710.3z
		 M1722.9,2766c0-5.3-4.3-9.6-9.6-9.6c-5.3,0-9.6,4.3-9.6,9.6c0,5.3,4.3,9.6,9.6,9.6C1718.6,2775.7,1722.9,2771.4,1722.9,2766z
		 M1713.3,2748.8c-9.5,0-17.3,7.7-17.3,17.3c0,9.5,7.7,17.3,17.3,17.3c9.5,0,17.3-7.7,17.3-17.3
		C1730.6,2756.5,1722.8,2748.8,1713.3,2748.8z M1713.3,2752.4c7.5,0,13.6,6.1,13.6,13.6c0,7.5-6.1,13.6-13.6,13.6
		c-7.5,0-13.6-6.1-13.6-13.6C1699.7,2758.5,1705.8,2752.4,1713.3,2752.4z M1641.4,2709.6v70.7c0,6.5,5.3,11.8,11.8,11.8h101.3v-94.2
		h-101.3C1646.7,2697.9,1641.4,2703.1,1641.4,2709.6z"/>
	<rect x="681.1" y="2485.1" class="referncia" width="380.3" height="337.7"/>
	<path class="escritorio" d="M984,2445.3h-11c-4.5,0-8.2-3.7-8.2-8.2v-17.7h27.5v17.7C992.2,2441.6,988.5,2445.3,984,2445.3z M984,2382.4
		c4.5,0,8.2,3.7,8.2,8.2v17.7h-27.5v-25.9H984z M777.8,2319.6v-20.4c0-6.1,4.9-11,11-11h164.9c6.1,0,11,4.9,11,11v20.4
		c0,6.1-4.9,11-11,11l-164.9,0C782.8,2330.6,777.8,2325.7,777.8,2319.6z M984,2371.5H876.8v-29.8h76.9c12.1,0,22-9.9,22-22v-20.4
		c0-12.1-9.9-22-22-22H788.8c-12.1,0-22,9.9-22,22v20.4c0,12.1,9.9,22,22,22h76.9v29.8H744.9c-3,0-5.5,2.5-5.5,5.5s2.5,5.5,5.5,5.5
		h5.5v68.3c0,3,2.5,5.5,5.5,5.5c3,0,5.5-2.5,5.5-5.5v-68.3h192.4v54.6c0,10.6,8.6,19.2,19.2,19.2h11c10.6,0,19.2-8.6,19.2-19.2
		v-46.3C1003.2,2380.1,994.6,2371.5,984,2371.5z"/>
	<ellipse class="referncia" cx="878.3" cy="2642.6" rx="81" ry="77.8"/>
	<path class="balcon" d="M491.4,2535.9h-16.2v-104.2h16.2V2535.9z M491.4,2545.7H379.3v-4.1h112.1V2545.7z M379.3,2431.7h16.2v104.2
		h-16.2V2431.7z M420.2,2431.7v104.2h-19v-104.2H420.2z M444.9,2431.7v104.2h-19v-104.2H444.9z M469.6,2431.7v104.2h-19v-104.2
		H469.6z M426.5,2405.1h-52.9h-16.2c-6.9,0-12.6,5.6-12.6,12.6c0,6.9,5.6,12.6,12.6,12.6c6.9,0,12.6-5.6,12.6-12.6h-5.6
		c0,3.8-3.1,6.9-6.9,6.9c-3.8,0-6.9-3.1-6.9-6.9c0-3.8,3.1-6.9,6.9-6.9h16.2v137.8c-5.6,1.3-9.8,6.3-9.8,12.3
		c0,7,5.7,12.6,12.6,12.6c5.4,0,10-3.4,11.8-8.2c7.9-14,71.2,3.1,84.9,32.7c2.2,4.8,6.3,6.9,11.2,6.9c7,0,12.6-5.7,12.6-12.6
		l0.1-187.2H426.5z"/>
	<path class="lavaderoCocina" d="M1738.4,2636.6V2552h-20.4v-13c0-4.4,3.6-7.9,7.9-7.9h24v126.6h-24c-4.4,0-7.9-3.6-7.9-7.9v-13H1738.4z
		 M1666.2,2632c-4.4,0-7.9-3.6-7.9-7.9v-59.7c0-4.4,3.6-7.9,7.9-7.9h67.6v75.5H1666.2z M1696,2580.5c7.5,0,13.6,6.1,13.6,13.6
		c0,7.5-6.1,13.6-13.6,13.6c-7.5,0-13.6-6.1-13.6-13.6C1682.4,2586.6,1688.5,2580.5,1696,2580.5z M1713.3,2594.1
		c0-9.5-7.7-17.3-17.3-17.3c-9.5,0-17.3,7.7-17.3,17.3c0,9.5,7.7,17.3,17.3,17.3C1705.6,2611.4,1713.3,2603.6,1713.3,2594.1z
		 M1754.5,2662.1v-135.7h-28.6c-6.9,0-12.5,5.6-12.5,12.5v13h-47.2c-6.9,0-12.5,5.6-12.5,12.5v59.7c0,6.9,5.6,12.5,12.5,12.5h47.2
		v13c0,6.9,5.6,12.5,12.5,12.5H1754.5z"/>
	<path class="inodoro" d="M1859.1,2600.7c-8.7,0-18.8-0.2-27.3-2c-4.3-0.9-11.2-3-11.2-8.6c0.1-4.8,7.2-9.1,11.2-10.3l0.4-0.1h53.9
		l0.4,0.1c4,1.2,11.1,5.5,11.2,10.4c0,5.5-6.9,7.6-11.2,8.5C1878,2600.5,1867.8,2600.7,1859.1,2600.7 M1830.5,2603.1
		c9,2.1,19.4,2.2,28.6,2.2c9.2,0,19.6-0.1,28.6-2.2l8.2-1.9l-5.4,6.4c-7.8,9.4-19.4,13.4-31.4,13.4c-12,0-23.5-4.1-31.4-13.4
		l-5.4-6.5L1830.5,2603.1z M1838.7,2533.8h40.8c4.4,0,7.9,3.6,7.9,7.9v33.6l-56.7-0.2v-33.4
		C1830.8,2537.3,1834.3,2533.8,1838.7,2533.8z M1902.2,2549.1v-4.6H1892v-2.8c0-6.9-5.6-12.5-12.5-12.5h-40.8
		c-6.9,0-12.5,5.6-12.5,12.5v35.4l-1.4,0.8c-4,2.4-8.8,7.2-8.8,12.2c0,7.5,3.7,15.2,8.4,20.8c6.8,7.9,16.1,12.5,26.3,14.1l3,0.4
		l-0.7,3c-2.8,12.4-14.3,9.6-16.4,17.6l44.7,0c-2.1-8.1-13.6-5.2-16.4-17.6l-0.7-3l3-0.4c10.2-1.5,19.6-6.1,26.3-14.1
		c4.8-5.6,8.4-13.3,8.4-20.8c0-5-4.8-9.9-8.8-12.2l-1.4-0.8v-28H1902.2z"/>
	<path class="ducha" d="M1907.6,2837.2c0.7,2.8-0.1,5.7-2.2,7.8l-38.9,38.9c-2,2-5,2.9-7.8,2.2c-2.7-0.7-4.9-2.6-5.8-5.3
		c-0.8-2.4-1.3-4.9-1.5-7.4c-0.7-9.7-1.2-29.6,6.3-37.1c5.9-5.9,19.3-6.7,27.1-6.7c3.3,0,6.7,0.1,10,0.4c2.5,0.2,5,0.7,7.4,1.5
		C1905,2832.3,1907,2834.4,1907.6,2837.2 M1912.1,2836.1c-1-4.3-4.1-7.7-8.3-9c-2.7-0.9-5.6-1.5-8.5-1.7c-11.2-0.8-29.2-1.1-38.7,6
		l-1.7,1.2l-1.7-1.2c-5.8-4.2-12.9-6.4-20.1-6.4c-9.5,0-17.2,7.7-17.2,17.2v97.4c0,1.3,1,2.3,2.3,2.3c1.3,0,2.3-1,2.3-2.3v-97.4
		c0-7,5.7-12.6,12.6-12.6c6,0,11.9,1.8,16.9,5.2l2,1.4l-1.1,2.2c-4.9,9.8-4.8,24.7-4,35.4c0.2,2.9,0.8,5.7,1.7,8.5
		c1.4,4.2,4.8,7.3,9.1,8.3c1,0.2,2,0.4,3,0.4c3.4,0,6.6-1.3,9-3.7l38.9-38.9C1911.8,2845,1913.1,2840.5,1912.1,2836.1z M1877,2932.2
		c-2.7,0-4.8,2.2-4.8,4.8c0,2.7,2.2,4.8,4.8,4.8c2.7,0,4.8-2.2,4.8-4.8C1881.8,2934.3,1879.6,2932.2,1877,2932.2z M1877,2906.6
		c-2.7,0-4.8,2.2-4.8,4.8c0,2.7,2.2,4.8,4.8,4.8c2.7,0,4.8-2.2,4.8-4.8C1881.8,2908.8,1879.6,2906.6,1877,2906.6z M1902.5,2932.2
		c-2.7,0-4.8,2.2-4.8,4.8c0,2.7,2.2,4.8,4.8,4.8c2.7,0,4.8-2.2,4.8-4.8S1905.1,2932.2,1902.5,2932.2z M1928,2932.2
		c-2.7,0-4.8,2.2-4.8,4.8s2.2,4.8,4.8,4.8c2.7,0,4.8-2.2,4.8-4.8C1932.8,2934.3,1930.7,2932.2,1928,2932.2z M1928,2906.6
		c-2.7,0-4.8,2.2-4.8,4.8c0,2.7,2.2,4.8,4.8,4.8c2.7,0,4.8-2.2,4.8-4.8C1932.8,2908.8,1930.7,2906.6,1928,2906.6z M1928,2881.1
		c-2.7,0-4.8,2.2-4.8,4.8s2.2,4.8,4.8,4.8c2.7,0,4.8-2.2,4.8-4.8C1932.8,2883.3,1930.7,2881.1,1928,2881.1z M1902.5,2906.6
		c-2.7,0-4.8,2.2-4.8,4.8c0,2.7,2.2,4.8,4.8,4.8c2.7,0,4.8-2.2,4.8-4.8C1907.3,2908.8,1905.1,2906.6,1902.5,2906.6z M1928,2865.3
		c2.7,0,4.8-2.2,4.8-4.8c0-2.7-2.2-4.8-4.8-4.8c-2.7,0-4.8,2.2-4.8,4.8S1925.3,2865.3,1928,2865.3z M1907.3,2886
		c0-2.7-2.2-4.8-4.8-4.8c-2.7,0-4.8,2.2-4.8,4.8c0,2.7,2.2,4.8,4.8,4.8C1905.1,2890.8,1907.3,2888.6,1907.3,2886z"/>
	<path class="lavadoBanio" d="M2039.9,2943.1h65.8v-20.4h13c4.4,0,7.9,3.6,7.9,7.9v33.4H2019v-33.4c0-4.4,3.6-7.9,7.9-7.9h13V2943.1z
		 M2044.5,2889.8c0-4.4,3.6-7.9,7.9-7.9h40.8c4.4,0,7.9,3.6,7.9,7.9v48.8h-56.7V2889.8z M2072.8,2899.4c5.5,0,9.9,4.5,9.9,9.9
		c0,5.5-4.5,9.9-9.9,9.9c-5.5,0-9.9-4.5-9.9-9.9C2062.9,2903.8,2067.4,2899.4,2072.8,2899.4z M2085.4,2909.3c0-7-5.6-12.6-12.6-12.6
		c-6.9,0-12.6,5.6-12.6,12.6c0,6.9,5.6,12.6,12.6,12.6C2079.8,2921.9,2085.4,2916.3,2085.4,2909.3z M2014.4,2968.6h116.8v-38
		c0-6.9-5.6-12.5-12.5-12.5h-13v-28.3c0-6.9-5.6-12.5-12.5-12.5h-40.8c-6.9,0-12.5,5.6-12.5,12.5v28.3h-13
		c-6.9,0-12.5,5.6-12.5,12.5V2968.6z"/>
	<line class="puertas" x1="1932.6" y1="2028.4" x2="2151.1" y2="2028.4"/>
	<path class="referncia" d="M2151.1,2028.4V2235c-135.8-15.6-202.1-90.8-221.1-206.6"/>
	<text transform="matrix(1 0 0 1 2000.5969 2770.2961)" class="textos">BAÑO</text>
	<path class="referncia" d="M2151.1,2479.3v206.6c-135.8-15.6-202.1-90.8-221.1-206.6"/>
	<line class="puertas" x1="1932.6" y1="2483.1" x2="2151.1" y2="2483.1"/>
	
	
	
	<path class="sofaCama" d="M1024.9,2916.6c0,22.1-18,40-40,40H771.3c-22.1,0-40-18-40-40v-33.4c0-11,9-20,20-20c11,0,20,9,20,20v26.7
		c0,3.7,3,6.7,6.7,6.7h200.2c3.7,0,6.7-3,6.7-6.7v-26.7c0-11,9-20,20-20c11,0,20,9,20,20V2916.6z M791.4,2758.8h173.5
		c18.4,0,33.4,15,33.4,33.4v58.4c-15.2,3.1-26.7,16.6-26.7,32.7v20H784.7v-20c0-16.1-11.5-29.6-26.7-32.7v-58.4
		C758,2773.8,773,2758.8,791.4,2758.8z M1011.6,2850.6v-58.4c0-25.8-21-46.7-46.7-46.7H791.4c-25.8,0-46.7,21-46.7,46.7v58.4
		c-15.2,3.1-26.7,16.6-26.7,32.7v33.4c0,28.5,24.8,53.4,53.4,53.4h213.5c28.6,0,53.4-24.9,53.4-53.4v-33.4
		C1038.3,2867.1,1026.8,2853.7,1011.6,2850.6z M677.2,2964.9l23.6-21.9c0.4-0.4,0.7-0.9,0.7-1.5c0-0.5-0.2-1-0.5-1.4
		c-0.8-0.8-2-0.9-2.9-0.1l-25.7,23.8l0-219.1l25.7,23.8c0.8,0.8,2.1,0.7,2.9-0.1c0.4-0.4,0.5-0.9,0.5-1.4c0-0.6-0.2-1.1-0.7-1.5
		l-23.3-21.5l-0.1-0.1c-1.8-2-4.4-3.2-7.1-3.2c-2.4,0-5.1,1-6.7,2.8l-0.1,0.1l-23.6,21.9c-0.8,0.8-0.9,2-0.1,2.9
		c0.8,0.8,2,0.9,2.9,0.1l25.7-23.8v219.1l-25.7-23.8c-0.8-0.8-2.1-0.7-2.9,0.1c-0.8,0.8-0.7,2.1,0.1,2.9l23.3,21.5l0.1,0.1
		c1.8,2,4.4,3.2,7.1,3.2c2.4,0,5.1-1,6.7-2.8L677.2,2964.9z"/>
	
	<text transform="matrix(1 0 0 1 309.009 2376.4368)" class="textos">BALCÓN</text>
	<text transform="matrix(1 0 0 1 648.593 2664.3157)" class="textos">MONOAMBIENTE</text>
	<text transform="matrix(1 0 0 1 1275.5032 2531.511)" class="textos">COCINA</text>
	<text transform="matrix(1 0 0 1 1240.5227 2614.1907)" class="textos">COMEDOR</text>
	
</g>
</g>


</svg>
